<?xml version="1.0" standalone="no"?>
<!DOCTYPE svg PUBLIC "-//W3C//DTD SVG 1.1//EN" "http://www.w3.org/Graphics/SVG/1.1/DTD/svg11.dtd" >
<svg>
<metadata>
Created by FontForge 20120731 at Sat Apr 16 23:46:54 2016
 By www
Copyright (c) 1987, 1993, 1995 Adobe Systems Incorporated.  All Rights Reserved.Univers is a trademark of Linotype-Hell AG and/or its subsidiaries.
</metadata>
<defs>
<font id="UniversCE-Bold" horiz-adv-x="556" >
  <font-face 
    font-family="Univers CE 45 Light"
    font-weight="700"
    font-stretch="normal"
    units-per-em="1000"
    panose-1="2 0 8 3 5 0 0 2 0 3"
    ascent="800"
    descent="-200"
    x-height="505"
    cap-height="725"
    bbox="-167 -306 995 940"
    underline-thickness="50"
    underline-position="-75"
    unicode-range="U+0020-FB02"
  />
<missing-glyph horiz-adv-x="278" 
 />
    <glyph glyph-name=".notdef" horiz-adv-x="278" 
 />
    <glyph glyph-name="exclam" unicode="!" horiz-adv-x="389" 
d="M244 197l13 526h-134l18 -526h103zM129 0h127v133h-127v-133z" />
    <glyph glyph-name="quotedbl" unicode="&#x22;" horiz-adv-x="474" 
d="M73 697l27 -248h79l27 248h-133zM265 697l27 -248h79l26 248h-132z" />
    <glyph glyph-name="numbersign" unicode="#" 
d="M-9 175h82l-32 -175h129l32 175h96l-33 -175h128l32 175h103v110h-82l22 121h103v110h-83l34 181h-129l-33 -181h-95l33 181h-128l-33 -181h-103v-110h82l-22 -121h-103v-110zM222 285l23 121h95l-23 -121h-95z" />
    <glyph glyph-name="dollar" unicode="$" 
d="M24 215q2 -52 12.5 -90.5t42.5 -67.5q6 -5 19 -15.5t33.5 -20.5t48.5 -17t64 -6v-100h53v100q27 2 64.5 8.5t76.5 34.5q15 10 30 25.5t27 35.5t20 45t8 55q0 54 -18.5 88.5t-49 57t-70 35.5t-81.5 24v178q16 -2 30 -6t24.5 -14t16.5 -27t7 -45h134q0 12 -1.5 28.5
t-6 34.5t-14.5 37t-28 37q-35 35 -77.5 46t-82.5 14v82h-55v-84q-14 -2 -33 -4.5t-40.5 -9.5t-44.5 -20.5t-44 -36.5q-32 -35 -41.5 -70t-9.5 -62q0 -51 17.5 -85t46 -56.5t66 -37t77.5 -25.5v-177q-8 0 -22.5 3.5t-29 14.5t-24.5 33t-9 60h-136zM250 422q-15 4 -28.5 10
t-24 15t-17 23t-6.5 35q0 32 18.5 54t57.5 24v-161zM299 270q44 -12 62.5 -31.5t18.5 -51.5q0 -40 -25 -61t-56 -24v168z" />
    <glyph glyph-name="percent" unicode="%" horiz-adv-x="889" 
d="M50 569q0 -41 8.5 -75.5t27.5 -60t49.5 -40t74.5 -14.5q64 0 98.5 24t50.5 57t18.5 66.5t2.5 52.5q0 35 -6 68t-23.5 58.5t-49.5 41t-84 15.5q-42 0 -70.5 -10.5t-47 -28t-28.5 -38.5t-14.5 -42.5t-5.5 -41t-1 -32.5zM158 573q0 11 1 30t6.5 37t17.5 31t34 13
q19 0 30 -11t16 -27t6.5 -34.5t1.5 -33.5q0 -36 -4.5 -58.5t-12 -35.5t-18 -18t-23.5 -5q-32 0 -43.5 27t-11.5 85zM510 182q0 -41 8 -75.5t27 -60.5t49.5 -40.5t74.5 -14.5q43 0 72 11.5t48 29.5t29.5 40.5t15 45t5.5 42t1 32.5q0 35 -6 67.5t-23.5 58t-49.5 41t-84 15.5
q-42 0 -70.5 -10.5t-47 -28t-28.5 -38.5t-14.5 -42.5t-5.5 -40.5t-1 -32zM617 185q0 12 1 30.5t6.5 36.5t17.5 31t34 13q19 0 30 -11t16.5 -27t7 -34.5t1.5 -33.5q0 -36 -4.5 -58.5t-12 -35.5t-18 -18t-23.5 -5q-32 0 -44 27.5t-12 84.5zM593 769l-380 -781h75l380 781h-75z
" />
    <glyph glyph-name="ampersand" unicode="&#x26;" horiz-adv-x="778" 
d="M559 449q0 -29 -0.5 -53t-3.5 -46.5t-9 -46.5t-16 -53l-146 147q14 8 38 22.5t46.5 37t39 54t16.5 73.5q0 19 -7.5 46.5t-30.5 52t-65.5 42t-112.5 17.5q-74 0 -117.5 -19.5t-66.5 -46.5t-30 -54.5t-7 -43.5q0 -31 10 -56t24.5 -44t29 -32.5t23.5 -20.5
q-19 -12 -45 -30.5t-54 -53.5q-33 -42 -42.5 -79t-9.5 -63q0 -52 20.5 -92.5t57 -68.5t86.5 -42.5t109 -14.5q46 0 81.5 8t64 20.5t50 27.5t38.5 28l56 -67h187l-147 152q22 36 37.5 70t25.5 70t14 75t4 84h-148zM307 475q-4 3 -15.5 14t-24 26t-22.5 32.5t-10 34.5
q0 29 20 46.5t53 17.5t52.5 -18.5t19.5 -47.5q0 -18 -8.5 -34.5t-20 -30.5t-24 -24t-20.5 -16zM439 145q-25 -20 -61.5 -37t-71.5 -17q-25 0 -48 8t-40.5 23.5t-28 37.5t-10.5 51q0 41 22.5 69t55.5 50z" />
    <glyph glyph-name="quotesingle" unicode="'" horiz-adv-x="238" 
d="M51 697l27 -248h79l27 248h-133z" />
    <glyph glyph-name="parenleft" unicode="(" horiz-adv-x="333" 
d="M164 757q-42 -108 -72 -219t-30 -227q0 -113 29 -221t72 -213h109q-22 77 -38.5 136.5t-27 110t-16 96.5t-5.5 96q0 67 9 130.5t22.5 120t29 104.5t27.5 86h-109z" />
    <glyph glyph-name="parenright" unicode=")" horiz-adv-x="333" 
d="M169 -123q42 109 72 220t30 227q0 112 -29 220.5t-72 212.5h-109q22 -77 38.5 -136t27 -109.5t16 -96.5t5.5 -97q0 -67 -9 -130.5t-22.5 -120t-29 -105t-27.5 -85.5h109z" />
    <glyph glyph-name="asterisk" unicode="*" 
d="M67 465l151 20l-93 -122l90 -54l58 142l58 -141l93 51l-94 123l149 -23l2 106l-153 -18l98 118l-93 55l-59 -141l-56 138l-93 -51l94 -119l-152 22v-106z" />
    <glyph glyph-name="plus" unicode="+" horiz-adv-x="584" 
d="M225 0h134v202h199v129h-199v202h-134v-202h-199v-129h199v-202z" />
    <glyph glyph-name="comma" unicode="," horiz-adv-x="278" 
d="M102 133l-74 -246h103l119 246h-148z" />
    <glyph glyph-name="hyphen" unicode="-" horiz-adv-x="333" 
d="M44 208h248v113h-248v-113z" />
    <glyph glyph-name="hyphen" unicode="&#xad;" horiz-adv-x="333" 
d="M44 208h248v113h-248v-113z" />
    <glyph glyph-name="period" unicode="." horiz-adv-x="278" 
d="M74 0h127v133h-127v-133z" />
    <glyph glyph-name="slash" unicode="/" horiz-adv-x="444" 
d="M300 718l-271 -718h117l269 718h-115z" />
    <glyph glyph-name="zero" unicode="0" 
d="M38 347q0 -70 12.5 -134.5t41 -114t74.5 -79.5t113 -30q79 0 127.5 36t75 91t35.5 121t9 127q0 49 -5 87t-13 68t-20 53.5t-25 43.5q-10 15 -26 31t-38.5 29.5t-51.5 22.5t-66 9q-56 0 -96 -20.5t-67 -52.5t-42.5 -72.5t-24 -80.5t-11 -76t-2.5 -59zM376 339
q0 -36 -3.5 -77t-13 -75.5t-28 -57t-48.5 -22.5q-28 0 -46 19t-28.5 51t-14.5 73.5t-4 86.5q0 6 0.5 27.5t2.5 50t6.5 59.5t13.5 58q3 8 8 18.5t13 19.5t20 15.5t28 6.5q21 0 34.5 -10t22.5 -23.5t13 -27t6 -20.5q5 -17 8.5 -40t5.5 -47t3 -46.5t1 -38.5z" />
    <glyph glyph-name="one" unicode="1" 
d="M95 454q57 23 99 47.5t64 41.5v-543h151v698h-129q-86 -62 -185 -105v-139z" />
    <glyph glyph-name="two" unicode="2" 
d="M25 0h490v116q-9 0 -17 -0.5t-23 -0.5q-14 0 -38 -0.5t-64 -1.5q-30 0 -49.5 -0.5t-38.5 -1t-42.5 -1t-61.5 -1.5q113 91 179 156t99.5 112t42.5 80t9 60q0 40 -15.5 75t-45.5 60.5t-74 40t-101 14.5q-64 0 -116.5 -19t-82.5 -57q-15 -19 -23.5 -38t-12.5 -36t-4.5 -32
t-0.5 -25h153q0 7 2.5 24t11.5 34.5t26.5 30.5t47.5 13q39 0 61 -24.5t22 -64.5q0 -24 -9.5 -45t-38.5 -56q-28 -34 -54.5 -59t-50.5 -47l-181 -165v-141z" />
    <glyph glyph-name="three" unicode="3" 
d="M22 190q0 -11 1.5 -29.5t7.5 -41t19 -45.5t36 -42q17 -14 38.5 -23t44 -14t44.5 -7.5t41 -2.5q54 0 100.5 15.5t80.5 43t53 65.5t19 82q0 12 -2 27.5t-8 32t-17.5 33.5t-29.5 32q-24 20 -45 29t-38 14q12 3 34 12t44.5 26.5t39 46.5t16.5 73q0 28 -11.5 61.5t-39 62
t-72.5 47.5t-112 19q-56 0 -107.5 -17.5t-86.5 -59.5q-26 -32 -32.5 -63.5t-8.5 -54.5h153q0 22 7 38t19 27t27.5 16.5t31.5 5.5q34 0 60 -20.5t26 -62.5q0 -38 -17 -58.5t-43 -30.5t-56.5 -12t-56.5 -3v-117q27 0 57.5 -1.5t56 -11.5t42 -30.5t16.5 -59.5q0 -41 -24 -68
t-66 -27q-31 0 -49 11.5t-27 27t-11.5 31t-2.5 23.5h-152z" />
    <glyph glyph-name="four" unicode="4" 
d="M296 152v-152h148v152h95v115h-95l1 431h-149l-280 -411v-135h280zM306 525q0 -7 -0.5 -18.5t-1 -23.5t-0.5 -22v-13v-184h-176z" />
    <glyph glyph-name="five" unicode="5" 
d="M31 172q1 -20 7 -49.5t32 -61.5q36 -43 88 -59.5t107 -16.5q67 0 114.5 23t77.5 59t43.5 81t13.5 90q0 52 -16.5 93.5t-44.5 70t-65.5 43.5t-79.5 15q-29 0 -50 -5t-36.5 -12.5t-26.5 -16.5t-19 -16l9 173h291v114h-423l-16 -413l145 -4q2 6 6.5 17.5t14.5 23.5
t26.5 20.5t41.5 8.5t42.5 -10t29 -27.5t16.5 -40t5 -47.5q0 -35 -8.5 -59.5t-23 -40.5t-33 -23.5t-38.5 -7.5q-26 0 -42.5 10t-25.5 23t-11.5 26t-2.5 19h-148z" />
    <glyph glyph-name="six" unicode="6" 
d="M519 525q-1 48 -19 82.5t-47 56.5t-66 32.5t-76 10.5q-10 0 -28 -1t-40 -6t-46 -15t-47 -27q-36 -26 -58 -65t-34 -86t-16.5 -99.5t-4.5 -104.5q0 -21 1 -52.5t8 -66.5t21.5 -70.5t41 -64t68 -46t101.5 -17.5q59 0 101 16.5t77 48.5q40 37 57 80.5t17 101.5
q0 57 -17.5 98.5t-46 69t-64.5 40.5t-72 13q-27 0 -48.5 -5.5t-38 -14t-29 -18t-21.5 -18.5q1 27 3.5 61t12.5 64t30.5 50.5t58.5 20.5q28 0 49.5 -15.5t23.5 -53.5h148zM287 98q-18 0 -35.5 7t-30.5 22t-21 38t-8 55q0 40 12.5 64.5t29 37.5t33.5 17t26 4q38 0 64 -31
t26 -89q0 -36 -9 -60t-23 -38.5t-31 -20.5t-33 -6z" />
    <glyph glyph-name="seven" unicode="7" 
d="M37 581h321l-255 -581h167l240 573v124h-473v-116z" />
    <glyph glyph-name="eight" unicode="8" 
d="M174 366q-20 -7 -43 -17t-49 -35q-23 -22 -37 -51.5t-14 -70.5q0 -42 17.5 -79t49 -64.5t76 -43.5t97.5 -16q51 0 97.5 13.5t82 40t56 64t20.5 85.5q0 26 -7 52t-25 52q-14 19 -29 32t-30 20.5t-29 12t-24 7.5q27 4 51.5 16.5t43.5 32.5t30.5 46t11.5 58q0 41 -17.5 75.5
t-48.5 60t-75 39.5t-96 14q-64 0 -109.5 -18.5t-75 -47t-43 -63t-13.5 -66.5q0 -41 15.5 -67.5t37 -43.5t44 -25.5t35.5 -12.5zM281 423q-42 0 -66 26.5t-24 63.5q0 40 26.5 63.5t64.5 23.5q18 0 34.5 -5.5t29.5 -16.5t21 -27.5t8 -37.5q0 -42 -28 -66t-66 -24zM281 96
q-18 0 -36 6.5t-32.5 19t-23.5 32t-9 46.5q0 45 28 74t72 29q40 0 70 -26.5t30 -74.5q0 -29 -9.5 -49.5t-24 -33t-32 -18t-33.5 -5.5z" />
    <glyph glyph-name="nine" unicode="9" 
d="M33 170q0 -46 13.5 -77t34 -51.5t46 -31.5t49.5 -16t43.5 -6t29.5 -1q63 0 113 17.5t84.5 61t53 116.5t18.5 184q0 28 -1.5 64t-9 74t-22.5 74t-42.5 64.5t-69 46t-101.5 17.5q-58 0 -103.5 -17.5t-77.5 -48.5t-49 -72.5t-17 -90.5q0 -31 9.5 -69t34 -71.5t66 -56
t105.5 -22.5q12 0 26 1t30 6t33.5 14.5t36.5 26.5q1 -36 -1 -72.5t-13 -65.5t-33.5 -47.5t-61.5 -18.5q-32 0 -51 18t-22 50h-151zM267 373q-33 0 -51.5 14t-28 32t-12 36.5t-2.5 27.5q0 20 5 39.5t16.5 35.5t30 25.5t45.5 9.5q46 0 69.5 -30t23.5 -76q0 -18 -4.5 -38.5
t-15.5 -37t-29.5 -27.5t-46.5 -11z" />
    <glyph glyph-name="colon" unicode=":" horiz-adv-x="278" 
d="M76 0h126v134h-126v-134zM76 370h126v135h-126v-135z" />
    <glyph glyph-name="semicolon" unicode=";" horiz-adv-x="278" 
d="M80 370h126v135h-126v-135zM87 133l-74 -246h103l119 246h-148z" />
    <glyph glyph-name="semicolon" unicode="&#x37e;" horiz-adv-x="278" 
d="M80 370h126v135h-126v-135zM87 133l-74 -246h103l119 246h-148z" />
    <glyph glyph-name="less" unicode="&#x3c;" horiz-adv-x="584" 
d="M26 200l532 -207v141l-372 133l372 133v140l-532 -206v-134z" />
    <glyph glyph-name="equal" unicode="=" horiz-adv-x="584" 
d="M26 318h532v129h-532v-129zM26 86h532v129h-532v-129z" />
    <glyph glyph-name="greater" unicode="&#x3e;" horiz-adv-x="584" 
d="M559 200v134l-533 206v-140l372 -133l-372 -133v-141z" />
    <glyph glyph-name="question" unicode="?" horiz-adv-x="500" 
d="M256 162v81q0 12 2 22t8 20.5t18 23t32 30.5l57 51q4 4 8.5 8t10.5 11t14 17.5t19 26.5q20 29 24 55.5t4 40.5q0 50 -20.5 85.5t-54 58t-76.5 33t-87 10.5q-60 0 -100 -6t-69 -14v-104q21 6 37.5 10.5t32 7.5t31 4.5t32.5 1.5q42 0 66 -12t36 -28.5t15 -33t3 -25.5
q0 -38 -23 -74.5t-53 -70.5l-44 -49q-14 -16 -21.5 -28.5t-11 -23t-4 -19.5t-0.5 -17v-93h114zM139 0h120v120h-120v-120z" />
    <glyph glyph-name="at" unicode="@" horiz-adv-x="975" 
d="M773 135q-45 -35 -86.5 -54t-76 -28t-61 -11t-43.5 -2q-70 0 -129.5 21t-102.5 61t-67 97t-24 129q0 81 27 143t73 104t106.5 63.5t127.5 21.5q47 0 95 -12.5t87 -40.5t64 -73.5t25 -111.5q0 -45 -11.5 -81.5t-28.5 -62t-38 -39.5t-40 -14q-13 0 -23.5 8.5t-10.5 26.5
q0 14 4 30.5t9 30.5l60 206h-99l-13 -45q-3 8 -7.5 16t-15.5 18q-17 15 -39.5 21t-42.5 6q-43 0 -79.5 -20.5t-63 -54t-41.5 -76t-15 -86.5q0 -73 38.5 -113t95.5 -40q15 0 32 3.5t35 12.5t35 25.5t31 43.5q1 -9 3.5 -21t13.5 -26q16 -20 37.5 -26t38.5 -6q43 0 80.5 20.5
t65 55.5t43 82t15.5 100q0 75 -28 131t-74.5 94t-107.5 57t-128 19q-81 0 -153.5 -26.5t-127.5 -76.5t-87.5 -121.5t-32.5 -161.5q0 -82 28 -150t79 -117t121.5 -76t155.5 -27q38 0 74.5 5.5t73.5 18t76 33t81 51.5zM411 311q0 33 9 65.5t23.5 58t33.5 41t39 15.5
q25 0 37 -15t12 -32q0 -2 -2 -15.5t-6.5 -34t-11.5 -44t-17 -45.5q-4 -8 -9.5 -18.5t-14 -19.5t-19 -15.5t-24.5 -6.5q-18 0 -28 9t-15 20.5t-6 22t-1 14.5z" />
    <glyph glyph-name="A" unicode="A" horiz-adv-x="722" 
d="M266 723l-261 -723h148l54 156h286l52 -156h156l-251 723h-184zM247 273l107 308l100 -308h-207z" />
    <glyph glyph-name="B" unicode="B" horiz-adv-x="667" 
d="M68 0h270q10 0 32 0.5t48.5 3t53.5 8.5t48 17q42 21 74 63.5t32 106.5q0 28 -8.5 56.5t-27 52.5t-47.5 41.5t-70 25.5v2q16 4 30 11.5t25 15t18 14t9 8.5q14 13 22 27.5t12.5 29t6 28t1.5 23.5q0 16 -3.5 36t-12.5 41t-24.5 41t-40.5 36q-21 13 -45.5 20t-48.5 10
t-46 3.5t-38 0.5h-270v-722zM216 611h105q19 0 41.5 -1.5t41.5 -10t31.5 -26.5t12.5 -52q0 -35 -13 -54t-32.5 -27.5t-41 -10t-37.5 -1.5h-108v183zM216 316h89q28 0 57.5 -1.5t54 -11.5t40 -30.5t15.5 -59.5q0 -36 -13.5 -56t-35.5 -29t-48.5 -10.5t-53.5 -1.5h-105v200z
" />
    <glyph glyph-name="C" unicode="C" horiz-adv-x="667" 
d="M634 487q0 54 -20 98t-55.5 75.5t-85 49t-108.5 17.5q-76 0 -137.5 -27.5t-104.5 -77.5t-66 -120t-23 -156q0 -67 16.5 -132t55 -116.5t102 -83t156.5 -31.5q25 0 52 3.5t54.5 12.5t54 24.5t50.5 40.5q22 22 34.5 45.5t19 46t8.5 42.5t3 36h-163q-1 -36 -12.5 -62
t-29.5 -42.5t-41 -24.5t-47 -8q-38 0 -63.5 15.5t-42.5 39.5t-26 53t-13.5 56.5t-5 50t-0.5 33.5q0 56 9.5 105t29 85.5t50.5 57.5t74 21q39 0 62 -16.5t35 -38t15.5 -42.5t4.5 -30h158z" />
    <glyph glyph-name="D" unicode="D" horiz-adv-x="722" 
d="M65 0h225q27 0 47 0.5t35 1.5t26.5 2.5t21.5 3.5q51 9 97.5 36t82 72t56 108.5t20.5 146.5q0 39 -6.5 78.5t-21 77t-38 70.5t-57.5 58q-33 24 -70 37t-72 19.5t-63.5 7.5t-43.5 1l-239 1v-721zM222 604q33 1 58 1t44 -1.5t33.5 -4t26.5 -5.5q36 -10 61.5 -32t41 -51.5
t22.5 -65.5t7 -74q0 -13 -1.5 -38t-8 -54.5t-19.5 -59t-36 -52.5q-34 -34 -76 -42t-92 -8q-14 0 -31 0.5t-30 1.5v485z" />
    <glyph glyph-name="E" unicode="E" horiz-adv-x="611" 
d="M74 0h495v120h-340v195h308v118h-308v172h329v118h-484v-723z" />
    <glyph glyph-name="F" unicode="F" 
d="M69 0h155v308h290v120h-290v178h311v116h-466v-722z" />
    <glyph glyph-name="G" unicode="G" horiz-adv-x="778" 
d="M715 501q0 15 -1.5 32.5t-7 37t-15.5 40t-28 41.5q-43 49 -109.5 70t-136.5 21q-82 0 -151.5 -25.5t-120 -75t-79 -123t-28.5 -169.5q0 -29 3.5 -63.5t14 -70.5t29.5 -71t49 -65q21 -21 48.5 -38.5t64.5 -30.5t84.5 -20t109.5 -7q54 0 96 4t73.5 10t54.5 13t40 13v361
h-295v-120h140v-152q-6 -2 -15 -4.5t-22.5 -4.5t-33 -3.5t-47.5 -1.5q-65 0 -104 16t-66 46q-20 21 -32 47.5t-18 52.5t-8 51t-2 43q0 42 8 90t31.5 89t64.5 68.5t107 27.5q13 0 29 -2t33 -8t32.5 -17t26.5 -29q14 -21 16.5 -40t3.5 -33h161z" />
    <glyph glyph-name="H" unicode="H" horiz-adv-x="722" 
d="M67 0h155v317h275v-317h155v723h-157v-289h-273v289h-155v-723z" />
    <glyph glyph-name="I" unicode="I" horiz-adv-x="278" 
d="M60 0h155v725h-155v-725z" />
    <glyph glyph-name="J" unicode="J" 
d="M9 234q0 -14 1 -32t5 -38.5t11.5 -41.5t20.5 -41q35 -54 82.5 -71t106.5 -17q53 0 86 9t54 22q34 21 56 48t34.5 59t17 69t4.5 79v444h-157v-443q0 -29 -0.5 -59.5t-5.5 -53.5q-2 -7 -6 -17.5t-13 -20t-23.5 -16.5t-36.5 -7q-48 0 -65.5 34.5t-19.5 93.5h-152z" />
    <glyph glyph-name="K" unicode="K" horiz-adv-x="667" 
d="M67 0h155v368l253 -368h193l-288 399l265 324h-181l-242 -313v311h-155v-721z" />
    <glyph glyph-name="L" unicode="L" 
d="M69 0h468v123h-310v599h-158v-722z" />
    <glyph glyph-name="M" unicode="M" horiz-adv-x="944" 
d="M60 0h145v620l193 -620h128l197 620v-620h154v723h-246l-165 -526l-153 526h-253v-723z" />
    <glyph glyph-name="N" unicode="N" horiz-adv-x="778" 
d="M72 0h146v600l280 -600h213v723h-144v-569l-271 569h-224v-723z" />
    <glyph glyph-name="O" unicode="O" horiz-adv-x="778" 
d="M42 351q0 -25 3 -58.5t12 -70t26.5 -73.5t47.5 -68q50 -52 117 -75.5t139 -23.5q22 0 54 3.5t67 14.5t70.5 31t65.5 54q22 25 39 57.5t28.5 69.5t17.5 77t6 79q0 27 -3.5 60.5t-13.5 69.5t-28 72.5t-47 69.5q-27 30 -59 49t-66 30t-67 15t-62 4q-98 0 -164 -33.5
t-107 -88t-58.5 -124t-17.5 -141.5zM204 356q0 62 11 117t42 93q22 28 55.5 44.5t77.5 16.5q56 0 99 -30.5t66 -97.5q11 -33 14.5 -68t3.5 -61q0 -43 -4.5 -75.5t-11 -57.5t-15.5 -43t-18 -31q-43 -67 -135 -67q-54 0 -84 17.5t-47 40.5q-32 42 -43 96t-11 106z" />
    <glyph glyph-name="P" unicode="P" horiz-adv-x="611" 
d="M65 0h157v281h105q14 0 34 0.5t42.5 3.5t45 10t42.5 20q43 28 67.5 78.5t24.5 113.5q0 28 -7.5 64t-36.5 71q-23 27 -50 42.5t-59 24t-67.5 10.5t-74.5 2h-223v-721zM218 604h78q16 0 38 -1.5t42 -10.5t33.5 -29t13.5 -57q0 -41 -15.5 -63.5t-37.5 -33t-46.5 -12
t-43.5 -1.5h-62v208z" />
    <glyph glyph-name="Q" unicode="Q" horiz-adv-x="778" 
d="M761 111q-47 2 -92 0t-70 -7q13 12 31.5 32.5t35.5 52.5t29.5 77t12.5 107q0 89 -24.5 157t-68 114t-103.5 69.5t-130 23.5q-92 0 -158 -32t-108 -85t-62 -121.5t-20 -142.5q0 -29 5 -67.5t17.5 -79t35 -80.5t58 -71t85.5 -50t117 -19q13 0 45 2t69 4t70 3.5t47 1.5h41
q24 0 48.5 -0.5t48 -1t40.5 -0.5v113zM194 365q0 49 9.5 96.5t30.5 84t56 59t86 22.5q26 0 47 -6.5t37.5 -16.5t27.5 -22t18 -22q8 -12 16 -28t14.5 -38t10.5 -51t4 -68q0 -44 -7 -92t-26.5 -88.5t-54.5 -67t-92 -26.5q-55 0 -89.5 27t-54 67t-26.5 86t-7 84z" />
    <glyph glyph-name="R" unicode="R" horiz-adv-x="667" 
d="M60 0h158v292h136q10 0 21.5 -0.5t22 -4.5t20 -12.5t14.5 -23.5q4 -11 9.5 -45.5t11 -75.5t10.5 -78t8 -52h171q-6 9 -11 18.5t-11 33.5q-4 15 -9 45.5t-13 94.5q-5 35 -10.5 64t-18.5 50.5t-36.5 34.5t-64.5 17q13 4 38.5 13t50.5 28.5t43.5 52t18.5 83.5
q0 35 -14.5 72.5t-48.5 66.5q-22 19 -47.5 29t-53.5 14.5t-58 5t-60 0.5h-277v-723zM213 609h104q37 0 60.5 -2t41.5 -15q11 -7 24.5 -25.5t13.5 -55.5q0 -19 -4.5 -33.5t-11 -24.5t-13.5 -16.5t-11 -9.5q-19 -15 -42 -17.5t-37 -2.5h-125v202z" />
    <glyph glyph-name="S" unicode="S" horiz-adv-x="667" 
d="M35 231q0 -18 1.5 -43t10 -52.5t25 -55t48 -49t79 -35t116.5 -13.5q75 0 132.5 18.5t96.5 50.5t59 74.5t20 91.5q0 53 -21 87.5t-56 57t-79.5 36t-91.5 24.5q-39 10 -68.5 18t-49 19t-29.5 27t-10 41q0 45 32.5 71.5t86.5 26.5q40 0 63 -13.5t35 -32t15 -37t4 -27.5h149
q0 9 -0.5 23.5t-4.5 32.5t-12.5 38t-23.5 40q-20 25 -46 41.5t-55 26.5t-59 13.5t-58 3.5q-75 0 -129.5 -18.5t-89 -49t-51 -71t-16.5 -85.5q0 -47 17.5 -81t51 -59.5t83 -44t114.5 -34.5q34 -8 60 -15.5t43 -17.5t25.5 -25t8.5 -39q0 -46 -37 -73.5t-100 -27.5
q-50 0 -76.5 16.5t-38.5 39t-14 45.5t-2 36h-158z" />
    <glyph glyph-name="T" unicode="T" horiz-adv-x="611" 
d="M229 0h156v603h215v120h-586v-120h215v-603z" />
    <glyph glyph-name="U" unicode="U" horiz-adv-x="778" 
d="M72 721v-432q0 -51 5.5 -93.5t31.5 -84.5q25 -41 61 -65.5t73.5 -38t74 -17.5t63.5 -4q55 0 111 14t102 47t75 87.5t29 135.5v451h-151v-432q0 -27 -1.5 -46.5t-4.5 -34t-7 -24.5t-10 -18q-15 -23 -35 -36t-40.5 -19t-38 -7t-26.5 -1q-57 0 -88.5 16.5t-46.5 42.5
t-18.5 57.5t-3.5 61.5v440h-155z" />
    <glyph glyph-name="V" unicode="V" horiz-adv-x="722" 
d="M12 720l266 -720h169l266 720h-153l-190 -567l-189 567h-169z" />
    <glyph glyph-name="W" unicode="W" horiz-adv-x="1000" 
d="M15 720l176 -722h176l141 552l131 -552h172l184 722h-148l-117 -541l-127 541h-175l-141 -541l-112 541h-160z" />
    <glyph glyph-name="X" unicode="X" horiz-adv-x="722" 
d="M30 723l237 -349l-254 -374h166l173 272l161 -272h190l-252 375l238 348h-166l-156 -246l-146 246h-191z" />
    <glyph glyph-name="Y" unicode="Y" horiz-adv-x="667" 
d="M16 720l244 -455v-265h153v263l244 457h-159l-152 -329l-149 329h-181z" />
    <glyph glyph-name="Z" unicode="Z" horiz-adv-x="611" 
d="M27 0h554v119l-385 -6l377 470v137h-523v-118l355 3l-378 -473v-132z" />
    <glyph glyph-name="bracketleft" unicode="[" horiz-adv-x="333" 
d="M287 752h-229v-875h229v93h-109v690h109v92z" />
    <glyph glyph-name="backslash" unicode="\" horiz-adv-x="444" 
d="M29 718l269 -718h117l-271 718h-115z" />
    <glyph glyph-name="bracketright" unicode="]" horiz-adv-x="333" 
d="M46 660h109v-690h-109v-93h229v875h-229v-92z" />
    <glyph glyph-name="asciicircum" unicode="^" horiz-adv-x="584" 
d="M51 264h138l100 272l103 -272h138l-181 433h-117z" />
    <glyph glyph-name="underscore" unicode="_" horiz-adv-x="500" 
d="M0 -125h500v50h-500v-50z" />
    <glyph glyph-name="grave" unicode="`" horiz-adv-x="278" 
d="M128 730h-140l139 -145h85z" />
    <glyph glyph-name="a" unicode="a" 
d="M502 0q-7 32 -9.5 64t-2.5 64l-1 203q0 9 -0.5 23.5t-4 31.5t-10.5 35.5t-20 33.5q-19 22 -43.5 34.5t-49.5 19.5t-48 9t-39 2q-36 0 -77 -8t-76 -33q-20 -14 -31 -30.5t-17 -33t-7.5 -31t-1.5 -24.5h145q0 9 1.5 20.5t9.5 24.5q10 14 25 21t31 7q5 0 14.5 -1.5t19 -6
t18.5 -12.5t14 -22t6 -28t1 -39q-18 0 -43 -0.5t-52 -3t-54.5 -8.5t-50.5 -16q-35 -16 -56 -37t-32.5 -42.5t-15 -42t-3.5 -35.5q0 -30 10.5 -59t33.5 -52q15 -14 43 -27t83 -13q10 0 27.5 1.5t37.5 9t42.5 24t43.5 46.5q0 -11 0.5 -28.5t4.5 -40.5h134zM349 238
q0 -41 -4 -71t-24 -54q-11 -12 -27 -20.5t-36 -8.5q-18 0 -31.5 6.5t-22.5 17t-13.5 23t-4.5 25.5q0 22 12 39t34 27.5t51.5 14.5t65.5 1z" />
    <glyph glyph-name="b" unicode="b" horiz-adv-x="611" 
d="M60 0h143q2 23 3 41t2 30q17 -30 39.5 -46t44 -24t40 -9.5t28.5 -1.5q38 0 75.5 13.5t67.5 43.5t49 78.5t19 119.5q0 64 -17 113.5t-47 83.5t-70 52t-86 18q-10 0 -26.5 -1.5t-36 -8t-40.5 -20t-40 -38.5v277h-148v-721zM420 240q0 -10 -1.5 -35t-11 -51.5t-30.5 -46.5
t-59 -20q-51 0 -83.5 41.5t-32.5 128.5q0 12 1.5 38t12 52t32.5 46t63 20q40 0 62 -21.5t32.5 -50t12.5 -57.5t2 -44z" />
    <glyph glyph-name="c" unicode="c" horiz-adv-x="500" 
d="M477 326q0 51 -19 87t-49 58.5t-66.5 33t-71.5 10.5q-25 0 -65 -8.5t-78 -36t-65.5 -79.5t-27.5 -138q0 -61 15.5 -111t48.5 -88q35 -39 78 -53t94 -14q48 0 82.5 12t61.5 35q22 18 34.5 38.5t19 40t8.5 37.5t3 33h-146q-2 -34 -11 -53.5t-19.5 -29t-21 -12t-16.5 -2.5
q-8 0 -18.5 3t-21.5 14q-13 14 -20.5 36t-11 45t-4.5 43t-1 31q0 21 2.5 48.5t10.5 52.5t23.5 42.5t41.5 17.5q21 0 33.5 -12t19.5 -28t9 -31t3 -22h145z" />
    <glyph glyph-name="d" unicode="d" horiz-adv-x="611" 
d="M399 443q-5 7 -15 18.5t-27 22.5t-41.5 19.5t-58.5 8.5q-50 0 -91 -19t-70 -54t-45.5 -85t-16.5 -113q0 -119 56.5 -185t158.5 -66q17 0 43.5 4t54.5 22q23 15 33 29t18 28l4 -73h150q-2 14 -3 36.5t-1 45.5v640h-149v-279zM184 245q0 19 3.5 48t14.5 56t33 46.5t59 19.5
q51 0 80.5 -39t29.5 -114q0 -19 -3.5 -53t-20.5 -66q-12 -23 -37 -40t-57 -17q-28 0 -47.5 13t-31.5 35t-17.5 50.5t-5.5 60.5z" />
    <glyph glyph-name="e" unicode="e" 
d="M523 215q1 16 1 37t-2.5 45.5t-9 50.5t-19.5 52q-17 35 -41 58.5t-51 37.5t-56 20t-56 6q-42 0 -77.5 -11t-64.5 -31q-32 -22 -52.5 -50.5t-32 -60t-16 -64.5t-4.5 -64q0 -61 15 -111t50 -86q20 -21 44 -33t48.5 -19t47 -9t38.5 -2q56 0 102.5 15t74.5 44q15 16 24.5 32
t14.5 30t6.5 26.5t2.5 21.5h-135q-11 -42 -35.5 -56t-52.5 -14q-39 0 -59.5 16.5t-30.5 38.5t-11.5 45t-1.5 35h339zM189 308q1 22 7 42.5t17.5 36t29 25t41.5 9.5q32 0 50 -14.5t26.5 -33.5t10 -37.5t1.5 -27.5h-183z" />
    <glyph glyph-name="f" unicode="f" horiz-adv-x="333" 
d="M75 0h147v400h94v105h-94v59q0 10 1 21.5t8.5 21.5t22.5 16.5t44 6.5q9 0 14.5 -0.5t16.5 -2.5v103q-32 4 -52 4.5t-28 0.5q-54 0 -88 -12.5t-53 -34.5t-26 -51.5t-7 -62.5v-69h-75v-105h75v-400z" />
    <glyph glyph-name="g" unicode="g" horiz-adv-x="611" 
d="M405 503l-5 -67q-6 8 -15.5 20.5t-26 24t-41 19.5t-58.5 8q-54 0 -94.5 -21t-67.5 -56t-40.5 -80t-13.5 -93q0 -46 13 -90.5t39 -79.5t66.5 -56.5t94.5 -21.5q13 0 29.5 2t34.5 9t36 21t36 37q0 -29 -0.5 -48t-1 -31.5t-2 -22t-3.5 -18.5q-8 -34 -33.5 -50t-58.5 -16
q-30 0 -47 9t-26 20.5t-11.5 23t-3.5 17.5h-142q3 -57 28 -89.5t59 -48.5t71 -20t64 -4q36 0 80 5.5t82.5 26.5t64 61.5t25.5 110.5v373q0 38 2 66.5t5 58.5h-139zM191 258q0 81 30 116t72 35q34 0 54 -16t30.5 -39.5t13.5 -50.5t3 -48q0 -8 -1.5 -31.5t-11.5 -48.5
t-31 -44.5t-60 -19.5q-37 0 -57 19.5t-29.5 44.5t-11 49.5t-1.5 33.5z" />
    <glyph glyph-name="h" unicode="h" horiz-adv-x="611" 
d="M69 0h149l-1 309q0 30 9 49.5t23 31.5t30.5 17t32.5 5q31 0 48 -13t24.5 -31t9 -36.5t1.5 -29.5v-302h147v307q0 50 -9.5 84t-23.5 53q-9 12 -22.5 24t-32 21.5t-41.5 16t-51 6.5q-35 0 -59.5 -8.5t-41.5 -20.5t-28 -25t-17 -22v286h-147v-722z" />
    <glyph glyph-name="i" unicode="i" horiz-adv-x="278" 
d="M60 593h158v129h-158v-129zM65 0h148v506h-148v-506z" />
    <glyph glyph-name="j" unicode="j" horiz-adv-x="278" 
d="M-2 -194q17 -3 30.5 -3.5t19.5 -0.5q47 0 79 10.5t51 30.5t27 48t8 64v552h-148v-515q0 -10 -1 -25t-7.5 -29t-20 -23.5t-38.5 -8.5v-100zM60 593h158v129h-158v-129z" />
    <glyph glyph-name="k" unicode="k" 
d="M67 0h147v275l156 -275h175l-184 288l173 220h-167l-153 -211v426h-147v-723z" />
    <glyph glyph-name="l" unicode="l" horiz-adv-x="278" 
d="M65 0h148v723h-148v-723z" />
    <glyph glyph-name="m" unicode="m" horiz-adv-x="944" 
d="M69 0h148v297q0 13 1.5 32.5t10 37.5t27.5 31t54 13q31 0 47.5 -12t24 -29t9 -36t1.5 -34v-300h149v253q0 28 2 56.5t11 51t27.5 36.5t51.5 14q29 0 46 -10t25.5 -26.5t11 -37t2.5 -40.5v-297h151v285q0 33 -3.5 74.5t-23.5 74.5q-4 7 -14.5 21t-28.5 27t-45.5 23
t-65.5 10q-20 0 -41.5 -3.5t-43 -13.5t-41.5 -28.5t-36 -48.5q-4 9 -13 25t-27 31.5t-47 27t-72 11.5q-38 0 -65 -9t-45 -21t-29 -25t-17 -21l-5 65h-142q2 -24 3.5 -47.5t1.5 -47.5v-410z" />
    <glyph glyph-name="n" unicode="n" horiz-adv-x="611" 
d="M67 0h149v296q0 29 5.5 48t12.5 29q12 18 32.5 28.5t44.5 10.5q29 0 46.5 -13t25.5 -30q6 -12 7 -25.5t1 -29.5v-314h151v273q0 35 -0.5 59t-2 40.5t-4.5 28t-7 23.5q-5 13 -15.5 29.5t-29 31t-45.5 24.5t-64 10q-41 0 -70 -10.5t-48 -25t-30 -29t-16 -23.5l-4 76h-142
q1 -13 1.5 -29t1 -29.5t0.5 -23.5v-10v-415z" />
    <glyph glyph-name="o" unicode="o" horiz-adv-x="611" 
d="M42 248q0 -66 20 -116t55 -83.5t82 -50t101 -16.5q69 0 119 22t82.5 59.5t48 86.5t15.5 102t-15 101t-47 84.5t-81.5 58t-118.5 21.5q-75 0 -125 -25t-80 -64t-43 -86.5t-13 -93.5zM194 247q0 17 2 46t12 56.5t32 48t63 20.5q37 0 59 -15.5t33.5 -39.5t15 -52t3.5 -53
q0 -50 -8 -83.5t-22 -53.5t-34.5 -28t-44.5 -8q-55 0 -83 38.5t-28 123.5z" />
    <glyph glyph-name="p" unicode="p" horiz-adv-x="611" 
d="M60 505v-699h151v252q5 -6 15 -17t26.5 -21.5t41 -18.5t58.5 -8q55 0 96 22t68.5 59.5t41.5 86t14 102.5q0 58 -14.5 104.5t-41.5 79.5t-66 50.5t-88 17.5q-9 0 -27.5 -1.5t-41 -9t-45.5 -24.5t-40 -47l-4 72h-144zM314 90q-41 0 -63 20.5t-32.5 47.5t-12.5 53t-2 37
q0 51 11.5 84t28.5 52.5t37.5 27.5t38.5 8q33 0 53 -17t31 -42t14.5 -53.5t3.5 -50.5q0 -75 -27.5 -121t-80.5 -46z" />
    <glyph glyph-name="q" unicode="q" horiz-adv-x="611" 
d="M407 506l-5 -73q-5 7 -14.5 21t-27.5 28t-45 24t-66 10q-38 0 -75.5 -13t-68.5 -43t-50 -79t-19 -122q0 -72 20.5 -123t52.5 -82.5t71.5 -46t77.5 -14.5q32 0 55.5 8t40.5 18.5t27.5 21.5t16.5 18v-251h152v601q0 7 0.5 22t1 30.5t1 28.5t0.5 16h-146zM187 255
q0 28 4 57.5t15.5 53t31.5 38.5t52 15q38 0 61 -18.5t35 -44.5t16 -54.5t4 -49.5t-3.5 -48.5t-14.5 -52.5t-32.5 -42.5t-57.5 -17.5q-16 0 -38.5 6t-39.5 30q-11 15 -17.5 32t-10 34t-4.5 33.5t-1 28.5z" />
    <glyph glyph-name="r" unicode="r" horiz-adv-x="389" 
d="M65 0h148v249q0 24 3.5 48.5t19.5 43.5t48 29t88 5v133q-45 2 -75 -7t-49 -24t-30 -33t-18 -34l-3 97h-139q1 -11 2.5 -28.5t2.5 -36.5t1.5 -35.5t0.5 -25.5v-381z" />
    <glyph glyph-name="s" unicode="s" horiz-adv-x="500" 
d="M29 146q1 -18 6.5 -45.5t30.5 -53.5q35 -36 79.5 -49t93.5 -13q59 0 102.5 15t72.5 39.5t43 55.5t14 64q0 52 -33 87t-102 54l-91 25q-33 9 -51 18t-18 35q0 23 20 36.5t50 13.5q9 0 20.5 -1.5t22.5 -7.5t19 -18t10 -33h135q-2 38 -17.5 66t-41 46.5t-60 27.5t-73.5 9
q-49 0 -89.5 -11t-70 -31.5t-45.5 -49.5t-16 -66q0 -39 14 -64t34.5 -40.5t42.5 -23.5t37 -12l92 -25q43 -12 56.5 -26t13.5 -31q0 -23 -19 -41.5t-59 -18.5q-23 0 -39 6.5t-25.5 16t-14 22t-5.5 24.5h-139z" />
    <glyph glyph-name="t" unicode="t" horiz-adv-x="389" 
d="M362 104q-14 -2 -23.5 -2.5t-26.5 -0.5q-25 0 -38.5 5t-19.5 15t-7.5 24t-1.5 31v228h120v98h-120v153l-147 -54v-99h-97v-98h97v-277q0 -16 2.5 -39t16.5 -44.5t44 -37t86 -15.5q18 0 48.5 3t66.5 13v97z" />
    <glyph glyph-name="u" unicode="u" horiz-adv-x="611" 
d="M60 505v-314q0 -9 0.5 -26t3.5 -36t10 -39t19 -35q21 -28 61 -48t91 -20q36 0 61.5 9.5t43 22.5t28 26.5t16.5 21.5l5 -67h144q-2 11 -2.5 18.5t-1.5 18.5v11q0 7 -0.5 20.5t-1 38t-1.5 65.5v333h-152v-255q0 -32 -1.5 -60.5t-10.5 -50t-28 -34t-55 -12.5q-30 0 -46 11
t-23.5 28t-8.5 36t-1 36v301h-150z" />
    <glyph glyph-name="v" unicode="v" 
d="M7 505l185 -505h164l182 505h-143l-116 -343l-114 343h-158z" />
    <glyph glyph-name="w" unicode="w" horiz-adv-x="889" 
d="M5 505l165 -505h163l106 374l104 -374h161l173 505h-147l-99 -381l-106 381h-163l-107 -381l-93 381h-157z" />
    <glyph glyph-name="x" unicode="x" 
d="M16 505l162 -234l-169 -271h155l103 185l102 -185h175l-169 259l164 246h-154l-99 -165l-95 165h-175z" />
    <glyph glyph-name="y" unicode="y" 
d="M14 505l194 -507l-64 -190h149l61 201l191 496h-147l-113 -350l-111 350h-160z" />
    <glyph glyph-name="z" unicode="z" horiz-adv-x="500" 
d="M32 0h431v102h-266l256 276v127h-414v-99h249l-256 -276v-130z" />
    <glyph glyph-name="braceleft" unicode="{" horiz-adv-x="333" 
d="M103 449q0 -38 -7.5 -60.5t-27.5 -40.5q-20 -17 -44.5 -25t-38.5 -9v-86q44 -7 68 -21.5t35 -33.5t13 -40t2 -40v-35q0 -43 3.5 -72t9.5 -48.5t15.5 -32t21.5 -23.5q32 -31 78.5 -45.5t116.5 -17.5v82q-42 2 -64.5 17.5t-33 37t-12 47t-1.5 48.5v37q0 36 -6.5 71.5
t-34.5 63.5q-14 15 -29.5 23.5t-31 13.5t-30 7t-26.5 4q50 4 81 21t48 42t23 56t6 64v36q0 23 1.5 48.5t12 47t33 37t64.5 18.5v82q-90 -5 -139.5 -27t-73 -55.5t-28 -74.5t-4.5 -82v-35z" />
    <glyph glyph-name="bar" unicode="|" horiz-adv-x="278" 
d="M73 -214h132v1000h-132v-1000z" />
    <glyph glyph-name="braceright" unicode="}" horiz-adv-x="333" 
d="M230 93q0 19 2.5 40t13.5 39.5t35 33.5t67 22v86q-6 1 -16.5 3t-23 6t-25 10.5t-21.5 15.5q-18 18 -25 41.5t-7 58.5v35q0 42 -5 83t-28.5 74t-73 55t-138.5 27v-82q42 -3 64.5 -18.5t33 -37t12 -47t1.5 -48.5v-36q0 -56 10.5 -83t28.5 -47q15 -17 30.5 -27t31 -15.5
t30 -7.5t27.5 -3q-12 -2 -26.5 -4t-30 -7t-31 -13.5t-29.5 -23.5q-15 -15 -23 -32.5t-12 -35t-5 -35t-1 -32.5v-37q0 -23 -1.5 -48.5t-12 -47.5t-33 -37t-64.5 -17v-82q90 4 140 26.5t73 56t27.5 74.5t4.5 82v35z" />
    <glyph glyph-name="asciitilde" unicode="~" horiz-adv-x="584" 
d="M102 173q4 26 18.5 43.5t40.5 17.5q7 0 17.5 -2t20.5 -5t19 -6t14 -4q59 -19 106 -33t73 -14q43 0 72 19t47 47.5t26.5 62t10.5 62.5h-85q-1 -5 -3.5 -15t-8.5 -20t-17 -17.5t-29 -7.5q-10 0 -20 1.5t-25 5.5t-39 11t-61 19q-45 14 -67 19.5t-39 5.5q-31 0 -58 -13
t-47.5 -37.5t-33.5 -60t-16 -79.5h84z" />
    <glyph glyph-name="quotesinglbase" horiz-adv-x="278" 
d="M102 133l-74 -246h103l119 246h-148z" />
    <glyph glyph-name="quotesinglbase" unicode="&#x201a;" horiz-adv-x="278" 
d="M102 133l-74 -246h103l119 246h-148z" />
    <glyph glyph-name="quotedblbase" 
d="M171 -113l111 246h-143l-71 -246h103zM370 -113l111 246h-143l-71 -246h103z" />
    <glyph glyph-name="quotedblbase" unicode="&#x201e;" 
d="M171 -113l111 246h-143l-71 -246h103zM370 -113l111 246h-143l-71 -246h103z" />
    <glyph glyph-name="ellipsis" unicode="&#x85;" horiz-adv-x="1000" 
d="M92 0h149v147h-149v-147zM425 0h149v147h-149v-147zM758 0h150v147h-150v-147z" />
    <glyph glyph-name="ellipsis" unicode="&#x2026;" horiz-adv-x="1000" 
d="M92 0h149v147h-149v-147zM425 0h149v147h-149v-147zM758 0h150v147h-150v-147z" />
    <glyph glyph-name="dagger" 
d="M214 465v-465h122v465h157v100h-157v157h-122v-157h-161v-100h161z" />
    <glyph glyph-name="dagger" unicode="&#x2020;" 
d="M214 465v-465h122v465h157v100h-157v157h-122v-157h-161v-100h161z" />
    <glyph glyph-name="daggerdbl" 
d="M336 572v150h-122v-150h-161v-97h161v-225h-158v-97h158v-153h122v153h159v97h-159v225h159v97h-159z" />
    <glyph glyph-name="daggerdbl" unicode="&#x2021;" 
d="M336 572v150h-122v-150h-161v-97h161v-225h-158v-97h158v-153h122v153h159v97h-159v225h159v97h-159z" />
    <glyph glyph-name="perthousand" horiz-adv-x="1000" 
d="M509 335q-41 0 -67.5 -13.5t-42.5 -37t-22.5 -55.5t-6.5 -68q0 -35 7 -66t23 -54t43 -36.5t68 -13.5q51 0 79 20.5t41.5 49t16.5 60t3 54.5q0 73 -33 116.5t-109 43.5zM511 68q-27 0 -34 24t-7 65q0 22 1 40.5t5.5 32t13 21.5t23.5 8q27 0 34 -27t7 -67q0 -52 -9 -74.5
t-34 -22.5zM845 335q-41 0 -67.5 -13.5t-42.5 -37t-22.5 -55.5t-6.5 -68q0 -35 7 -66t23.5 -54t43.5 -36.5t68 -13.5q51 0 79 20.5t41.5 49t16.5 60t3 54.5q0 73 -33 116.5t-110 43.5zM848 68q-27 0 -34.5 24t-7.5 65q0 44 7 73t36 29q14 0 22 -7t12.5 -20t5.5 -30t1 -37
q0 -52 -8.5 -74.5t-33.5 -22.5zM147 719q-41 0 -67.5 -13.5t-42.5 -36.5t-22.5 -55t-6.5 -68q0 -35 7 -66.5t23.5 -54.5t43.5 -36.5t68 -13.5q51 0 79 20.5t41.5 49.5t16 60.5t2.5 54.5q0 73 -32.5 116t-109.5 43zM150 452q-27 0 -34.5 24.5t-7.5 64.5q0 44 7 73.5t36 29.5
q14 0 22 -7.5t12.5 -20t5.5 -30t1 -37.5q0 -52 -8.5 -74.5t-33.5 -22.5zM151 -16l425 743h-73l-427 -743h75z" />
    <glyph glyph-name="perthousand" unicode="&#x2030;" horiz-adv-x="1000" 
d="M509 335q-41 0 -67.5 -13.5t-42.5 -37t-22.5 -55.5t-6.5 -68q0 -35 7 -66t23 -54t43 -36.5t68 -13.5q51 0 79 20.5t41.5 49t16.5 60t3 54.5q0 73 -33 116.5t-109 43.5zM511 68q-27 0 -34 24t-7 65q0 22 1 40.5t5.5 32t13 21.5t23.5 8q27 0 34 -27t7 -67q0 -52 -9 -74.5
t-34 -22.5zM845 335q-41 0 -67.5 -13.5t-42.5 -37t-22.5 -55.5t-6.5 -68q0 -35 7 -66t23.5 -54t43.5 -36.5t68 -13.5q51 0 79 20.5t41.5 49t16.5 60t3 54.5q0 73 -33 116.5t-110 43.5zM848 68q-27 0 -34.5 24t-7.5 65q0 44 7 73t36 29q14 0 22 -7t12.5 -20t5.5 -30t1 -37
q0 -52 -8.5 -74.5t-33.5 -22.5zM147 719q-41 0 -67.5 -13.5t-42.5 -36.5t-22.5 -55t-6.5 -68q0 -35 7 -66.5t23.5 -54.5t43.5 -36.5t68 -13.5q51 0 79 20.5t41.5 49.5t16 60.5t2.5 54.5q0 73 -32.5 116t-109.5 43zM150 452q-27 0 -34.5 24.5t-7.5 64.5q0 44 7 73.5t36 29.5
q14 0 22 -7.5t12.5 -20t5.5 -30t1 -37.5q0 -52 -8.5 -74.5t-33.5 -22.5zM151 -16l425 743h-73l-427 -743h75z" />
    <glyph glyph-name="guilsinglleft" horiz-adv-x="278" 
d="M126 56h132l-95 196l95 190h-132l-109 -190z" />
    <glyph glyph-name="guilsinglleft" unicode="&#x2039;" horiz-adv-x="278" 
d="M126 56h132l-95 196l95 190h-132l-109 -190z" />
    <glyph glyph-name="quoteleft" horiz-adv-x="278" 
d="M240 722h-105l-112 -247h146z" />
    <glyph glyph-name="quoteleft" unicode="&#x2018;" horiz-adv-x="278" 
d="M240 722h-105l-112 -247h146z" />
    <glyph glyph-name="quoteright" horiz-adv-x="278" 
d="M39 475h105l112 247h-146z" />
    <glyph glyph-name="quoteright" unicode="&#x2019;" horiz-adv-x="278" 
d="M39 475h105l112 247h-146z" />
    <glyph glyph-name="quotedblleft" 
d="M280 722h-104l-112 -247h145zM476 722h-105l-112 -247h146z" />
    <glyph glyph-name="quotedblleft" unicode="&#x201c;" 
d="M280 722h-104l-112 -247h145zM476 722h-105l-112 -247h146z" />
    <glyph glyph-name="quotedblright" 
d="M67 475h104l113 247h-146zM263 475h104l112 247h-146z" />
    <glyph glyph-name="quotedblright" unicode="&#x201d;" 
d="M67 475h104l113 247h-146zM263 475h104l112 247h-146z" />
    <glyph glyph-name="bullet" horiz-adv-x="350" 
d="M175 542q-37 0 -70 -14t-57.5 -38t-39 -57t-14.5 -71t14 -70.5t39 -57.5t57.5 -39t70.5 -14q37 0 70 14t58 39t39 57.5t14 70.5t-14.5 71t-39 57t-57.5 38t-70 14z" />
    <glyph glyph-name="bullet" unicode="&#x2022;" horiz-adv-x="350" 
d="M175 542q-37 0 -70 -14t-57.5 -38t-39 -57t-14.5 -71t14 -70.5t39 -57.5t57.5 -39t70.5 -14q37 0 70 14t58 39t39 57.5t14 70.5t-14.5 71t-39 57t-57.5 38t-70 14z" />
    <glyph glyph-name="endash" horiz-adv-x="500" 
d="M0 213h500v97h-500v-97z" />
    <glyph glyph-name="endash" unicode="&#x2013;" horiz-adv-x="500" 
d="M0 213h500v97h-500v-97z" />
    <glyph glyph-name="emdash" horiz-adv-x="1000" 
d="M130 213h740v97h-740v-97z" />
    <glyph glyph-name="emdash" unicode="&#x2014;" horiz-adv-x="1000" 
d="M130 213h740v97h-740v-97z" />
    <glyph glyph-name="trademark" horiz-adv-x="1000" 
d="M445 362h69v310l93 -310h62l94 310v-310h74v361h-118l-79 -264l-73 264h-122v-361zM211 362h76v301h126v60h-329v-60h127v-301z" />
    <glyph glyph-name="trademark" unicode="&#x2122;" horiz-adv-x="1000" 
d="M445 362h69v310l93 -310h62l94 310v-310h74v361h-118l-79 -264l-73 264h-122v-361zM211 362h76v301h126v60h-329v-60h127v-301z" />
    <glyph glyph-name="guilsinglright" horiz-adv-x="278" 
d="M10 442l95 -197l-95 -189h132l109 189l-109 197h-132z" />
    <glyph glyph-name="guilsinglright" unicode="&#x203a;" horiz-adv-x="278" 
d="M10 442l95 -197l-95 -189h132l109 189l-109 197h-132z" />
    <glyph glyph-name="caron" unicode="&#xa1;" horiz-adv-x="278" 
d="M211 730l-70 -91l-70 91h-94l104 -145h117l106 145h-93z" />
    <glyph glyph-name="caron" unicode="&#x2c7;" horiz-adv-x="278" 
d="M211 730l-70 -91l-70 91h-94l104 -145h117l106 145h-93z" />
    <glyph glyph-name="breve" unicode="&#xa2;" horiz-adv-x="278" 
d="M-14 730q1 -17 4.5 -41.5t22.5 -48.5q20 -27 52 -41t70 -14q37 0 65 11.5t47.5 31.5t30 46t12.5 56h-61q-3 -10 -7.5 -24t-15 -26.5t-27 -21t-43.5 -8.5q-12 0 -26 3t-27 12t-22.5 24.5t-13.5 40.5h-61z" />
    <glyph glyph-name="breve" unicode="&#x2d8;" horiz-adv-x="278" 
d="M-14 730q1 -17 4.5 -41.5t22.5 -48.5q20 -27 52 -41t70 -14q37 0 65 11.5t47.5 31.5t30 46t12.5 56h-61q-3 -10 -7.5 -24t-15 -26.5t-27 -21t-43.5 -8.5q-12 0 -26 3t-27 12t-22.5 24.5t-13.5 40.5h-61z" />
    <glyph glyph-name="currency" unicode="&#xa4;" 
d="M20 169l77 -78l67 67q17 -9 44 -20t69 -11t68.5 10.5t43.5 20.5l67 -67l78 78l-67 66q8 14 19.5 41.5t11.5 71.5q0 42 -11 69t-20 44l66 67l-77 77l-66 -67q-19 10 -47 21t-68 11q-36 0 -62 -10t-49 -21l-67 67l-78 -78l68 -67q-9 -17 -20.5 -44t-11.5 -69t11 -68.5
t21 -43.5zM277 454q22 0 41 -8.5t33.5 -22.5t23 -33.5t8.5 -41.5t-8.5 -41t-23 -33.5t-33.5 -23t-41 -8.5t-41.5 8.5t-33.5 23t-22.5 33.5t-8.5 41q0 45 30.5 75.5t75.5 30.5z" />
    <glyph glyph-name="section" unicode="&#xa7;" 
d="M90 10q33 -11 61.5 -17t51 -9t37.5 -3.5t21 -0.5q45 0 82 11.5t63.5 32t41 49.5t14.5 64q0 24 -7.5 42.5t-19.5 33.5t-27 25.5t-30 18.5q32 15 57.5 45.5t25.5 79.5q0 20 -5 39t-16.5 36t-31 30.5t-49.5 23.5l-88 29q-5 2 -12.5 5.5t-14.5 9.5t-12.5 15t-5.5 21
q0 19 14 31q10 8 23 10t21 2q43 0 82.5 -14t63.5 -25l3 103q-18 7 -56.5 18.5t-97.5 11.5q-87 0 -139.5 -37t-52.5 -103q0 -29 9 -48.5t21 -32.5t25 -20.5t21 -10.5q-50 -20 -70.5 -55.5t-20.5 -70.5q0 -19 5.5 -39t18 -38t32 -33t46.5 -24l88 -31q10 -3 20 -7.5t18.5 -10.5
t14 -14.5t5.5 -20.5q0 -15 -7 -25t-19 -16t-27 -9t-31 -3q-23 0 -44 4.5t-39.5 11.5t-34 14t-25.5 13zM267 292q-11 3 -24 8.5t-24.5 14t-19.5 21t-8 30.5q0 30 21 48t50 26q8 -2 20.5 -5t24.5 -10.5t20.5 -20t8.5 -31.5q0 -9 -3.5 -20t-11.5 -22.5t-21 -21.5t-33 -17z" />
    <glyph glyph-name="dieresis" unicode="&#xa8;" horiz-adv-x="278" 
d="M172 599h102v118h-102v-118zM0 599h102v118h-102v-118z" />
    <glyph glyph-name="copyright" unicode="&#xa9;" horiz-adv-x="800" 
d="M398 738q-77 0 -145.5 -29.5t-120 -80.5t-81.5 -120t-30 -148q0 -78 29.5 -147t81 -120.5t120 -81t146.5 -29.5t147 29.5t120.5 81t81 120.5t29.5 147q0 79 -30 148t-81.5 120t-120.5 80.5t-146 29.5zM398 676q65 0 123 -25t101 -67.5t68 -100t25 -123.5
q0 -65 -25 -122.5t-67.5 -100.5t-100.5 -68t-124 -25t-123.5 25t-100 68t-67.5 100.5t-25 122.5q0 66 25 123.5t68 100.5t100.5 67.5t122.5 24.5zM581 439q-1 66 -49 105.5t-124 39.5q-49 0 -88 -16.5t-66.5 -46.5t-42.5 -72.5t-15 -94.5q0 -41 11 -80.5t36 -70.5
t65.5 -49.5t99.5 -18.5q35 0 69 10t63 36q15 14 23.5 29t13 29t6 26t2.5 21h-105q-2 -44 -27 -63t-53 -19q-38 0 -58.5 20.5t-30 47t-11 51.5t-1.5 35t1.5 36t11.5 53t31.5 48t60.5 21q25 0 40 -10t22.5 -23t10 -25.5t2.5 -18.5h102z" />
    <glyph glyph-name="guillemotleft" unicode="&#xab;" 
d="M137 56h132l-95 196l95 190h-132l-109 -190zM380 56h132l-95 196l95 190h-132l-109 -190z" />
    <glyph glyph-name="logicalnot" horiz-adv-x="584" 
d="M24 318h399v-233h134v363h-533v-130z" />
    <glyph glyph-name="registered" unicode="&#xae;" horiz-adv-x="800" 
d="M330 738q-38 0 -72 -14.5t-60 -40t-41.5 -60t-15.5 -74.5q0 -39 15 -73.5t41 -60t60 -40.5t73 -15t73.5 15t60 40.5t40.5 60t15 73.5q0 40 -15 74.5t-41 60t-60.5 40t-72.5 14.5zM330 700q31 0 58.5 -12t48.5 -32t33 -48t12 -59t-12 -58.5t-32.5 -48.5t-48.5 -33t-59 -12
t-58.5 12t-48 32.5t-32.5 48t-12 59.5t12 59.5t32.5 48t48 32t58.5 11.5zM259 443h41v85h37q11 0 15.5 -4.5t6.5 -13.5q0 -1 1 -10.5t2.5 -20.5t3 -21.5t1.5 -14.5h45q-5 8 -7 25.5t-4 30.5q-3 20 -8 33t-27 15q6 2 13 5t13 8.5t10 14.5t4 24q0 21 -8 32.5t-19.5 16.5
t-24.5 6t-22 1h-73v-212zM299 621h34q8 0 19.5 -3.5t11.5 -25.5q0 -8 -6 -19t-26 -11h-33v59z" />
    <glyph glyph-name="degree" unicode="&#xb0;" horiz-adv-x="400" 
d="M198 708q-35 0 -65.5 -13t-53.5 -36t-36.5 -54t-13.5 -66t13.5 -66t36.5 -54t53.5 -36t65.5 -13t66 13t54 36t36 54t13 66t-13.5 66t-36.5 54t-53.5 36t-65.5 13zM198 605q28 0 47.5 -19.5t19.5 -46.5t-19 -46.5t-48 -19.5q-27 0 -46.5 19t-19.5 47t20 47t46 19z" />
    <glyph glyph-name="plusminus" unicode="&#xb1;" horiz-adv-x="584" 
d="M225 131h134v149h199v130h-199v156h-134v-156h-199v-130h199v-149zM26 -33h532v130h-532v-130z" />
    <glyph glyph-name="ogonek" unicode="&#xb2;" horiz-adv-x="278" 
d="M232 -147q-8 -5 -17 -8.5t-24 -3.5q-3 0 -13 1t-20.5 7t-19 18.5t-8.5 35.5q0 33 21.5 54.5t53.5 43.5h-43q-51 -23 -85 -60.5t-34 -82.5q0 -32 24.5 -53.5t71.5 -21.5q35 0 57 9t36 17v44z" />
    <glyph glyph-name="ogonek" unicode="&#x2db;" horiz-adv-x="278" 
d="M232 -147q-8 -5 -17 -8.5t-24 -3.5q-3 0 -13 1t-20.5 7t-19 18.5t-8.5 35.5q0 33 21.5 54.5t53.5 43.5h-43q-51 -23 -85 -60.5t-34 -82.5q0 -32 24.5 -53.5t71.5 -21.5q35 0 57 9t36 17v44z" />
    <glyph glyph-name="acute" unicode="&#xb4;" horiz-adv-x="278" 
d="M289 730h-134l-83 -145h80z" />
    <glyph glyph-name="mu" unicode="&#xb5;" horiz-adv-x="611" 
d="M70 -212h126v253q5 -7 12.5 -15.5t19.5 -16t28.5 -13t40.5 -5.5q26 0 44.5 7.5t32 18t22.5 22.5t15 21v-60h110v505h-129v-247q0 -26 -2 -54t-11.5 -51.5t-29 -39t-55.5 -15.5q-33 0 -51.5 12.5t-28.5 34t-12.5 51.5t-2.5 65v244h-128z" />
    <glyph glyph-name="mu" unicode="&#x3bc;" horiz-adv-x="611" 
d="M70 -212h126v253q5 -7 12.5 -15.5t19.5 -16t28.5 -13t40.5 -5.5q26 0 44.5 7.5t32 18t22.5 22.5t15 21v-60h110v505h-129v-247q0 -26 -2 -54t-11.5 -51.5t-29 -39t-55.5 -15.5q-33 0 -51.5 12.5t-28.5 34t-12.5 51.5t-2.5 65v244h-128z" />
    <glyph glyph-name="paragraph" unicode="&#xb6;" 
d="M571 609v103h-329q-71 0 -121 -22t-82 -57.5t-46.5 -80.5t-14.5 -90q0 -18 2.5 -40t10 -45.5t21.5 -46.5t36 -43q34 -31 67.5 -39t59.5 -10v-425h125v796h95v-796h125v796h51z" />
    <glyph glyph-name="periodcentered" unicode="&#xb7;" horiz-adv-x="278" 
d="M74 213h127v133h-127v-133z" />
    <glyph glyph-name="periodcentered" unicode="&#x22c5;" horiz-adv-x="278" 
d="M74 213h127v133h-127v-133z" />
    <glyph glyph-name="cedilla" unicode="&#xb8;" horiz-adv-x="278" 
d="M15 -195q10 -5 36 -13.5t61 -8.5q17 0 39 4t41.5 14t32.5 28t13 45q0 10 -4 22.5t-13.5 23.5t-25.5 18.5t-41 7.5q-12 0 -19.5 -1t-15.5 -3l48 64h-47l-64 -90l20 -21q8 3 17.5 6t23.5 3q26 0 35 -13t9 -24q0 -17 -14.5 -27.5t-40.5 -10.5q-16 0 -34.5 5t-35.5 13z" />
    <glyph glyph-name="guillemotright" unicode="&#xbb;" 
d="M164 56l109 189l-109 197h-132l95 -197l-95 -189h132zM407 56l109 189l-109 197h-132l95 -197l-95 -189h132z" />
    <glyph glyph-name="hungarumlaut" unicode="&#xbd;" 
d="M336 730h-134l-84 -145h80zM521 730h-134l-84 -145h80z" />
    <glyph glyph-name="hungarumlaut" unicode="&#x2dd;" 
d="M336 730h-134l-84 -145h80zM521 730h-134l-84 -145h80z" />
    <glyph glyph-name="Aacute" unicode="&#xc1;" horiz-adv-x="722" 
d="M266 723l-261 -723h148l54 156h286l52 -156h156l-251 723h-184zM247 273l107 308l100 -308h-207zM512 910h-135l-83 -145h80z" />
    <glyph glyph-name="Acircumflex" unicode="&#xc2;" horiz-adv-x="722" 
d="M266 723l-261 -723h148l54 156h286l52 -156h156l-251 723h-184zM247 273l107 308l100 -308h-207zM196 765h90l69 86l69 -86h89l-104 145h-103z" />
    <glyph glyph-name="Adieresis" unicode="&#xc4;" horiz-adv-x="722" 
d="M266 723l-261 -723h148l54 156h286l52 -156h156l-251 723h-184zM247 273l107 308l100 -308h-207zM395 779h101v118h-101v-118zM222 779h102v118h-102v-118z" />
    <glyph glyph-name="Ccedilla" unicode="&#xc7;" horiz-adv-x="667" 
d="M477 234q-1 -36 -12.5 -62t-29.5 -42.5t-41 -24.5t-47 -8q-38 0 -63.5 15.5t-42.5 39.5t-26 53t-13.5 56.5t-5 50t-0.5 33.5q0 56 9.5 105t29 85.5t50.5 57.5t74 21q39 0 62 -16.5t35 -38t15.5 -42.5t4.5 -30h158q0 54 -20 98t-55.5 75.5t-85 49t-108.5 17.5
q-76 0 -137.5 -27.5t-104.5 -77.5t-66 -120t-23 -156q0 -30 3.5 -64.5t13 -69.5t27 -69.5t44.5 -65.5q32 -36 80 -60t118 -31l-52 -74l20 -21q8 3 17.5 6t23.5 3q26 0 35.5 -13t9.5 -24q0 -17 -15 -27.5t-41 -10.5q-16 0 -34 5t-36 13l-21 -42q10 -5 36 -13.5t61 -8.5
q17 0 39 4t41.5 14t32.5 28t13 45q0 10 -3.5 22.5t-13 23.5t-25.5 18.5t-41 7.5q-13 0 -20.5 -1t-15.5 -3l34 45q12 0 30 1t40 5.5t46 13t48 23.5q38 24 60 52.5t33 57t14 54t4 44.5h-163z" />
    <glyph glyph-name="Eacute" unicode="&#xc9;" horiz-adv-x="611" 
d="M74 0h495v120h-340v195h308v118h-308v172h329v118h-484v-723zM479 910h-134l-83 -145h79z" />
    <glyph glyph-name="Edieresis" unicode="&#xcb;" horiz-adv-x="611" 
d="M74 0h495v120h-340v195h308v118h-308v172h329v118h-484v-723zM353 779h102v118h-102v-118zM181 779h101v118h-101v-118z" />
    <glyph glyph-name="Iacute" unicode="&#xcd;" horiz-adv-x="278" 
d="M60 0h155v725h-155v-725zM289 910h-134l-83 -145h80z" />
    <glyph glyph-name="Icircumflex" unicode="&#xce;" horiz-adv-x="278" 
d="M60 0h155v725h-155v-725zM-27 765h91l69 86l68 -86h90l-105 145h-103z" />
    <glyph glyph-name="Oacute" unicode="&#xd3;" horiz-adv-x="778" 
d="M42 351q0 -25 3 -58.5t12 -70t26.5 -73.5t47.5 -68q50 -52 117 -75.5t139 -23.5q22 0 54 3.5t67 14.5t70.5 31t65.5 54q22 25 39 57.5t28.5 69.5t17.5 77t6 79q0 27 -3.5 60.5t-13.5 69.5t-28 72.5t-47 69.5q-27 30 -59 49t-66 30t-67 15t-62 4q-98 0 -164 -33.5
t-107 -88t-58.5 -124t-17.5 -141.5zM204 356q0 62 11 117t42 93q22 28 55.5 44.5t77.5 16.5q56 0 99 -30.5t66 -97.5q11 -33 14.5 -68t3.5 -61q0 -43 -4.5 -75.5t-11 -57.5t-15.5 -43t-18 -31q-43 -67 -135 -67q-54 0 -84 17.5t-47 40.5q-32 42 -43 96t-11 106zM540 910
h-134l-83 -145h80z" />
    <glyph glyph-name="Ocircumflex" unicode="&#xd4;" horiz-adv-x="778" 
d="M42 351q0 -25 3 -58.5t12 -70t26.5 -73.5t47.5 -68q50 -52 117 -75.5t139 -23.5q22 0 54 3.5t67 14.5t70.5 31t65.5 54q22 25 39 57.5t28.5 69.5t17.5 77t6 79q0 27 -3.5 60.5t-13.5 69.5t-28 72.5t-47 69.5q-27 30 -59 49t-66 30t-67 15t-62 4q-98 0 -164 -33.5
t-107 -88t-58.5 -124t-17.5 -141.5zM204 356q0 62 11 117t42 93q22 28 55.5 44.5t77.5 16.5q56 0 99 -30.5t66 -97.5q11 -33 14.5 -68t3.5 -61q0 -43 -4.5 -75.5t-11 -57.5t-15.5 -43t-18 -31q-43 -67 -135 -67q-54 0 -84 17.5t-47 40.5q-32 42 -43 96t-11 106zM224 765h90
l70 86l68 -86h89l-104 145h-103z" />
    <glyph glyph-name="Odieresis" unicode="&#xd6;" horiz-adv-x="778" 
d="M42 351q0 -25 3 -58.5t12 -70t26.5 -73.5t47.5 -68q50 -52 117 -75.5t139 -23.5q22 0 54 3.5t67 14.5t70.5 31t65.5 54q22 25 39 57.5t28.5 69.5t17.5 77t6 79q0 27 -3.5 60.5t-13.5 69.5t-28 72.5t-47 69.5q-27 30 -59 49t-66 30t-67 15t-62 4q-98 0 -164 -33.5
t-107 -88t-58.5 -124t-17.5 -141.5zM204 356q0 62 11 117t42 93q22 28 55.5 44.5t77.5 16.5q56 0 99 -30.5t66 -97.5q11 -33 14.5 -68t3.5 -61q0 -43 -4.5 -75.5t-11 -57.5t-15.5 -43t-18 -31q-43 -67 -135 -67q-54 0 -84 17.5t-47 40.5q-32 42 -43 96t-11 106zM423 779h102
v118h-102v-118zM251 779h102v118h-102v-118z" />
    <glyph glyph-name="Uacute" unicode="&#xda;" horiz-adv-x="778" 
d="M72 721v-432q0 -51 5.5 -93.5t31.5 -84.5q25 -41 61 -65.5t73.5 -38t74 -17.5t63.5 -4q55 0 111 14t102 47t75 87.5t29 135.5v451h-151v-432q0 -27 -1.5 -46.5t-4.5 -34t-7 -24.5t-10 -18q-15 -23 -35 -36t-40.5 -19t-38 -7t-26.5 -1q-57 0 -88.5 16.5t-46.5 42.5
t-18.5 57.5t-3.5 61.5v440h-155zM539 910h-134l-83 -145h80z" />
    <glyph glyph-name="Udieresis" unicode="&#xdc;" horiz-adv-x="778" 
d="M72 721v-432q0 -51 5.5 -93.5t31.5 -84.5q25 -41 61 -65.5t73.5 -38t74 -17.5t63.5 -4q55 0 111 14t102 47t75 87.5t29 135.5v451h-151v-432q0 -27 -1.5 -46.5t-4.5 -34t-7 -24.5t-10 -18q-15 -23 -35 -36t-40.5 -19t-38 -7t-26.5 -1q-57 0 -88.5 16.5t-46.5 42.5
t-18.5 57.5t-3.5 61.5v440h-155zM422 779h102v118h-102v-118zM250 779h102v118h-102v-118z" />
    <glyph glyph-name="germandbls" unicode="&#xdf;" horiz-adv-x="667" 
d="M59 0h145v525q0 14 2.5 38t16.5 44q3 4 9.5 11.5t17.5 14.5t26 12t36 5q38 0 57.5 -18.5t19.5 -43.5q0 -21 -11.5 -35.5t-28.5 -28.5q-47 -39 -61 -68t-14 -58q0 -21 5 -36t15.5 -27t26 -22.5t35.5 -22.5l78 -47q35 -21 46 -43t11 -46q0 -38 -18.5 -54.5t-37.5 -16.5
q-10 0 -19.5 3.5t-16.5 11.5q-16 16 -16 46h-131q4 -57 23.5 -89t45.5 -48t55.5 -19.5t52.5 -3.5t57 4t66 22t55 54.5t23 101.5q0 35 -8.5 60t-21.5 42.5t-29 29t-32 20.5l-78 47q-32 18 -39.5 29.5t-7.5 22.5q0 20 10 29.5t21 17.5q28 18 46 34t28 31t14 30t4 33
q0 40 -21 68.5t-54 46.5t-74.5 26.5t-82.5 8.5q-42 0 -83 -6.5t-77 -27.5q-6 -3 -20 -13.5t-29 -30.5t-26 -51t-11 -74v-539z" />
    <glyph glyph-name="aacute" unicode="&#xe1;" 
d="M502 0q-7 32 -9.5 64t-2.5 64l-1 203q0 9 -0.5 23.5t-4 31.5t-10.5 35.5t-20 33.5q-19 22 -43.5 34.5t-49.5 19.5t-48 9t-39 2q-36 0 -77 -8t-76 -33q-20 -14 -31 -30.5t-17 -33t-7.5 -31t-1.5 -24.5h145q0 9 1.5 20.5t9.5 24.5q10 14 25 21t31 7q5 0 14.5 -1.5t19 -6
t18.5 -12.5t14 -22t6 -28t1 -39q-18 0 -43 -0.5t-52 -3t-54.5 -8.5t-50.5 -16q-35 -16 -56 -37t-32.5 -42.5t-15 -42t-3.5 -35.5q0 -30 10.5 -59t33.5 -52q15 -14 43 -27t83 -13q10 0 27.5 1.5t37.5 9t42.5 24t43.5 46.5q0 -11 0.5 -28.5t4.5 -40.5h134zM349 238
q0 -41 -4 -71t-24 -54q-11 -12 -27 -20.5t-36 -8.5q-18 0 -31.5 6.5t-22.5 17t-13.5 23t-4.5 25.5q0 22 12 39t34 27.5t51.5 14.5t65.5 1zM438 730h-135l-83 -145h80z" />
    <glyph glyph-name="acircumflex" unicode="&#xe2;" 
d="M502 0q-7 32 -9.5 64t-2.5 64l-1 203q0 9 -0.5 23.5t-4 31.5t-10.5 35.5t-20 33.5q-19 22 -43.5 34.5t-49.5 19.5t-48 9t-39 2q-36 0 -77 -8t-76 -33q-20 -14 -31 -30.5t-17 -33t-7.5 -31t-1.5 -24.5h145q0 9 1.5 20.5t9.5 24.5q10 14 25 21t31 7q5 0 14.5 -1.5t19 -6
t18.5 -12.5t14 -22t6 -28t1 -39q-18 0 -43 -0.5t-52 -3t-54.5 -8.5t-50.5 -16q-35 -16 -56 -37t-32.5 -42.5t-15 -42t-3.5 -35.5q0 -30 10.5 -59t33.5 -52q15 -14 43 -27t83 -13q10 0 27.5 1.5t37.5 9t42.5 24t43.5 46.5q0 -11 0.5 -28.5t4.5 -40.5h134zM349 238
q0 -41 -4 -71t-24 -54q-11 -12 -27 -20.5t-36 -8.5q-18 0 -31.5 6.5t-22.5 17t-13.5 23t-4.5 25.5q0 22 12 39t34 27.5t51.5 14.5t65.5 1zM122 585h90l69 86l69 -86h89l-104 145h-103z" />
    <glyph glyph-name="adieresis" unicode="&#xe4;" 
d="M502 0q-7 32 -9.5 64t-2.5 64l-1 203q0 9 -0.5 23.5t-4 31.5t-10.5 35.5t-20 33.5q-19 22 -43.5 34.5t-49.5 19.5t-48 9t-39 2q-36 0 -77 -8t-76 -33q-20 -14 -31 -30.5t-17 -33t-7.5 -31t-1.5 -24.5h145q0 9 1.5 20.5t9.5 24.5q10 14 25 21t31 7q5 0 14.5 -1.5t19 -6
t18.5 -12.5t14 -22t6 -28t1 -39q-18 0 -43 -0.5t-52 -3t-54.5 -8.5t-50.5 -16q-35 -16 -56 -37t-32.5 -42.5t-15 -42t-3.5 -35.5q0 -30 10.5 -59t33.5 -52q15 -14 43 -27t83 -13q10 0 27.5 1.5t37.5 9t42.5 24t43.5 46.5q0 -11 0.5 -28.5t4.5 -40.5h134zM349 238
q0 -41 -4 -71t-24 -54q-11 -12 -27 -20.5t-36 -8.5q-18 0 -31.5 6.5t-22.5 17t-13.5 23t-4.5 25.5q0 22 12 39t34 27.5t51.5 14.5t65.5 1zM321 599h101v118h-101v-118zM148 599h102v118h-102v-118z" />
    <glyph glyph-name="ccedilla" unicode="&#xe7;" horiz-adv-x="500" 
d="M334 183q-2 -34 -11 -53.5t-19.5 -29t-21 -12t-16.5 -2.5q-8 0 -18.5 3t-21.5 14q-13 14 -20.5 36t-11 45t-4.5 43t-1 31q0 21 2.5 48.5t10.5 52.5t23.5 42.5t41.5 17.5q21 0 33.5 -12t19.5 -28t9 -31t3 -22h145q0 51 -19 87t-49 58.5t-66.5 33t-71.5 10.5
q-25 0 -65 -8.5t-78 -36t-65.5 -79.5t-27.5 -138q0 -126 64 -199q19 -21 39.5 -34t39 -19.5t34.5 -9t26 -3.5l-53 -76l21 -21q7 3 16.5 6t23.5 3q26 0 35.5 -13t9.5 -24q0 -17 -15 -27.5t-41 -10.5q-16 0 -34 5t-36 13l-21 -42q10 -5 36 -13.5t61 -8.5q17 0 39 4t41.5 14
t32.5 28t13 45q0 10 -3.5 22.5t-13 23.5t-25.5 18.5t-41 7.5q-13 0 -20.5 -1t-15.5 -3l36 49q29 1 62.5 9.5t68.5 37.5q22 18 34.5 38t19 39.5t8.5 38t3 33.5h-146z" />
    <glyph glyph-name="eacute" unicode="&#xe9;" 
d="M523 215q1 16 1 37t-2.5 45.5t-9 50.5t-19.5 52q-17 35 -41 58.5t-51 37.5t-56 20t-56 6q-42 0 -77.5 -11t-64.5 -31q-32 -22 -52.5 -50.5t-32 -60t-16 -64.5t-4.5 -64q0 -61 15 -111t50 -86q20 -21 44 -33t48.5 -19t47 -9t38.5 -2q56 0 102.5 15t74.5 44q15 16 24.5 32
t14.5 30t6.5 26.5t2.5 21.5h-135q-11 -42 -35.5 -56t-52.5 -14q-39 0 -59.5 16.5t-30.5 38.5t-11.5 45t-1.5 35h339zM189 308q1 22 7 42.5t17.5 36t29 25t41.5 9.5q32 0 50 -14.5t26.5 -33.5t10 -37.5t1.5 -27.5h-183zM445 729h-135l-83 -144h80z" />
    <glyph glyph-name="edieresis" unicode="&#xeb;" 
d="M523 215q1 16 1 37t-2.5 45.5t-9 50.5t-19.5 52q-17 35 -41 58.5t-51 37.5t-56 20t-56 6q-42 0 -77.5 -11t-64.5 -31q-32 -22 -52.5 -50.5t-32 -60t-16 -64.5t-4.5 -64q0 -61 15 -111t50 -86q20 -21 44 -33t48.5 -19t47 -9t38.5 -2q56 0 102.5 15t74.5 44q15 16 24.5 32
t14.5 30t6.5 26.5t2.5 21.5h-135q-11 -42 -35.5 -56t-52.5 -14q-39 0 -59.5 16.5t-30.5 38.5t-11.5 45t-1.5 35h339zM189 308q1 22 7 42.5t17.5 36t29 25t41.5 9.5q32 0 50 -14.5t26.5 -33.5t10 -37.5t1.5 -27.5h-183zM328 599h101v119h-101v-119zM155 599h102v119h-102
v-119z" />
    <glyph glyph-name="iacute" unicode="&#xed;" horiz-adv-x="278" 
d="M65 0h148v506h-148v-506zM289 730h-134l-83 -145h80z" />
    <glyph glyph-name="icircumflex" unicode="&#xee;" horiz-adv-x="278" 
d="M65 0h148v506h-148v-506zM-27 585h91l69 86l68 -86h90l-105 145h-103z" />
    <glyph glyph-name="oacute" unicode="&#xf3;" horiz-adv-x="611" 
d="M42 248q0 -66 20 -116t55 -83.5t82 -50t101 -16.5q69 0 119 22t82.5 59.5t48 86.5t15.5 102t-15 101t-47 84.5t-81.5 58t-118.5 21.5q-75 0 -125 -25t-80 -64t-43 -86.5t-13 -93.5zM194 247q0 17 2 46t12 56.5t32 48t63 20.5q37 0 59 -15.5t33.5 -39.5t15 -52t3.5 -53
q0 -50 -8 -83.5t-22 -53.5t-34.5 -28t-44.5 -8q-55 0 -83 38.5t-28 123.5zM456 730h-134l-84 -145h80z" />
    <glyph glyph-name="ocircumflex" unicode="&#xf4;" horiz-adv-x="611" 
d="M42 248q0 -66 20 -116t55 -83.5t82 -50t101 -16.5q69 0 119 22t82.5 59.5t48 86.5t15.5 102t-15 101t-47 84.5t-81.5 58t-118.5 21.5q-75 0 -125 -25t-80 -64t-43 -86.5t-13 -93.5zM194 247q0 17 2 46t12 56.5t32 48t63 20.5q37 0 59 -15.5t33.5 -39.5t15 -52t3.5 -53
q0 -50 -8 -83.5t-22 -53.5t-34.5 -28t-44.5 -8q-55 0 -83 38.5t-28 123.5zM140 585h90l70 86l68 -86h89l-104 145h-103z" />
    <glyph glyph-name="odieresis" unicode="&#xf6;" horiz-adv-x="611" 
d="M42 248q0 -66 20 -116t55 -83.5t82 -50t101 -16.5q69 0 119 22t82.5 59.5t48 86.5t15.5 102t-15 101t-47 84.5t-81.5 58t-118.5 21.5q-75 0 -125 -25t-80 -64t-43 -86.5t-13 -93.5zM194 247q0 17 2 46t12 56.5t32 48t63 20.5q37 0 59 -15.5t33.5 -39.5t15 -52t3.5 -53
q0 -50 -8 -83.5t-22 -53.5t-34.5 -28t-44.5 -8q-55 0 -83 38.5t-28 123.5zM339 599h102v118h-102v-118zM167 599h102v118h-102v-118z" />
    <glyph glyph-name="divide" unicode="&#xf7;" horiz-adv-x="584" 
d="M21 202h533v129h-533v-129zM213 4h149v147h-149v-147zM213 382h149v147h-149v-147z" />
    <glyph glyph-name="uacute" unicode="&#xfa;" horiz-adv-x="611" 
d="M60 505v-314q0 -9 0.5 -26t3.5 -36t10 -39t19 -35q21 -28 61 -48t91 -20q36 0 61.5 9.5t43 22.5t28 26.5t16.5 21.5l5 -67h144q-2 11 -2.5 18.5t-1.5 18.5v11q0 7 -0.5 20.5t-1 38t-1.5 65.5v333h-152v-255q0 -32 -1.5 -60.5t-10.5 -50t-28 -34t-55 -12.5q-30 0 -46 11
t-23.5 28t-8.5 36t-1 36v301h-150zM456 730h-134l-84 -145h80z" />
    <glyph glyph-name="udieresis" unicode="&#xfc;" horiz-adv-x="611" 
d="M60 505v-314q0 -9 0.5 -26t3.5 -36t10 -39t19 -35q21 -28 61 -48t91 -20q36 0 61.5 9.5t43 22.5t28 26.5t16.5 21.5l5 -67h144q-2 11 -2.5 18.5t-1.5 18.5v11q0 7 -0.5 20.5t-1 38t-1.5 65.5v333h-152v-255q0 -32 -1.5 -60.5t-10.5 -50t-28 -34t-55 -12.5q-30 0 -46 11
t-23.5 28t-8.5 36t-1 36v301h-150zM339 599h102v118h-102v-118zM167 599h101v118h-101v-118z" />
    <glyph glyph-name="dotaccent" unicode="&#xff;" horiz-adv-x="278" 
d="M88 599h102v118h-102v-118z" />
    <glyph glyph-name="dotaccent" unicode="&#x2d9;" horiz-adv-x="278" 
d="M88 599h102v118h-102v-118z" />
    <glyph glyph-name="ordfeminine" horiz-adv-x="334" 
d="M318 392q-4 17 -6 38.5t-2 38.5v122q0 24 -6.5 44.5t-22.5 35.5t-43 24t-68 9q-21 0 -45 -4t-44 -14.5t-33.5 -29t-13.5 -48.5h94q0 27 15.5 35.5t28.5 8.5q18 0 27.5 -6.5t14 -16.5t5 -21.5t0.5 -21.5q-22 0 -54.5 -1.5t-65.5 -10.5q-38 -11 -59 -38.5t-21 -60.5
q0 -14 5 -30t17.5 -29.5t34 -22t54.5 -8.5q22 0 38.5 4.5t27.5 12t18.5 16t13.5 16.5q0 -8 0.5 -17.5t2.5 -24.5h87zM219 535q0 -11 -1 -26.5t-6.5 -30t-17.5 -25t-33 -10.5q-22 0 -35 12t-13 30q0 29 30.5 41t75.5 9z" />
    <glyph glyph-name="ugrave" horiz-adv-x="611" 
d="M60 505v-314q0 -9 0.5 -26t3.5 -36t10 -39t19 -35q21 -28 61 -48t91 -20q36 0 61.5 9.5t43 22.5t28 26.5t16.5 21.5l5 -67h144q-2 11 -2.5 18.5t-1.5 18.5v11q0 7 -0.5 20.5t-1 38t-1.5 65.5v333h-152v-255q0 -32 -1.5 -60.5t-10.5 -50t-28 -34t-55 -12.5q-30 0 -46 11
t-23.5 28t-8.5 36t-1 36v301h-150zM295 730h-140l139 -145h85z" />
    <glyph glyph-name="atilde" 
d="M502 0q-7 32 -9.5 64t-2.5 64l-1 203q0 9 -0.5 23.5t-4 31.5t-10.5 35.5t-20 33.5q-19 22 -43.5 34.5t-49.5 19.5t-48 9t-39 2q-36 0 -77 -8t-76 -33q-20 -14 -31 -30.5t-17 -33t-7.5 -31t-1.5 -24.5h145q0 9 1.5 20.5t9.5 24.5q10 14 25 21t31 7q5 0 14.5 -1.5t19 -6
t18.5 -12.5t14 -22t6 -28t1 -39q-18 0 -43 -0.5t-52 -3t-54.5 -8.5t-50.5 -16q-35 -16 -56 -37t-32.5 -42.5t-15 -42t-3.5 -35.5q0 -30 10.5 -59t33.5 -52q15 -14 43 -27t83 -13q10 0 27.5 1.5t37.5 9t42.5 24t43.5 46.5q0 -11 0.5 -28.5t4.5 -40.5h134zM186 156q0 22 12 39
t34 27.5t51.5 14.5t65.5 1q0 -41 -4 -71t-24 -54q-11 -12 -27 -20.5t-36 -8.5q-18 0 -31.5 6.5t-22.5 17t-13.5 23t-4.5 25.5zM149 593q10 29 25 37t28 8q10 0 23 -3.5t22 -6.5l43 -16q8 -3 21.5 -7t30.5 -4q26 0 43.5 9t28.5 20q21 20 29 43t11 50h-51q-4 -19 -14.5 -32.5
t-32.5 -13.5q-13 0 -21 2t-13 4l-57 22q-2 1 -18 6t-32 5q-45 0 -77.5 -33.5t-40.5 -89.5h52z" />
    <glyph glyph-name="igrave" horiz-adv-x="278" 
d="M65 0h148v506h-148v-506zM128 730h-140l139 -145h85z" />
    <glyph glyph-name="Idieresis" horiz-adv-x="278" 
d="M60 0h155v725h-155v-725zM172 779h102v118h-102v-118zM0 779h102v118h-102v-118z" />
    <glyph glyph-name="dotlessi" unicode="&#x131;" horiz-adv-x="278" 
d="M65 0h148v506h-148v-506z" />
    <glyph glyph-name="ydieresis" 
d="M14 505l194 -507l-64 -190h149l61 201l191 496h-147l-113 -350l-111 350h-160zM311 599h102v118h-102v-118zM139 599h102v118h-102v-118z" />
    <glyph glyph-name="sterling" 
d="M30 0h491v116h-264v207h169v112h-169v102q0 6 1 20.5t7.5 29t20 26t38.5 11.5q23 0 36 -10t19.5 -23.5t8.5 -28t2 -23.5h150q-2 26 -8 58t-26.5 60.5t-60.5 48t-110 19.5q-63 0 -99.5 -14t-58.5 -29q-27 -18 -42 -40t-21.5 -43.5t-8 -41.5t-1.5 -34v-88h-85v-112h84v-207
h-73v-116z" />
    <glyph glyph-name="ae" horiz-adv-x="889" 
d="M699 156q-2 -9 -6 -22t-13 -25t-24.5 -20.5t-39.5 -8.5q-23 0 -47.5 11.5t-38.5 40.5q-6 13 -9.5 27.5t-5 28t-2 25t-0.5 18.5h338q0 15 -0.5 37.5t-3.5 49t-11 53.5t-23 51q-29 47 -77 72.5t-110 25.5q-42 0 -72 -9t-51 -21.5t-34 -26t-21 -22.5q-7 9 -20 22t-34 26
t-52 22t-74 9q-40 0 -75 -8t-62.5 -26.5t-44.5 -48.5t-21 -74h143q1 21 8.5 34.5t18.5 21.5t24.5 11.5t26.5 3.5q25 0 42 -9t26.5 -25t13 -37.5t2.5 -45.5q-30 0 -63 -1t-65 -4t-62 -9.5t-54 -18.5q-30 -15 -47.5 -35t-26.5 -41t-11.5 -39.5t-2.5 -29.5q0 -34 11.5 -63
t35.5 -50t60.5 -33t86.5 -12q43 0 75 9t55.5 23.5t40.5 31.5t31 33q6 -9 18 -24.5t34.5 -30.5t56.5 -26.5t84 -11.5q48 0 93 15t75 51q26 31 33.5 59t9.5 46h-139zM512 317q1 9 4 28.5t13 38.5t29.5 33.5t52.5 14.5q32 0 49.5 -14.5t26 -33.5t10 -38t1.5 -29h-186zM369 231
q-2 -23 -5.5 -51t-14.5 -51q-15 -30 -42 -41.5t-48 -11.5q-15 0 -29 4.5t-25 13.5t-17.5 22t-6.5 30q0 33 18.5 50.5t43 25.5t48 9.5t34.5 1.5h22q11 0 22 -2z" />
    <glyph glyph-name="radical" unicode="&#x221a;" horiz-adv-x="570" 
d="M579 786h-138l-162 -795l-118 255l-170 -78l48 -104l54 25l147 -303h122z" />
    <glyph glyph-name="Aring" horiz-adv-x="722" 
d="M266 723l-261 -723h148l54 156h286l52 -156h156l-251 723h-184zM247 273l107 308l100 -308h-207zM361 940q-21 0 -39.5 -8t-32 -22t-21.5 -32.5t-8 -39.5t8 -40t22 -32.5t32 -21.5t39 -8t39.5 8t32 22t21.5 32.5t8 39.5t-7.5 39.5t-21 32.5t-32 22t-40.5 8zM361 892
q23 0 38.5 -16t15.5 -38t-15.5 -37.5t-38.5 -15.5q-22 0 -37.5 15.5t-15.5 37.5q0 23 15.5 38.5t37.5 15.5z" />
    <glyph glyph-name="ring" unicode="&#x2da;" horiz-adv-x="278" 
d="M139 760q-21 0 -39.5 -8t-32 -22t-21.5 -32.5t-8 -39.5t8 -40t22 -32.5t32 -21.5t39 -8t39.5 8t32 22t21.5 32.5t8 39.5t-7.5 39.5t-21 32.5t-32 22t-40.5 8zM139 712q23 0 38.5 -16t15.5 -38t-15.5 -37.5t-38.5 -15.5q-22 0 -37.5 15.5t-15.5 37.5q0 23 15.5 38.5
t37.5 15.5z" />
    <glyph glyph-name="tilde" unicode="&#x2dc;" horiz-adv-x="278" 
d="M10 593q10 29 25 37t28 8q10 0 23 -3.5t22 -6.5l43 -16q8 -3 21.5 -7t30.5 -4q26 0 43.5 9t28.5 20q21 20 29 43t11 50h-51q-4 -19 -14.5 -32.5t-32.5 -13.5q-13 0 -21 2t-13 4l-57 22q-2 1 -18 6t-32 5q-45 0 -77.5 -33.5t-40.5 -89.5h52z" />
    <glyph glyph-name="ecircumflex" 
d="M523 215q1 16 1 37t-2.5 45.5t-9 50.5t-19.5 52q-17 35 -41 58.5t-51 37.5t-56 20t-56 6q-42 0 -77.5 -11t-64.5 -31q-32 -22 -52.5 -50.5t-32 -60t-16 -64.5t-4.5 -64q0 -61 15 -111t50 -86q20 -21 44 -33t48.5 -19t47 -9t38.5 -2q56 0 102.5 15t74.5 44q15 16 24.5 32
t14.5 30t6.5 26.5t2.5 21.5h-135q-11 -42 -35.5 -56t-52.5 -14q-39 0 -59.5 16.5t-30.5 38.5t-11.5 45t-1.5 35h339zM189 308q1 22 7 42.5t17.5 36t29 25t41.5 9.5q32 0 50 -14.5t26.5 -33.5t10 -37.5t1.5 -27.5h-183zM117 585h90l70 85l68 -85h89l-104 145h-103z" />
    <glyph glyph-name="ucircumflex" horiz-adv-x="611" 
d="M60 505v-314q0 -9 0.5 -26t3.5 -36t10 -39t19 -35q21 -28 61 -48t91 -20q36 0 61.5 9.5t43 22.5t28 26.5t16.5 21.5l5 -67h144q-2 11 -2.5 18.5t-1.5 18.5v11q0 7 -0.5 20.5t-1 38t-1.5 65.5v333h-152v-255q0 -32 -1.5 -60.5t-10.5 -50t-28 -34t-55 -12.5q-30 0 -46 11
t-23.5 28t-8.5 36t-1 36v301h-150zM145 585h90l70 85l68 -85h89l-104 145h-103z" />
    <glyph glyph-name="Ecircumflex" horiz-adv-x="611" 
d="M74 0h495v120h-340v195h308v118h-308v172h329v118h-484v-723zM145 765h90l70 85l68 -85h89l-104 145h-103z" />
    <glyph glyph-name="aring" 
d="M502 0q-7 32 -9.5 64t-2.5 64l-1 203q0 9 -0.5 23.5t-4 31.5t-10.5 35.5t-20 33.5q-19 22 -43.5 34.5t-49.5 19.5t-48 9t-39 2q-36 0 -77 -8t-76 -33q-20 -14 -31 -30.5t-17 -33t-7.5 -31t-1.5 -24.5h145q0 9 1.5 20.5t9.5 24.5q10 14 25 21t31 7q5 0 14.5 -1.5t19 -6
t18.5 -12.5t14 -22t6 -28t1 -39q-18 0 -43 -0.5t-52 -3t-54.5 -8.5t-50.5 -16q-35 -16 -56 -37t-32.5 -42.5t-15 -42t-3.5 -35.5q0 -30 10.5 -59t33.5 -52q15 -14 43 -27t83 -13q10 0 27.5 1.5t37.5 9t42.5 24t43.5 46.5q0 -11 0.5 -28.5t4.5 -40.5h134zM186 156q0 22 12 39
t34 27.5t51.5 14.5t65.5 1q0 -41 -4 -71t-24 -54q-11 -12 -27 -20.5t-36 -8.5q-18 0 -31.5 6.5t-22.5 17t-13.5 23t-4.5 25.5zM278 760q-21 0 -39.5 -8t-32 -22t-21.5 -32.5t-8 -39.5t8 -40t22 -32.5t32 -21.5t39 -8t39.5 8t32 22t21.5 32.5t8 39.5t-7.5 39.5t-21 32.5
t-32 22t-40.5 8zM278 712q23 0 38.5 -16t15.5 -38t-15.5 -37.5t-38.5 -15.5q-22 0 -37.5 15.5t-15.5 37.5q0 23 15.5 38.5t37.5 15.5z" />
    <glyph glyph-name="lessequal" unicode="&#x2264;" horiz-adv-x="584" 
d="M24 282l533 -168v134l-354 99l354 94v135l-533 -165v-129zM24 86v-129h533v129h-533z" />
    <glyph glyph-name="agrave" 
d="M502 0q-7 32 -9.5 64t-2.5 64l-1 203q0 9 -0.5 23.5t-4 31.5t-10.5 35.5t-20 33.5q-19 22 -43.5 34.5t-49.5 19.5t-48 9t-39 2q-36 0 -77 -8t-76 -33q-20 -14 -31 -30.5t-17 -33t-7.5 -31t-1.5 -24.5h145q0 9 1.5 20.5t9.5 24.5q10 14 25 21t31 7q5 0 14.5 -1.5t19 -6
t18.5 -12.5t14 -22t6 -28t1 -39q-18 0 -43 -0.5t-52 -3t-54.5 -8.5t-50.5 -16q-35 -16 -56 -37t-32.5 -42.5t-15 -42t-3.5 -35.5q0 -30 10.5 -59t33.5 -52q15 -14 43 -27t83 -13q10 0 27.5 1.5t37.5 9t42.5 24t43.5 46.5q0 -11 0.5 -28.5t4.5 -40.5h134zM186 156q0 22 12 39
t34 27.5t51.5 14.5t65.5 1q0 -41 -4 -71t-24 -54q-11 -12 -27 -20.5t-36 -8.5q-18 0 -31.5 6.5t-22.5 17t-13.5 23t-4.5 25.5zM267 730h-140l139 -145h85z" />
    <glyph glyph-name="Ugrave" horiz-adv-x="778" 
d="M72 721v-432q0 -51 5.5 -93.5t31.5 -84.5q25 -41 61 -65.5t73.5 -38t74 -17.5t63.5 -4q55 0 111 14t102 47t75 87.5t29 135.5v451h-151v-432q0 -27 -1.5 -46.5t-4.5 -34t-7 -24.5t-10 -18q-15 -23 -35 -36t-40.5 -19t-38 -7t-26.5 -1q-57 0 -88.5 16.5t-46.5 42.5
t-18.5 57.5t-3.5 61.5v440h-155zM378 910h-140l139 -145h85z" />
    <glyph glyph-name="questiondown" horiz-adv-x="500" 
d="M239 366v-81q0 -12 -2 -22t-8.5 -20.5t-18.5 -23t-32 -30.5l-56 -51q-4 -4 -8.5 -8t-10.5 -11t-14 -18t-20 -27q-20 -28 -23.5 -54.5t-3.5 -40.5q0 -50 20.5 -85.5t54 -58t76 -33t87.5 -10.5q60 0 100 6t68 13v105q-41 -11 -70 -17.5t-63 -6.5q-42 0 -66 12t-36 28.5
t-15 33t-3 25.5q0 38 23 74t53 71l44 49q14 16 21.5 28.5t11 23t4 19.5t0.5 17v93h-113zM355 528h-120v-120h120v120z" />
    <glyph glyph-name="cent" 
d="M438 637h-69l-32 -125q-5 1 -12 1.5t-21 0.5q-60 0 -105 -19.5t-75 -55t-45.5 -84t-15.5 -105.5t14 -100.5t35 -74.5t47 -49t50 -25l-37 -149h68l34 136q9 -1 23.5 -1.5t33.5 2t40 8t42 16.5q33 18 51.5 41.5t28 47.5t12.5 45.5t4 35.5h-146q-2 -32 -10 -51t-18.5 -29.5
t-22 -13.5t-18.5 -3q-22 0 -36.5 15.5t-23.5 40t-13 55t-4 59.5q0 16 2 43.5t10 54t24 46t44 19.5q22 0 34.5 -12t19 -28t8.5 -31t2 -22h144q0 12 -2 34.5t-11.5 47t-30.5 48t-59 38.5z" />
    <glyph glyph-name="fi" unicode="&#xfb01;" horiz-adv-x="611" 
d="M78 0h147v400h93v105h-93v59q0 10 1 21.5t8 21.5t22.5 16.5t43.5 6.5q9 0 14.5 -0.5t16.5 -2.5v103q-31 4 -51.5 4.5t-28.5 0.5q-54 0 -88 -12.5t-52.5 -34.5t-25.5 -51.5t-7 -62.5v-69h-76v-105h76v-400zM393 593h158v129h-158v-129zM398 0h148v506h-148v-506z" />
    <glyph glyph-name="oslash" horiz-adv-x="611" 
d="M540 547l-74 -76q-36 25 -78.5 35t-86.5 10q-60 0 -108.5 -19t-82 -54t-51.5 -84.5t-18 -111.5q0 -34 5 -60.5t12.5 -46t16 -33.5t14.5 -23l-80 -86l41 -34l75 78q9 -8 22 -18t34 -19t50.5 -15t71.5 -6q67 0 116.5 21t81 57.5t47 85t15.5 103.5q0 42 -6 72t-15 52t-19 36
t-17 23l75 78zM198 195q-2 10 -3 24.5t-1 34.5q0 13 2 40.5t12 55t32 48t63 20.5q4 0 12.5 -0.5t19.5 -3.5t23.5 -10t23.5 -19zM406 330q2 -12 4 -32.5t2 -50.5q0 -26 -3 -54.5t-14 -52.5t-33 -39.5t-60 -15.5q-21 0 -36 5.5t-24.5 13t-15.5 16t-10 15.5z" />
    <glyph glyph-name="Ograve" horiz-adv-x="778" 
d="M42 351q0 -25 3 -58.5t12 -70t26.5 -73.5t47.5 -68q50 -52 117 -75.5t139 -23.5q22 0 54 3.5t67 14.5t70.5 31t65.5 54q22 25 39 57.5t28.5 69.5t17.5 77t6 79q0 27 -3.5 60.5t-13.5 69.5t-28 72.5t-47 69.5q-27 30 -59 49t-66 30t-67 15t-62 4q-98 0 -164 -33.5
t-107 -88t-58.5 -124t-17.5 -141.5zM204 356q0 62 11 117t42 93q22 28 55.5 44.5t77.5 16.5q56 0 99 -30.5t66 -97.5q11 -33 14.5 -68t3.5 -61q0 -43 -4.5 -75.5t-11 -57.5t-15.5 -43t-18 -31q-43 -67 -135 -67q-54 0 -84 17.5t-47 40.5q-32 42 -43 96t-11 106zM378 910
h-140l139 -145h85z" />
    <glyph glyph-name="Otilde" horiz-adv-x="778" 
d="M42 351q0 -25 3 -58.5t12 -70t26.5 -73.5t47.5 -68q50 -52 117 -75.5t139 -23.5q22 0 54 3.5t67 14.5t70.5 31t65.5 54q22 25 39 57.5t28.5 69.5t17.5 77t6 79q0 27 -3.5 60.5t-13.5 69.5t-28 72.5t-47 69.5q-27 30 -59 49t-66 30t-67 15t-62 4q-98 0 -164 -33.5
t-107 -88t-58.5 -124t-17.5 -141.5zM204 356q0 62 11 117t42 93q22 28 55.5 44.5t77.5 16.5q56 0 99 -30.5t66 -97.5q11 -33 14.5 -68t3.5 -61q0 -43 -4.5 -75.5t-11 -57.5t-15.5 -43t-18 -31q-43 -67 -135 -67q-54 0 -84 17.5t-47 40.5q-32 42 -43 96t-11 106zM261 783
q10 29 25 37.5t28 8.5q10 0 22.5 -3.5t22.5 -7.5l43 -15q8 -3 21.5 -7t29.5 -4q26 0 43.5 8.5t29.5 19.5q21 20 28.5 43.5t10.5 49.5h-50q-4 -18 -14.5 -31.5t-33.5 -13.5q-12 0 -20 2t-13 4l-57 22q-2 1 -18 5.5t-32 4.5q-45 0 -77.5 -33.5t-40.5 -89.5h52z" />
    <glyph glyph-name="fl" unicode="&#xfb02;" horiz-adv-x="611" 
d="M80 0h147v400h94v105h-94v59q0 10 1 21.5t8.5 21.5t22.5 16.5t44 6.5q9 0 14 -0.5t16 -2.5v103q-31 4 -51 4.5t-28 0.5q-54 0 -88 -12.5t-53 -34.5t-26 -51.5t-7 -62.5v-69h-75v-105h75v-400zM398 0h148v723h-148v-723z" />
    <glyph glyph-name="ntilde" horiz-adv-x="611" 
d="M67 0h149v296q0 29 5.5 48t12.5 29q12 18 32.5 28.5t44.5 10.5q29 0 46.5 -13t25.5 -30q6 -12 7 -25.5t1 -29.5v-314h151v273q0 35 -0.5 59t-2 40.5t-4.5 28t-7 23.5q-5 13 -15.5 29.5t-29 31t-45.5 24.5t-64 10q-41 0 -70 -10.5t-48 -25t-30 -29t-16 -23.5l-4 76h-142
q1 -13 1.5 -29t1 -29.5t0.5 -23.5v-10v-415zM177 593q10 29 25 37t28 8q10 0 23 -3.5t22 -6.5l43 -16q8 -3 21.5 -7t30.5 -4q26 0 43.5 9t28.5 20q21 20 29 43t11 50h-51q-4 -19 -14.5 -32.5t-32.5 -13.5q-13 0 -21 2t-13 4l-57 22q-2 1 -18 6t-32 5q-45 0 -77.5 -33.5
t-40.5 -89.5h52z" />
    <glyph glyph-name="AE" horiz-adv-x="1000" 
d="M-8 0h167l79 157h272l22 -157h416v120h-274l-28 190h275v116h-291l-26 178h335v117h-547zM299 271l154 314l42 -314h-196z" />
    <glyph glyph-name="circumflex" unicode="&#x2c6;" horiz-adv-x="278" 
d="M-22 585h90l70 85l68 -85h89l-104 145h-103z" />
    <glyph glyph-name="Ucircumflex" horiz-adv-x="778" 
d="M72 721v-432q0 -51 5.5 -93.5t31.5 -84.5q25 -41 61 -65.5t73.5 -38t74 -17.5t63.5 -4q55 0 111 14t102 47t75 87.5t29 135.5v451h-151v-432q0 -27 -1.5 -46.5t-4.5 -34t-7 -24.5t-10 -18q-15 -23 -35 -36t-40.5 -19t-38 -7t-26.5 -1q-57 0 -88.5 16.5t-46.5 42.5
t-18.5 57.5t-3.5 61.5v440h-155zM228 765h90l70 85l68 -85h89l-104 145h-103z" />
    <glyph glyph-name="notequal" unicode="&#x2260;" horiz-adv-x="584" 
d="M194 215h-170v-129h106l-51 -101l114 -57l78 158h286v129h-221l52 103h169v129h-105l50 101l-113 56l-78 -157h-287v-129h222z" />
    <glyph glyph-name="summation" unicode="&#x2211;" horiz-adv-x="673" 
d="M634 786h-595v-110l284 -384l-296 -396v-110h619v126h-447l281 381l-264 366h418v127z" />
    <glyph glyph-name="ordmasculine" horiz-adv-x="367" 
d="M14 541q0 -28 8.5 -56.5t28 -51.5t52 -37.5t79.5 -14.5q43 0 75.5 13t54 35.5t32 51.5t10.5 62q0 34 -10.5 63t-31.5 50.5t-53 33.5t-75 12q-81 0 -125.5 -44t-44.5 -117zM113 540q0 15 2 33t9.5 33.5t21.5 26t39 10.5q39 0 55 -26.5t16 -71.5q0 -54 -18 -78t-54 -24
q-71 0 -71 97z" />
    <glyph glyph-name="partialdiff" unicode="&#x2202;" horiz-adv-x="572" 
d="M138 554q9 7 21 16.5t27 17t33 13t40 5.5q31 0 53.5 -12t37.5 -31t24.5 -43t14 -47t6 -43.5t1.5 -32.5q-38 30 -71.5 39t-62.5 9q-46 0 -86 -16t-70 -45.5t-47 -70.5t-17 -92q0 -44 14 -85.5t42.5 -74t71.5 -52.5t101 -20q60 0 102.5 20t71.5 52t45.5 72.5t25 81t11 78
t2.5 63.5q0 87 -21 153t-58 110t-87.5 66.5t-109.5 22.5q-33 0 -60 -6.5t-49.5 -17t-41 -24t-34.5 -26.5zM394 293q1 -38 -5 -75t-20.5 -66t-38 -47.5t-57.5 -18.5q-43 0 -73.5 33t-30.5 96q0 60 31 96.5t83 36.5q5 0 16 -1t26 -6t33 -16t36 -32z" />
    <glyph glyph-name="Egrave" horiz-adv-x="611" 
d="M74 0h495v120h-340v195h308v118h-308v172h329v118h-484v-723zM295 910h-140l139 -145h85z" />
    <glyph glyph-name="florin" unicode="&#x192;" 
d="M30 -155q23 -4 39 -4.5t21 -0.5q45 0 72.5 10.5t43.5 21.5q27 18 36.5 46t15.5 57l75 375h76l15 101h-72l11 54q4 19 8 35.5t13 27t25.5 15t43.5 0.5l22 110q-20 3 -39.5 5t-42.5 2q-46 0 -75 -13t-47.5 -38t-29.5 -60.5t-20 -80.5l-11 -57h-66l-19 -101h65l-69 -350
q-3 -16 -12 -30t-39 -14q-5 0 -9.5 0.5t-9.5 1.5z" />
    <glyph glyph-name="ograve" horiz-adv-x="611" 
d="M42 248q0 -66 20 -116t55 -83.5t82 -50t101 -16.5q69 0 119 22t82.5 59.5t48 86.5t15.5 102t-15 101t-47 84.5t-81.5 58t-118.5 21.5q-75 0 -125 -25t-80 -64t-43 -86.5t-13 -93.5zM194 247q0 17 2 46t12 56.5t32 48t63 20.5q37 0 59 -15.5t33.5 -39.5t15 -52t3.5 -53
q0 -50 -8 -83.5t-22 -53.5t-34.5 -28t-44.5 -8q-55 0 -83 38.5t-28 123.5zM295 730h-140l139 -145h85z" />
    <glyph glyph-name="egrave" 
d="M523 215q1 16 1 37t-2.5 45.5t-9 50.5t-19.5 52q-17 35 -41 58.5t-51 37.5t-56 20t-56 6q-42 0 -77.5 -11t-64.5 -31q-32 -22 -52.5 -50.5t-32 -60t-16 -64.5t-4.5 -64q0 -61 15 -111t50 -86q20 -21 44 -33t48.5 -19t47 -9t38.5 -2q56 0 102.5 15t74.5 44q15 16 24.5 32
t14.5 30t6.5 26.5t2.5 21.5h-135q-11 -42 -35.5 -56t-52.5 -14q-39 0 -59.5 16.5t-30.5 38.5t-11.5 45t-1.5 35h339zM189 308q1 22 7 42.5t17.5 36t29 25t41.5 9.5q32 0 50 -14.5t26.5 -33.5t10 -37.5t1.5 -27.5h-183zM267 730h-140l139 -145h85z" />
    <glyph glyph-name="Igrave" horiz-adv-x="278" 
d="M60 0h155v725h-155v-725zM128 910h-140l139 -145h85z" />
    <glyph glyph-name="Ntilde" horiz-adv-x="778" 
d="M72 0h146v600l280 -600h213v723h-144v-569l-271 569h-224v-723zM260 757q10 29 25 37t28 8q10 0 23 -3.5t22 -6.5l43 -16q8 -3 21.5 -7t30.5 -4q26 0 43.5 9t28.5 20q21 20 29 43t11 50h-51q-4 -19 -14.5 -32.5t-32.5 -13.5q-13 0 -21 2t-13 4l-57 22q-2 1 -18 6t-32 5
q-45 0 -77.5 -33.5t-40.5 -89.5h52z" />
    <glyph glyph-name="greaterequal" unicode="&#x2265;" horiz-adv-x="584" 
d="M557 282v129l-533 165v-135l354 -94l-354 -99v-134zM557 86h-533v-129h533v129z" />
    <glyph glyph-name="Oslash" horiz-adv-x="778" 
d="M616 664q-48 41 -107 57.5t-122 16.5q-71 0 -124.5 -18t-92 -47.5t-64 -69t-40 -82.5t-20.5 -87t-6 -83q0 -64 14 -126t51 -114l-103 -111l48 -47l100 108q49 -42 111 -60.5t127 -18.5q73 0 136 23.5t109.5 70.5t73 119t26.5 170q0 67 -15.5 131t-55.5 118l95 104l-47 47
zM218 235q-4 12 -9.5 40t-5.5 81q0 15 1 37.5t4.5 47t9.5 49t15 44.5q24 49 65.5 72.5t88.5 23.5q9 0 24.5 -1.5t34.5 -8t39.5 -20t37.5 -36.5zM555 499q9 -30 12.5 -62t3.5 -64q0 -57 -9 -107.5t-30 -88.5t-56 -60t-88 -22q-35 0 -59.5 8.5t-40.5 19.5t-25.5 23t-14.5 20z
" />
    <glyph glyph-name="idieresis" horiz-adv-x="278" 
d="M65 0h148v506h-148v-506zM172 599h102v118h-102v-118zM0 599h102v118h-102v-118z" />
    <glyph glyph-name="yen" 
d="M204 0h152l1 138h158v74h-159v70h159v74h-119l164 364h-160l-111 -329l-108 329h-181l166 -364h-125v-74h163v-71h-163v-74h163v-137z" />
    <glyph glyph-name="Atilde" horiz-adv-x="722" 
d="M266 723l-261 -723h148l54 156h286l52 -156h156l-251 723h-184zM247 273l107 308l100 -308h-207zM232 757q10 29 25 37t28 8q10 0 23 -3.5t22 -6.5l43 -16q8 -3 21.5 -7t30.5 -4q26 0 43.5 9t28.5 20q21 20 29 43t11 50h-51q-4 -19 -14.5 -32.5t-32.5 -13.5q-13 0 -21 2
t-13 4l-57 22q-2 1 -18 6t-32 5q-45 0 -77.5 -33.5t-40.5 -89.5h52z" />
    <glyph glyph-name="macron" unicode="&#x2c9;" horiz-adv-x="278" 
d="M306 624v68h-342v-68h342z" />
    <glyph glyph-name="lozenge" unicode="&#x25ca;" horiz-adv-x="593" 
d="M353 739h-118l-185 -391l184 -390h119l186 390zM407 348l-113 -262l-111 262l111 261z" />
    <glyph glyph-name="exclamdown" horiz-adv-x="389" 
d="M149 337l-12 -527h134l-19 527h-103zM264 534h-127v-134h127v134z" />
    <glyph glyph-name="Agrave" horiz-adv-x="722" 
d="M266 723l-261 -723h148l54 156h286l52 -156h156l-251 723h-184zM247 273l107 308l100 -308h-207zM350 910h-140l139 -145h85z" />
    <glyph glyph-name="otilde" horiz-adv-x="611" 
d="M42 248q0 -66 20 -116t55 -83.5t82 -50t101 -16.5q69 0 119 22t82.5 59.5t48 86.5t15.5 102t-15 101t-47 84.5t-81.5 58t-118.5 21.5q-75 0 -125 -25t-80 -64t-43 -86.5t-13 -93.5zM194 247q0 17 2 46t12 56.5t32 48t63 20.5q37 0 59 -15.5t33.5 -39.5t15 -52t3.5 -53
q0 -50 -8 -83.5t-22 -53.5t-34.5 -28t-44.5 -8q-55 0 -83 38.5t-28 123.5zM177 593q10 29 25 37t28 8q10 0 22.5 -3t22.5 -7l43 -16q8 -2 21.5 -6t29.5 -4q26 0 43.5 8.5t29.5 19.5q21 20 28.5 43t11.5 50h-51q-4 -18 -14.5 -31.5t-33.5 -13.5q-12 0 -20 2t-13 4l-57 21
q-2 1 -18 6t-32 5q-45 0 -77.5 -33.5t-40.5 -89.5h52z" />
    <glyph glyph-name="space" unicode=" " horiz-adv-x="278" 
 />
    <glyph glyph-name="space" unicode="&#xa0;" horiz-adv-x="278" 
 />
    <glyph glyph-name="OE" unicode="&#x152;" horiz-adv-x="667" 
d="M35 231q0 -18 1.5 -43t10 -52.5t25 -55t48 -49t79 -35t116.5 -13.5q75 0 132.5 18.5t96.5 50.5t59 74.5t20 91.5q0 53 -21 87.5t-56 57t-79.5 36t-91.5 24.5q-39 10 -68.5 18t-49 19t-29.5 27t-10 41q0 45 32.5 71.5t86.5 26.5q40 0 63 -13.5t35 -32t15 -37t4 -27.5h149
q0 9 -0.5 23.5t-4.5 32.5t-12.5 38t-23.5 40q-20 25 -46 41.5t-55 26.5t-59 13.5t-58 3.5q-75 0 -129.5 -18.5t-89 -49t-51 -71t-16.5 -85.5q0 -47 17.5 -81t51 -59.5t83 -44t114.5 -34.5q34 -8 60 -15.5t43 -17.5t25.5 -25t8.5 -39q0 -46 -37 -73.5t-100 -27.5
q-50 0 -76.5 16.5t-38.5 39t-14 45.5t-2 36h-158zM484 910h-134l-83 -145h80z" />
    <glyph glyph-name="oe" unicode="&#x153;" horiz-adv-x="500" 
d="M29 146q1 -18 6.5 -45.5t30.5 -53.5q35 -36 79.5 -49t93.5 -13q59 0 102.5 15t72.5 39.5t43 55.5t14 64q0 52 -33 87t-102 54l-91 25q-33 9 -51 18t-18 35q0 23 20 36.5t50 13.5q9 0 20.5 -1.5t22.5 -7.5t19 -18t10 -33h135q-2 38 -17.5 66t-41 46.5t-60 27.5t-73.5 9
q-49 0 -89.5 -11t-70 -31.5t-45.5 -49.5t-16 -66q0 -39 14 -64t34.5 -40.5t42.5 -23.5t37 -12l92 -25q43 -12 56.5 -26t13.5 -31q0 -23 -19 -41.5t-59 -18.5q-23 0 -39 6.5t-25.5 16t-14 22t-5.5 24.5h-139zM400 730h-134l-83 -145h80z" />
    <glyph glyph-name="Ydieresis" unicode="&#x178;" horiz-adv-x="500" 
d="M32 0h431v102h-266l256 276v127h-414v-99h249l-256 -276v-130zM400 730h-134l-83 -145h80z" />
    <glyph glyph-name="Scaron" horiz-adv-x="667" 
d="M35 231q0 -18 1.5 -43t10 -52.5t25 -55t48 -49t79 -35t116.5 -13.5q75 0 132.5 18.5t96.5 50.5t59 74.5t20 91.5q0 53 -21 87.5t-56 57t-79.5 36t-91.5 24.5q-39 10 -68.5 18t-49 19t-29.5 27t-10 41q0 45 32.5 71.5t86.5 26.5q40 0 63 -13.5t35 -32t15 -37t4 -27.5h149
q0 9 -0.5 23.5t-4.5 32.5t-12.5 38t-23.5 40q-20 25 -46 41.5t-55 26.5t-59 13.5t-58 3.5q-75 0 -129.5 -18.5t-89 -49t-51 -71t-16.5 -85.5q0 -47 17.5 -81t51 -59.5t83 -44t114.5 -34.5q34 -8 60 -15.5t43 -17.5t25.5 -25t8.5 -39q0 -46 -37 -73.5t-100 -27.5
q-50 0 -76.5 16.5t-38.5 39t-14 45.5t-2 36h-158zM403 910l-69 -90l-71 90h-94l104 -145h117l107 145h-94z" />
    <glyph glyph-name="Scaron" unicode="&#x160;" horiz-adv-x="667" 
d="M35 231q0 -18 1.5 -43t10 -52.5t25 -55t48 -49t79 -35t116.5 -13.5q75 0 132.5 18.5t96.5 50.5t59 74.5t20 91.5q0 53 -21 87.5t-56 57t-79.5 36t-91.5 24.5q-39 10 -68.5 18t-49 19t-29.5 27t-10 41q0 45 32.5 71.5t86.5 26.5q40 0 63 -13.5t35 -32t15 -37t4 -27.5h149
q0 9 -0.5 23.5t-4.5 32.5t-12.5 38t-23.5 40q-20 25 -46 41.5t-55 26.5t-59 13.5t-58 3.5q-75 0 -129.5 -18.5t-89 -49t-51 -71t-16.5 -85.5q0 -47 17.5 -81t51 -59.5t83 -44t114.5 -34.5q34 -8 60 -15.5t43 -17.5t25.5 -25t8.5 -39q0 -46 -37 -73.5t-100 -27.5
q-50 0 -76.5 16.5t-38.5 39t-14 45.5t-2 36h-158zM403 910l-69 -90l-71 90h-94l104 -145h117l107 145h-94z" />
    <glyph glyph-name="Sacute" horiz-adv-x="667" 
d="M35 231q0 -18 1.5 -43t10 -52.5t25 -55t48 -49t79 -35t116.5 -13.5q75 0 132.5 18.5t96.5 50.5t59 74.5t20 91.5q0 53 -21 87.5t-56 57t-79.5 36t-91.5 24.5q-39 10 -68.5 18t-49 19t-29.5 27t-10 41q0 45 32.5 71.5t86.5 26.5q40 0 63 -13.5t35 -32t15 -37t4 -27.5h149
q0 9 -0.5 23.5t-4.5 32.5t-12.5 38t-23.5 40q-20 25 -46 41.5t-55 26.5t-59 13.5t-58 3.5q-75 0 -129.5 -18.5t-89 -49t-51 -71t-16.5 -85.5q0 -47 17.5 -81t51 -59.5t83 -44t114.5 -34.5q34 -8 60 -15.5t43 -17.5t25.5 -25t8.5 -39q0 -46 -37 -73.5t-100 -27.5
q-50 0 -76.5 16.5t-38.5 39t-14 45.5t-2 36h-158zM484 910h-134l-83 -145h80z" />
    <glyph glyph-name="Sacute" unicode="&#x15a;" horiz-adv-x="667" 
d="M35 231q0 -18 1.5 -43t10 -52.5t25 -55t48 -49t79 -35t116.5 -13.5q75 0 132.5 18.5t96.5 50.5t59 74.5t20 91.5q0 53 -21 87.5t-56 57t-79.5 36t-91.5 24.5q-39 10 -68.5 18t-49 19t-29.5 27t-10 41q0 45 32.5 71.5t86.5 26.5q40 0 63 -13.5t35 -32t15 -37t4 -27.5h149
q0 9 -0.5 23.5t-4.5 32.5t-12.5 38t-23.5 40q-20 25 -46 41.5t-55 26.5t-59 13.5t-58 3.5q-75 0 -129.5 -18.5t-89 -49t-51 -71t-16.5 -85.5q0 -47 17.5 -81t51 -59.5t83 -44t114.5 -34.5q34 -8 60 -15.5t43 -17.5t25.5 -25t8.5 -39q0 -46 -37 -73.5t-100 -27.5
q-50 0 -76.5 16.5t-38.5 39t-14 45.5t-2 36h-158zM484 910h-134l-83 -145h80z" />
    <glyph glyph-name="Tcaron" horiz-adv-x="611" 
d="M229 0h156v603h215v120h-586v-120h215v-603zM378 910l-70 -91l-70 91h-94l104 -145h117l106 145h-93z" />
    <glyph glyph-name="Tcaron" unicode="&#x164;" horiz-adv-x="611" 
d="M229 0h156v603h215v120h-586v-120h215v-603zM378 910l-70 -91l-70 91h-94l104 -145h117l106 145h-93z" />
    <glyph glyph-name="Zcaron" horiz-adv-x="611" 
d="M27 0h554v119l-385 -6l377 470v137h-523v-118l355 3l-378 -473v-132zM374 910l-69 -91l-71 91h-94l104 -145h117l107 145h-94z" />
    <glyph glyph-name="Zcaron" unicode="&#x17d;" horiz-adv-x="611" 
d="M27 0h554v119l-385 -6l377 470v137h-523v-118l355 3l-378 -473v-132zM374 910l-69 -91l-71 91h-94l104 -145h117l107 145h-94z" />
    <glyph glyph-name="Zacute" horiz-adv-x="611" 
d="M27 0h554v119l-385 -6l377 470v137h-523v-118l355 3l-378 -473v-132zM474 910h-134l-83 -145h80z" />
    <glyph glyph-name="Zacute" unicode="&#x179;" horiz-adv-x="611" 
d="M27 0h554v119l-385 -6l377 470v137h-523v-118l355 3l-378 -473v-132zM474 910h-134l-83 -145h80z" />
    <glyph glyph-name="scaron" horiz-adv-x="500" 
d="M29 146q1 -18 6.5 -45.5t30.5 -53.5q35 -36 79.5 -49t93.5 -13q59 0 102.5 15t72.5 39.5t43 55.5t14 64q0 52 -33 87t-102 54l-91 25q-33 9 -51 18t-18 35q0 23 20 36.5t50 13.5q9 0 20.5 -1.5t22.5 -7.5t19 -18t10 -33h135q-2 38 -17.5 66t-41 46.5t-60 27.5t-73.5 9
q-49 0 -89.5 -11t-70 -31.5t-45.5 -49.5t-16 -66q0 -39 14 -64t34.5 -40.5t42.5 -23.5t37 -12l92 -25q43 -12 56.5 -26t13.5 -31q0 -23 -19 -41.5t-59 -18.5q-23 0 -39 6.5t-25.5 16t-14 22t-5.5 24.5h-139zM321 730l-70 -90l-71 90h-93l104 -145h117l106 145h-93z" />
    <glyph glyph-name="scaron" unicode="&#x161;" horiz-adv-x="500" 
d="M29 146q1 -18 6.5 -45.5t30.5 -53.5q35 -36 79.5 -49t93.5 -13q59 0 102.5 15t72.5 39.5t43 55.5t14 64q0 52 -33 87t-102 54l-91 25q-33 9 -51 18t-18 35q0 23 20 36.5t50 13.5q9 0 20.5 -1.5t22.5 -7.5t19 -18t10 -33h135q-2 38 -17.5 66t-41 46.5t-60 27.5t-73.5 9
q-49 0 -89.5 -11t-70 -31.5t-45.5 -49.5t-16 -66q0 -39 14 -64t34.5 -40.5t42.5 -23.5t37 -12l92 -25q43 -12 56.5 -26t13.5 -31q0 -23 -19 -41.5t-59 -18.5q-23 0 -39 6.5t-25.5 16t-14 22t-5.5 24.5h-139zM321 730l-70 -90l-71 90h-93l104 -145h117l106 145h-93z" />
    <glyph glyph-name="sacute" horiz-adv-x="500" 
d="M29 146q1 -18 6.5 -45.5t30.5 -53.5q35 -36 79.5 -49t93.5 -13q59 0 102.5 15t72.5 39.5t43 55.5t14 64q0 52 -33 87t-102 54l-91 25q-33 9 -51 18t-18 35q0 23 20 36.5t50 13.5q9 0 20.5 -1.5t22.5 -7.5t19 -18t10 -33h135q-2 38 -17.5 66t-41 46.5t-60 27.5t-73.5 9
q-49 0 -89.5 -11t-70 -31.5t-45.5 -49.5t-16 -66q0 -39 14 -64t34.5 -40.5t42.5 -23.5t37 -12l92 -25q43 -12 56.5 -26t13.5 -31q0 -23 -19 -41.5t-59 -18.5q-23 0 -39 6.5t-25.5 16t-14 22t-5.5 24.5h-139zM400 730h-134l-83 -145h80z" />
    <glyph glyph-name="sacute" unicode="&#x15b;" horiz-adv-x="500" 
d="M29 146q1 -18 6.5 -45.5t30.5 -53.5q35 -36 79.5 -49t93.5 -13q59 0 102.5 15t72.5 39.5t43 55.5t14 64q0 52 -33 87t-102 54l-91 25q-33 9 -51 18t-18 35q0 23 20 36.5t50 13.5q9 0 20.5 -1.5t22.5 -7.5t19 -18t10 -33h135q-2 38 -17.5 66t-41 46.5t-60 27.5t-73.5 9
q-49 0 -89.5 -11t-70 -31.5t-45.5 -49.5t-16 -66q0 -39 14 -64t34.5 -40.5t42.5 -23.5t37 -12l92 -25q43 -12 56.5 -26t13.5 -31q0 -23 -19 -41.5t-59 -18.5q-23 0 -39 6.5t-25.5 16t-14 22t-5.5 24.5h-139zM400 730h-134l-83 -145h80z" />
    <glyph glyph-name="tcaron" horiz-adv-x="419" 
d="M362 104q-14 -2 -23.5 -2.5t-26.5 -0.5q-25 0 -38.5 5t-19.5 15t-7.5 24t-1.5 31v228h120v98h-120v153l-147 -54v-99h-97v-98h97v-277q0 -16 2.5 -39t16.5 -44.5t44 -37t86 -15.5q18 0 48.5 3t66.5 13v97zM325 723v-87h55q0 -12 -1.5 -25.5t-7.5 -24.5q-11 -26 -46 -33
v-36q32 3 52 14t31.5 28t15.5 38.5t4 44.5v81h-103z" />
    <glyph glyph-name="tcaron" unicode="&#x165;" horiz-adv-x="419" 
d="M362 104q-14 -2 -23.5 -2.5t-26.5 -0.5q-25 0 -38.5 5t-19.5 15t-7.5 24t-1.5 31v228h120v98h-120v153l-147 -54v-99h-97v-98h97v-277q0 -16 2.5 -39t16.5 -44.5t44 -37t86 -15.5q18 0 48.5 3t66.5 13v97zM325 723v-87h55q0 -12 -1.5 -25.5t-7.5 -24.5q-11 -26 -46 -33
v-36q32 3 52 14t31.5 28t15.5 38.5t4 44.5v81h-103z" />
    <glyph glyph-name="zcaron" horiz-adv-x="500" 
d="M32 0h431v102h-266l256 276v127h-414v-99h249l-256 -276v-130zM322 730l-70 -90l-70 90h-94l104 -145h117l106 145h-93z" />
    <glyph glyph-name="zcaron" unicode="&#x17e;" horiz-adv-x="500" 
d="M32 0h431v102h-266l256 276v127h-414v-99h249l-256 -276v-130zM322 730l-70 -90l-70 90h-94l104 -145h117l106 145h-93z" />
    <glyph glyph-name="zacute" horiz-adv-x="500" 
d="M32 0h431v102h-266l256 276v127h-414v-99h249l-256 -276v-130zM400 730h-134l-83 -145h80z" />
    <glyph glyph-name="zacute" unicode="&#x17a;" horiz-adv-x="500" 
d="M32 0h431v102h-266l256 276v127h-414v-99h249l-256 -276v-130zM400 730h-134l-83 -145h80z" />
    <glyph glyph-name="Lslash" unicode="&#xa3;" 
d="M69 0h468v123h-310v255l175 101v104l-175 -102v241h-158l1 -330l-67 -40v-101l66 38v-289z" />
    <glyph glyph-name="Lslash" unicode="&#x141;" 
d="M69 0h468v123h-310v255l175 101v104l-175 -102v241h-158l1 -330l-67 -40v-101l66 38v-289z" />
    <glyph glyph-name="Aogonek" unicode="&#xa5;" horiz-adv-x="722" 
d="M247 273l107 308l100 -308h-207zM5 0h148l54 156h286l52 -156h55q-51 -23 -84 -60.5t-33 -81.5q0 -32 24.5 -53.5t71.5 -21.5q35 0 57 9t36 17v44q-8 -5 -17 -8.5t-24 -3.5q-3 0 -13 1t-20.5 7t-19 18.5t-8.5 35.5q0 33 21.5 54.5t52.5 42.5h57l-251 723h-184z" />
    <glyph glyph-name="Aogonek" unicode="&#x104;" horiz-adv-x="722" 
d="M247 273l107 308l100 -308h-207zM5 0h148l54 156h286l52 -156h55q-51 -23 -84 -60.5t-33 -81.5q0 -32 24.5 -53.5t71.5 -21.5q35 0 57 9t36 17v44q-8 -5 -17 -8.5t-24 -3.5q-3 0 -13 1t-20.5 7t-19 18.5t-8.5 35.5q0 33 21.5 54.5t52.5 42.5h57l-251 723h-184z" />
    <glyph glyph-name="brokenbar" unicode="&#xa6;" horiz-adv-x="278" 
d="M73 -89h132v250h-132v-250zM73 411h132v250h-132v-250z" />
    <glyph glyph-name="Scommaaccent" horiz-adv-x="667" 
d="M35 231q0 -18 1.5 -43t10 -52.5t25 -55t48 -49t79 -35t116.5 -13.5q75 0 132.5 18.5t96.5 50.5t59 74.5t20 91.5q0 53 -21 87.5t-56 57t-79.5 36t-91.5 24.5q-39 10 -68.5 18t-49 19t-29.5 27t-10 41q0 45 32.5 71.5t86.5 26.5q40 0 63 -13.5t35 -32t15 -37t4 -27.5h149
q0 9 -0.5 23.5t-4.5 32.5t-12.5 38t-23.5 40q-20 25 -46 41.5t-55 26.5t-59 13.5t-58 3.5q-75 0 -129.5 -18.5t-89 -49t-51 -71t-16.5 -85.5q0 -47 17.5 -81t51 -59.5t83 -44t114.5 -34.5q34 -8 60 -15.5t43 -17.5t25.5 -25t8.5 -39q0 -46 -37 -73.5t-100 -27.5
q-50 0 -76.5 16.5t-38.5 39t-14 45.5t-2 36h-158zM283 -56v-106h55q0 -15 -1.5 -31t-7 -30t-16.5 -24.5t-30 -14.5v-44q32 4 52 17.5t31.5 34t15.5 46.5t4 54v98h-103z" />
    <glyph glyph-name="Zdotaccent" unicode="&#xaf;" horiz-adv-x="611" 
d="M27 0h554v119l-385 -6l377 470v137h-523v-118l355 3l-378 -473v-132zM267 779h102v118h-102v-118z" />
    <glyph glyph-name="Zdotaccent" unicode="&#x17b;" horiz-adv-x="611" 
d="M27 0h554v119l-385 -6l377 470v137h-523v-118l355 3l-378 -473v-132zM267 779h102v118h-102v-118z" />
    <glyph glyph-name="lslash" unicode="&#xb3;" horiz-adv-x="278" 
d="M65 0h148v383l53 32v105l-53 -33v236h-148v-326l-53 -33v-103l53 32v-293z" />
    <glyph glyph-name="lslash" unicode="&#x142;" horiz-adv-x="278" 
d="M65 0h148v383l53 32v105l-53 -33v236h-148v-326l-53 -33v-103l53 32v-293z" />
    <glyph glyph-name="aogonek" unicode="&#xb9;" 
d="M349 238q0 -41 -4 -71t-24 -54q-11 -12 -27 -20.5t-36 -8.5q-18 0 -31.5 6.5t-22.5 17t-13.5 23t-4.5 25.5q0 22 12 39t34 27.5t51.5 14.5t65.5 1zM209 360q0 9 1.5 20.5t9.5 24.5q10 14 25 21t31 7q5 0 14.5 -1.5t19 -6t18.5 -12.5t14 -22t6 -28t1 -39q-18 0 -43 -0.5
t-52 -3t-54.5 -8.5t-50.5 -16q-35 -16 -56 -37t-32.5 -42.5t-15 -42t-3.5 -35.5q0 -30 10.5 -59t33.5 -52q15 -14 43 -27t83 -13q10 0 27.5 1.5t37.5 9t42.5 24t43.5 46.5q0 -11 0.5 -28.5t4.5 -40.5h51q-51 -23 -84 -60.5t-33 -81.5q0 -32 24.5 -53.5t71.5 -21.5q35 0 57 9
t36 17v44q-8 -5 -17 -8.5t-24 -3.5q-3 0 -13 1t-20.5 7t-19 18.5t-8.5 35.5q0 32 21 53.5t53 43.5h39q-7 32 -9.5 64t-2.5 64l-1 203q0 9 -0.5 23.5t-4 31.5t-10.5 35.5t-20 33.5q-19 22 -43.5 34.5t-49.5 19.5t-48 9t-39 2q-36 0 -77 -8t-76 -33q-20 -14 -31 -30.5t-17 -33
t-7.5 -31t-1.5 -24.5h145z" />
    <glyph glyph-name="aogonek" unicode="&#x105;" 
d="M349 238q0 -41 -4 -71t-24 -54q-11 -12 -27 -20.5t-36 -8.5q-18 0 -31.5 6.5t-22.5 17t-13.5 23t-4.5 25.5q0 22 12 39t34 27.5t51.5 14.5t65.5 1zM209 360q0 9 1.5 20.5t9.5 24.5q10 14 25 21t31 7q5 0 14.5 -1.5t19 -6t18.5 -12.5t14 -22t6 -28t1 -39q-18 0 -43 -0.5
t-52 -3t-54.5 -8.5t-50.5 -16q-35 -16 -56 -37t-32.5 -42.5t-15 -42t-3.5 -35.5q0 -30 10.5 -59t33.5 -52q15 -14 43 -27t83 -13q10 0 27.5 1.5t37.5 9t42.5 24t43.5 46.5q0 -11 0.5 -28.5t4.5 -40.5h51q-51 -23 -84 -60.5t-33 -81.5q0 -32 24.5 -53.5t71.5 -21.5q35 0 57 9
t36 17v44q-8 -5 -17 -8.5t-24 -3.5q-3 0 -13 1t-20.5 7t-19 18.5t-8.5 35.5q0 32 21 53.5t53 43.5h39q-7 32 -9.5 64t-2.5 64l-1 203q0 9 -0.5 23.5t-4 31.5t-10.5 35.5t-20 33.5q-19 22 -43.5 34.5t-49.5 19.5t-48 9t-39 2q-36 0 -77 -8t-76 -33q-20 -14 -31 -30.5t-17 -33
t-7.5 -31t-1.5 -24.5h145z" />
    <glyph glyph-name="scommaaccent" horiz-adv-x="500" 
d="M29 146q1 -18 6.5 -45.5t30.5 -53.5q35 -36 79.5 -49t93.5 -13q59 0 102.5 15t72.5 39.5t43 55.5t14 64q0 52 -33 87t-102 54l-91 25q-33 9 -51 18t-18 35q0 23 20 36.5t50 13.5q9 0 20.5 -1.5t22.5 -7.5t19 -18t10 -33h135q-2 38 -17.5 66t-41 46.5t-60 27.5t-73.5 9
q-49 0 -89.5 -11t-70 -31.5t-45.5 -49.5t-16 -66q0 -39 14 -64t34.5 -40.5t42.5 -23.5t37 -12l92 -25q43 -12 56.5 -26t13.5 -31q0 -23 -19 -41.5t-59 -18.5q-23 0 -39 6.5t-25.5 16t-14 22t-5.5 24.5h-139zM199 -56v-106h55q0 -15 -1.5 -31t-7 -30t-16.5 -24.5t-30 -14.5
v-44q32 4 52 17.5t31.5 34t15.5 46.5t4 54v98h-103z" />
    <glyph glyph-name="Lcaron" unicode="&#xbc;" 
d="M69 0h468v123h-310v599h-158v-722zM307 723v-106h55q0 -15 -1.5 -31t-7 -30t-16.5 -24.5t-30 -14.5v-44q32 4 52 17.5t31.5 34t15.5 46.5t4 54v98h-103z" />
    <glyph glyph-name="Lcaron" unicode="&#x13d;" 
d="M69 0h468v123h-310v599h-158v-722zM307 723v-106h55q0 -15 -1.5 -31t-7 -30t-16.5 -24.5t-30 -14.5v-44q32 4 52 17.5t31.5 34t15.5 46.5t4 54v98h-103z" />
    <glyph glyph-name="lcaron" unicode="&#xbe;" horiz-adv-x="395" 
d="M65 0h148v723h-148v-723zM293 723v-106h55q0 -15 -1.5 -31t-7 -30t-16.5 -24.5t-30 -14.5v-44q32 4 52 17.5t31.5 34t15.5 46.5t4 54v98h-103z" />
    <glyph glyph-name="lcaron" unicode="&#x13e;" horiz-adv-x="395" 
d="M65 0h148v723h-148v-723zM293 723v-106h55q0 -15 -1.5 -31t-7 -30t-16.5 -24.5t-30 -14.5v-44q32 4 52 17.5t31.5 34t15.5 46.5t4 54v98h-103z" />
    <glyph glyph-name="zdotaccent" unicode="&#xbf;" horiz-adv-x="500" 
d="M32 0h431v102h-266l256 276v127h-414v-99h249l-256 -276v-130zM199 599h102v118h-102v-118z" />
    <glyph glyph-name="zdotaccent" unicode="&#x17c;" horiz-adv-x="500" 
d="M32 0h431v102h-266l256 276v127h-414v-99h249l-256 -276v-130zM199 599h102v118h-102v-118z" />
    <glyph glyph-name="Racute" unicode="&#xc0;" horiz-adv-x="667" 
d="M60 0h158v292h136q10 0 21.5 -0.5t22 -4.5t20 -12.5t14.5 -23.5q4 -11 9.5 -45.5t11 -75.5t10.5 -78t8 -52h171q-6 9 -11 18.5t-11 33.5q-4 15 -9 45.5t-13 94.5q-5 35 -10.5 64t-18.5 50.5t-36.5 34.5t-64.5 17q13 4 38.5 13t50.5 28.5t43.5 52t18.5 83.5
q0 35 -14.5 72.5t-48.5 66.5q-22 19 -47.5 29t-53.5 14.5t-58 5t-60 0.5h-277v-723zM213 609h104q37 0 60.5 -2t41.5 -15q11 -7 24.5 -25.5t13.5 -55.5q0 -19 -4.5 -33.5t-11 -24.5t-13.5 -16.5t-11 -9.5q-19 -15 -42 -17.5t-37 -2.5h-125v202zM476 910h-135l-83 -145h80z
" />
    <glyph glyph-name="Racute" unicode="&#x154;" horiz-adv-x="667" 
d="M60 0h158v292h136q10 0 21.5 -0.5t22 -4.5t20 -12.5t14.5 -23.5q4 -11 9.5 -45.5t11 -75.5t10.5 -78t8 -52h171q-6 9 -11 18.5t-11 33.5q-4 15 -9 45.5t-13 94.5q-5 35 -10.5 64t-18.5 50.5t-36.5 34.5t-64.5 17q13 4 38.5 13t50.5 28.5t43.5 52t18.5 83.5
q0 35 -14.5 72.5t-48.5 66.5q-22 19 -47.5 29t-53.5 14.5t-58 5t-60 0.5h-277v-723zM213 609h104q37 0 60.5 -2t41.5 -15q11 -7 24.5 -25.5t13.5 -55.5q0 -19 -4.5 -33.5t-11 -24.5t-13.5 -16.5t-11 -9.5q-19 -15 -42 -17.5t-37 -2.5h-125v202zM476 910h-135l-83 -145h80z
" />
    <glyph glyph-name="Abreve" unicode="&#xc3;" horiz-adv-x="722" 
d="M266 723l-261 -723h148l54 156h286l52 -156h156l-251 723h-184zM247 273l107 308l100 -308h-207zM208 910q1 -17 4.5 -41.5t22.5 -48.5q20 -27 52 -41t70 -14q37 0 65 11.5t47.5 31.5t30 46t12.5 56h-61q-3 -10 -7.5 -24t-15 -26.5t-27 -21t-43.5 -8.5q-12 0 -26 3
t-27 12t-22.5 24.5t-13.5 40.5h-61z" />
    <glyph glyph-name="Abreve" unicode="&#x102;" horiz-adv-x="722" 
d="M266 723l-261 -723h148l54 156h286l52 -156h156l-251 723h-184zM247 273l107 308l100 -308h-207zM208 910q1 -17 4.5 -41.5t22.5 -48.5q20 -27 52 -41t70 -14q37 0 65 11.5t47.5 31.5t30 46t12.5 56h-61q-3 -10 -7.5 -24t-15 -26.5t-27 -21t-43.5 -8.5q-12 0 -26 3
t-27 12t-22.5 24.5t-13.5 40.5h-61z" />
    <glyph glyph-name="Lacute" unicode="&#xc5;" 
d="M69 0h468v123h-310v599h-158v-722zM299 910h-135l-83 -145h80z" />
    <glyph glyph-name="Lacute" unicode="&#x139;" 
d="M69 0h468v123h-310v599h-158v-722zM299 910h-135l-83 -145h80z" />
    <glyph glyph-name="Cacute" unicode="&#xc6;" horiz-adv-x="667" 
d="M634 487q0 54 -20 98t-55.5 75.5t-85 49t-108.5 17.5q-76 0 -137.5 -27.5t-104.5 -77.5t-66 -120t-23 -156q0 -67 16.5 -132t55 -116.5t102 -83t156.5 -31.5q25 0 52 3.5t54.5 12.5t54 24.5t50.5 40.5q22 22 34.5 45.5t19 46t8.5 42.5t3 36h-163q-1 -36 -12.5 -62
t-29.5 -42.5t-41 -24.5t-47 -8q-38 0 -63.5 15.5t-42.5 39.5t-26 53t-13.5 56.5t-5 50t-0.5 33.5q0 56 9.5 105t29 85.5t50.5 57.5t74 21q39 0 62 -16.5t35 -38t15.5 -42.5t4.5 -30h158zM507 910h-134l-84 -145h80z" />
    <glyph glyph-name="Cacute" unicode="&#x106;" horiz-adv-x="667" 
d="M634 487q0 54 -20 98t-55.5 75.5t-85 49t-108.5 17.5q-76 0 -137.5 -27.5t-104.5 -77.5t-66 -120t-23 -156q0 -67 16.5 -132t55 -116.5t102 -83t156.5 -31.5q25 0 52 3.5t54.5 12.5t54 24.5t50.5 40.5q22 22 34.5 45.5t19 46t8.5 42.5t3 36h-163q-1 -36 -12.5 -62
t-29.5 -42.5t-41 -24.5t-47 -8q-38 0 -63.5 15.5t-42.5 39.5t-26 53t-13.5 56.5t-5 50t-0.5 33.5q0 56 9.5 105t29 85.5t50.5 57.5t74 21q39 0 62 -16.5t35 -38t15.5 -42.5t4.5 -30h158zM507 910h-134l-84 -145h80z" />
    <glyph glyph-name="Ccaron" unicode="&#xc8;" horiz-adv-x="667" 
d="M634 487q0 54 -20 98t-55.5 75.5t-85 49t-108.5 17.5q-76 0 -137.5 -27.5t-104.5 -77.5t-66 -120t-23 -156q0 -67 16.5 -132t55 -116.5t102 -83t156.5 -31.5q25 0 52 3.5t54.5 12.5t54 24.5t50.5 40.5q22 22 34.5 45.5t19 46t8.5 42.5t3 36h-163q-1 -36 -12.5 -62
t-29.5 -42.5t-41 -24.5t-47 -8q-38 0 -63.5 15.5t-42.5 39.5t-26 53t-13.5 56.5t-5 50t-0.5 33.5q0 56 9.5 105t29 85.5t50.5 57.5t74 21q39 0 62 -16.5t35 -38t15.5 -42.5t4.5 -30h158zM428 910l-69 -90l-71 90h-94l105 -145h116l107 145h-94z" />
    <glyph glyph-name="Ccaron" unicode="&#x10c;" horiz-adv-x="667" 
d="M634 487q0 54 -20 98t-55.5 75.5t-85 49t-108.5 17.5q-76 0 -137.5 -27.5t-104.5 -77.5t-66 -120t-23 -156q0 -67 16.5 -132t55 -116.5t102 -83t156.5 -31.5q25 0 52 3.5t54.5 12.5t54 24.5t50.5 40.5q22 22 34.5 45.5t19 46t8.5 42.5t3 36h-163q-1 -36 -12.5 -62
t-29.5 -42.5t-41 -24.5t-47 -8q-38 0 -63.5 15.5t-42.5 39.5t-26 53t-13.5 56.5t-5 50t-0.5 33.5q0 56 9.5 105t29 85.5t50.5 57.5t74 21q39 0 62 -16.5t35 -38t15.5 -42.5t4.5 -30h158zM428 910l-69 -90l-71 90h-94l105 -145h116l107 145h-94z" />
    <glyph glyph-name="Eogonek" unicode="&#xca;" horiz-adv-x="611" 
d="M74 0h451q-51 -23 -84 -60.5t-33 -81.5q0 -32 24.5 -53.5t71.5 -21.5q35 0 57 9t36 17v44q-8 -5 -17 -8.5t-24 -3.5q-3 0 -13 1t-20.5 7t-19 18.5t-8.5 35.5q0 33 21.5 54.5t52.5 42.5v120h-340v195h308v118h-308v172h329v118h-484v-723z" />
    <glyph glyph-name="Eogonek" unicode="&#x118;" horiz-adv-x="611" 
d="M74 0h451q-51 -23 -84 -60.5t-33 -81.5q0 -32 24.5 -53.5t71.5 -21.5q35 0 57 9t36 17v44q-8 -5 -17 -8.5t-24 -3.5q-3 0 -13 1t-20.5 7t-19 18.5t-8.5 35.5q0 33 21.5 54.5t52.5 42.5v120h-340v195h308v118h-308v172h329v118h-484v-723z" />
    <glyph glyph-name="Ecaron" unicode="&#xcc;" horiz-adv-x="611" 
d="M74 0h495v120h-340v195h308v118h-308v172h329v118h-484v-723zM390 910l-70 -91l-70 91h-94l104 -145h117l106 145h-93z" />
    <glyph glyph-name="Ecaron" unicode="&#x11a;" horiz-adv-x="611" 
d="M74 0h495v120h-340v195h308v118h-308v172h329v118h-484v-723zM390 910l-70 -91l-70 91h-94l104 -145h117l106 145h-93z" />
    <glyph glyph-name="Dcaron" unicode="&#xcf;" horiz-adv-x="722" 
d="M65 0h225q27 0 47 0.5t35 1.5t26.5 2.5t21.5 3.5q51 9 97.5 36t82 72t56 108.5t20.5 146.5q0 39 -6.5 78.5t-21 77t-38 70.5t-57.5 58q-33 24 -70 37t-72 19.5t-63.5 7.5t-43.5 1l-239 1v-721zM222 604q33 1 58 1t44 -1.5t33.5 -4t26.5 -5.5q36 -10 61.5 -32t41 -51.5
t22.5 -65.5t7 -74q0 -13 -1.5 -38t-8 -54.5t-19.5 -59t-36 -52.5q-34 -34 -76 -42t-92 -8q-14 0 -31 0.5t-30 1.5v485zM409 910l-70 -91l-70 91h-94l104 -145h117l106 145h-93z" />
    <glyph glyph-name="Dcaron" unicode="&#x10e;" horiz-adv-x="722" 
d="M65 0h225q27 0 47 0.5t35 1.5t26.5 2.5t21.5 3.5q51 9 97.5 36t82 72t56 108.5t20.5 146.5q0 39 -6.5 78.5t-21 77t-38 70.5t-57.5 58q-33 24 -70 37t-72 19.5t-63.5 7.5t-43.5 1l-239 1v-721zM222 604q33 1 58 1t44 -1.5t33.5 -4t26.5 -5.5q36 -10 61.5 -32t41 -51.5
t22.5 -65.5t7 -74q0 -13 -1.5 -38t-8 -54.5t-19.5 -59t-36 -52.5q-34 -34 -76 -42t-92 -8q-14 0 -31 0.5t-30 1.5v485zM409 910l-70 -91l-70 91h-94l104 -145h117l106 145h-93z" />
    <glyph glyph-name="Dcroat" unicode="&#xd0;" horiz-adv-x="722" 
d="M65 0h225q27 0 47 0.5t35 1.5t26.5 2.5t21.5 3.5q51 9 97.5 36t82 72t56 108.5t20.5 146.5q0 39 -6.5 78.5t-21 77t-38 70.5t-57.5 58q-33 24 -70 37t-72 19.5t-63.5 7.5t-43.5 1l-239 1v-281h-65v-87h65v-353zM222 353h145v87h-145v164q33 1 58 1t44 -1.5t33.5 -4
t26.5 -5.5q36 -10 61.5 -32t41 -51.5t22.5 -65.5t7 -74q0 -13 -1.5 -38t-8 -54.5t-19.5 -59t-36 -52.5q-34 -34 -76 -42t-92 -8q-14 0 -31 0.5t-30 1.5v234z" />
    <glyph glyph-name="Dcroat" unicode="&#x110;" horiz-adv-x="722" 
d="M65 0h225q27 0 47 0.5t35 1.5t26.5 2.5t21.5 3.5q51 9 97.5 36t82 72t56 108.5t20.5 146.5q0 39 -6.5 78.5t-21 77t-38 70.5t-57.5 58q-33 24 -70 37t-72 19.5t-63.5 7.5t-43.5 1l-239 1v-281h-65v-87h65v-353zM222 353h145v87h-145v164q33 1 58 1t44 -1.5t33.5 -4
t26.5 -5.5q36 -10 61.5 -32t41 -51.5t22.5 -65.5t7 -74q0 -13 -1.5 -38t-8 -54.5t-19.5 -59t-36 -52.5q-34 -34 -76 -42t-92 -8q-14 0 -31 0.5t-30 1.5v234z" />
    <glyph glyph-name="Nacute" unicode="&#xd1;" horiz-adv-x="778" 
d="M72 0h146v600l280 -600h213v723h-144v-569l-271 569h-224v-723zM548 910h-135l-83 -145h80z" />
    <glyph glyph-name="Nacute" unicode="&#x143;" horiz-adv-x="778" 
d="M72 0h146v600l280 -600h213v723h-144v-569l-271 569h-224v-723zM548 910h-135l-83 -145h80z" />
    <glyph glyph-name="Ncaron" unicode="&#xd2;" horiz-adv-x="778" 
d="M72 0h146v600l280 -600h213v723h-144v-569l-271 569h-224v-723zM461 910l-70 -91l-70 91h-94l104 -145h117l106 145h-93z" />
    <glyph glyph-name="Ncaron" unicode="&#x147;" horiz-adv-x="778" 
d="M72 0h146v600l280 -600h213v723h-144v-569l-271 569h-224v-723zM461 910l-70 -91l-70 91h-94l104 -145h117l106 145h-93z" />
    <glyph glyph-name="Ohungarumlaut" unicode="&#xd5;" horiz-adv-x="778" 
d="M42 351q0 -25 3 -58.5t12 -70t26.5 -73.5t47.5 -68q50 -52 117 -75.5t139 -23.5q22 0 54 3.5t67 14.5t70.5 31t65.5 54q22 25 39 57.5t28.5 69.5t17.5 77t6 79q0 27 -3.5 60.5t-13.5 69.5t-28 72.5t-47 69.5q-27 30 -59 49t-66 30t-67 15t-62 4q-98 0 -164 -33.5
t-107 -88t-58.5 -124t-17.5 -141.5zM204 356q0 62 11 117t42 93q22 28 55.5 44.5t77.5 16.5q56 0 99 -30.5t66 -97.5q11 -33 14.5 -68t3.5 -61q0 -43 -4.5 -75.5t-11 -57.5t-15.5 -43t-18 -31q-43 -67 -135 -67q-54 0 -84 17.5t-47 40.5q-32 42 -43 96t-11 106zM459 910
h-134l-84 -145h80zM644 910h-134l-84 -145h80z" />
    <glyph glyph-name="Ohungarumlaut" unicode="&#x150;" horiz-adv-x="778" 
d="M42 351q0 -25 3 -58.5t12 -70t26.5 -73.5t47.5 -68q50 -52 117 -75.5t139 -23.5q22 0 54 3.5t67 14.5t70.5 31t65.5 54q22 25 39 57.5t28.5 69.5t17.5 77t6 79q0 27 -3.5 60.5t-13.5 69.5t-28 72.5t-47 69.5q-27 30 -59 49t-66 30t-67 15t-62 4q-98 0 -164 -33.5
t-107 -88t-58.5 -124t-17.5 -141.5zM204 356q0 62 11 117t42 93q22 28 55.5 44.5t77.5 16.5q56 0 99 -30.5t66 -97.5q11 -33 14.5 -68t3.5 -61q0 -43 -4.5 -75.5t-11 -57.5t-15.5 -43t-18 -31q-43 -67 -135 -67q-54 0 -84 17.5t-47 40.5q-32 42 -43 96t-11 106zM459 910
h-134l-84 -145h80zM644 910h-134l-84 -145h80z" />
    <glyph glyph-name="multiply" unicode="&#xd7;" horiz-adv-x="584" 
d="M33 99l92 -92l167 168l167 -168l92 92l-167 167l167 168l-92 92l-167 -168l-167 168l-92 -92l167 -168z" />
    <glyph glyph-name="Rcaron" unicode="&#xd8;" horiz-adv-x="667" 
d="M60 0h158v292h136q10 0 21.5 -0.5t22 -4.5t20 -12.5t14.5 -23.5q4 -11 9.5 -45.5t11 -75.5t10.5 -78t8 -52h171q-6 9 -11 18.5t-11 33.5q-4 15 -9 45.5t-13 94.5q-5 35 -10.5 64t-18.5 50.5t-36.5 34.5t-64.5 17q13 4 38.5 13t50.5 28.5t43.5 52t18.5 83.5
q0 35 -14.5 72.5t-48.5 66.5q-22 19 -47.5 29t-53.5 14.5t-58 5t-60 0.5h-277v-723zM213 609h104q37 0 60.5 -2t41.5 -15q11 -7 24.5 -25.5t13.5 -55.5q0 -19 -4.5 -33.5t-11 -24.5t-13.5 -16.5t-11 -9.5q-19 -15 -42 -17.5t-37 -2.5h-125v202zM394 910l-70 -91l-70 91h-94
l104 -145h117l106 145h-93z" />
    <glyph glyph-name="Rcaron" unicode="&#x158;" horiz-adv-x="667" 
d="M60 0h158v292h136q10 0 21.5 -0.5t22 -4.5t20 -12.5t14.5 -23.5q4 -11 9.5 -45.5t11 -75.5t10.5 -78t8 -52h171q-6 9 -11 18.5t-11 33.5q-4 15 -9 45.5t-13 94.5q-5 35 -10.5 64t-18.5 50.5t-36.5 34.5t-64.5 17q13 4 38.5 13t50.5 28.5t43.5 52t18.5 83.5
q0 35 -14.5 72.5t-48.5 66.5q-22 19 -47.5 29t-53.5 14.5t-58 5t-60 0.5h-277v-723zM213 609h104q37 0 60.5 -2t41.5 -15q11 -7 24.5 -25.5t13.5 -55.5q0 -19 -4.5 -33.5t-11 -24.5t-13.5 -16.5t-11 -9.5q-19 -15 -42 -17.5t-37 -2.5h-125v202zM394 910l-70 -91l-70 91h-94
l104 -145h117l106 145h-93z" />
    <glyph glyph-name="Uring" unicode="&#xd9;" horiz-adv-x="778" 
d="M72 721v-432q0 -51 5.5 -93.5t31.5 -84.5q25 -41 61 -65.5t73.5 -38t74 -17.5t63.5 -4q55 0 111 14t102 47t75 87.5t29 135.5v451h-151v-432q0 -27 -1.5 -46.5t-4.5 -34t-7 -24.5t-10 -18q-15 -23 -35 -36t-40.5 -19t-38 -7t-26.5 -1q-57 0 -88.5 16.5t-46.5 42.5
t-18.5 57.5t-3.5 61.5v440h-155zM389 940q-21 0 -39.5 -8t-32 -22t-21.5 -32.5t-8 -39.5t8 -40t22 -32.5t32 -21.5t39 -8t39.5 8t32 22t21.5 32.5t8 39.5t-7.5 39.5t-21 32.5t-32 22t-40.5 8zM389 892q23 0 38.5 -16t15.5 -38t-15.5 -37.5t-38.5 -15.5q-22 0 -37.5 15.5
t-15.5 37.5q0 23 15.5 38.5t37.5 15.5z" />
    <glyph glyph-name="Uring" unicode="&#x16e;" horiz-adv-x="778" 
d="M72 721v-432q0 -51 5.5 -93.5t31.5 -84.5q25 -41 61 -65.5t73.5 -38t74 -17.5t63.5 -4q55 0 111 14t102 47t75 87.5t29 135.5v451h-151v-432q0 -27 -1.5 -46.5t-4.5 -34t-7 -24.5t-10 -18q-15 -23 -35 -36t-40.5 -19t-38 -7t-26.5 -1q-57 0 -88.5 16.5t-46.5 42.5
t-18.5 57.5t-3.5 61.5v440h-155zM389 940q-21 0 -39.5 -8t-32 -22t-21.5 -32.5t-8 -39.5t8 -40t22 -32.5t32 -21.5t39 -8t39.5 8t32 22t21.5 32.5t8 39.5t-7.5 39.5t-21 32.5t-32 22t-40.5 8zM389 892q23 0 38.5 -16t15.5 -38t-15.5 -37.5t-38.5 -15.5q-22 0 -37.5 15.5
t-15.5 37.5q0 23 15.5 38.5t37.5 15.5z" />
    <glyph glyph-name="Uhungarumlaut" unicode="&#xdb;" horiz-adv-x="778" 
d="M72 721v-432q0 -51 5.5 -93.5t31.5 -84.5q25 -41 61 -65.5t73.5 -38t74 -17.5t63.5 -4q55 0 111 14t102 47t75 87.5t29 135.5v451h-151v-432q0 -27 -1.5 -46.5t-4.5 -34t-7 -24.5t-10 -18q-15 -23 -35 -36t-40.5 -19t-38 -7t-26.5 -1q-57 0 -88.5 16.5t-46.5 42.5
t-18.5 57.5t-3.5 61.5v440h-155zM447 910h-134l-84 -145h80zM632 910h-134l-84 -145h80z" />
    <glyph glyph-name="Uhungarumlaut" unicode="&#x170;" horiz-adv-x="778" 
d="M72 721v-432q0 -51 5.5 -93.5t31.5 -84.5q25 -41 61 -65.5t73.5 -38t74 -17.5t63.5 -4q55 0 111 14t102 47t75 87.5t29 135.5v451h-151v-432q0 -27 -1.5 -46.5t-4.5 -34t-7 -24.5t-10 -18q-15 -23 -35 -36t-40.5 -19t-38 -7t-26.5 -1q-57 0 -88.5 16.5t-46.5 42.5
t-18.5 57.5t-3.5 61.5v440h-155zM447 910h-134l-84 -145h80zM632 910h-134l-84 -145h80z" />
    <glyph glyph-name="Yacute" unicode="&#xdd;" horiz-adv-x="667" 
d="M16 720l244 -455v-265h153v263l244 457h-159l-152 -329l-149 329h-181zM500 910h-134l-83 -145h79z" />
    <glyph glyph-name="Tcommaaccent" unicode="&#xde;" horiz-adv-x="611" 
d="M229 0h156v603h215v120h-586v-120h215v-603zM255 -56v-106h55q0 -15 -1.5 -31t-7 -30t-16.5 -24.5t-30 -14.5v-44q32 4 52 17.5t31.5 34t15.5 46.5t4 54v98h-103z" />
    <glyph glyph-name="Tcommaaccent" unicode="&#x162;" horiz-adv-x="611" 
d="M229 0h156v603h215v120h-586v-120h215v-603zM255 -56v-106h55q0 -15 -1.5 -31t-7 -30t-16.5 -24.5t-30 -14.5v-44q32 4 52 17.5t31.5 34t15.5 46.5t4 54v98h-103z" />
    <glyph glyph-name="racute" unicode="&#xe0;" horiz-adv-x="389" 
d="M65 0h148v249q0 24 3.5 48.5t19.5 43.5t48 29t88 5v133q-45 2 -75 -7t-49 -24t-30 -33t-18 -34l-3 97h-139q1 -11 2.5 -28.5t2.5 -36.5t1.5 -35.5t0.5 -25.5v-381zM345 730h-134l-83 -145h80z" />
    <glyph glyph-name="racute" unicode="&#x155;" horiz-adv-x="389" 
d="M65 0h148v249q0 24 3.5 48.5t19.5 43.5t48 29t88 5v133q-45 2 -75 -7t-49 -24t-30 -33t-18 -34l-3 97h-139q1 -11 2.5 -28.5t2.5 -36.5t1.5 -35.5t0.5 -25.5v-381zM345 730h-134l-83 -145h80z" />
    <glyph glyph-name="abreve" unicode="&#xe3;" 
d="M502 0q-7 32 -9.5 64t-2.5 64l-1 203q0 9 -0.5 23.5t-4 31.5t-10.5 35.5t-20 33.5q-19 22 -43.5 34.5t-49.5 19.5t-48 9t-39 2q-36 0 -77 -8t-76 -33q-20 -14 -31 -30.5t-17 -33t-7.5 -31t-1.5 -24.5h145q0 9 1.5 20.5t9.5 24.5q10 14 25 21t31 7q5 0 14.5 -1.5t19 -6
t18.5 -12.5t14 -22t6 -28t1 -39q-18 0 -43 -0.5t-52 -3t-54.5 -8.5t-50.5 -16q-35 -16 -56 -37t-32.5 -42.5t-15 -42t-3.5 -35.5q0 -30 10.5 -59t33.5 -52q15 -14 43 -27t83 -13q10 0 27.5 1.5t37.5 9t42.5 24t43.5 46.5q0 -11 0.5 -28.5t4.5 -40.5h134zM349 238
q0 -41 -4 -71t-24 -54q-11 -12 -27 -20.5t-36 -8.5q-18 0 -31.5 6.5t-22.5 17t-13.5 23t-4.5 25.5q0 22 12 39t34 27.5t51.5 14.5t65.5 1zM125 730q1 -17 4.5 -41.5t22.5 -48.5q20 -27 52 -41t70 -14q37 0 65 11.5t47.5 31.5t30 46t12.5 56h-61q-3 -10 -7.5 -24t-15 -26.5
t-27 -21t-43.5 -8.5q-12 0 -26 3t-27 12t-22.5 24.5t-13.5 40.5h-61z" />
    <glyph glyph-name="abreve" unicode="&#x103;" 
d="M502 0q-7 32 -9.5 64t-2.5 64l-1 203q0 9 -0.5 23.5t-4 31.5t-10.5 35.5t-20 33.5q-19 22 -43.5 34.5t-49.5 19.5t-48 9t-39 2q-36 0 -77 -8t-76 -33q-20 -14 -31 -30.5t-17 -33t-7.5 -31t-1.5 -24.5h145q0 9 1.5 20.5t9.5 24.5q10 14 25 21t31 7q5 0 14.5 -1.5t19 -6
t18.5 -12.5t14 -22t6 -28t1 -39q-18 0 -43 -0.5t-52 -3t-54.5 -8.5t-50.5 -16q-35 -16 -56 -37t-32.5 -42.5t-15 -42t-3.5 -35.5q0 -30 10.5 -59t33.5 -52q15 -14 43 -27t83 -13q10 0 27.5 1.5t37.5 9t42.5 24t43.5 46.5q0 -11 0.5 -28.5t4.5 -40.5h134zM349 238
q0 -41 -4 -71t-24 -54q-11 -12 -27 -20.5t-36 -8.5q-18 0 -31.5 6.5t-22.5 17t-13.5 23t-4.5 25.5q0 22 12 39t34 27.5t51.5 14.5t65.5 1zM125 730q1 -17 4.5 -41.5t22.5 -48.5q20 -27 52 -41t70 -14q37 0 65 11.5t47.5 31.5t30 46t12.5 56h-61q-3 -10 -7.5 -24t-15 -26.5
t-27 -21t-43.5 -8.5q-12 0 -26 3t-27 12t-22.5 24.5t-13.5 40.5h-61z" />
    <glyph glyph-name="lacute" unicode="&#xe5;" horiz-adv-x="278" 
d="M65 0h148v723h-148v-723zM295 910h-135l-83 -145h80z" />
    <glyph glyph-name="lacute" unicode="&#x13a;" horiz-adv-x="278" 
d="M65 0h148v723h-148v-723zM295 910h-135l-83 -145h80z" />
    <glyph glyph-name="cacute" unicode="&#xe6;" horiz-adv-x="500" 
d="M477 326q0 51 -19 87t-49 58.5t-66.5 33t-71.5 10.5q-25 0 -65 -8.5t-78 -36t-65.5 -79.5t-27.5 -138q0 -61 15.5 -111t48.5 -88q35 -39 78 -53t94 -14q48 0 82.5 12t61.5 35q22 18 34.5 38.5t19 40t8.5 37.5t3 33h-146q-2 -34 -11 -53.5t-19.5 -29t-21 -12t-16.5 -2.5
q-8 0 -18.5 3t-21.5 14q-13 14 -20.5 36t-11 45t-4.5 43t-1 31q0 21 2.5 48.5t10.5 52.5t23.5 42.5t41.5 17.5q21 0 33.5 -12t19.5 -28t9 -31t3 -22h145zM417 730h-134l-84 -145h80z" />
    <glyph glyph-name="cacute" unicode="&#x107;" horiz-adv-x="500" 
d="M477 326q0 51 -19 87t-49 58.5t-66.5 33t-71.5 10.5q-25 0 -65 -8.5t-78 -36t-65.5 -79.5t-27.5 -138q0 -61 15.5 -111t48.5 -88q35 -39 78 -53t94 -14q48 0 82.5 12t61.5 35q22 18 34.5 38.5t19 40t8.5 37.5t3 33h-146q-2 -34 -11 -53.5t-19.5 -29t-21 -12t-16.5 -2.5
q-8 0 -18.5 3t-21.5 14q-13 14 -20.5 36t-11 45t-4.5 43t-1 31q0 21 2.5 48.5t10.5 52.5t23.5 42.5t41.5 17.5q21 0 33.5 -12t19.5 -28t9 -31t3 -22h145zM417 730h-134l-84 -145h80z" />
    <glyph glyph-name="ccaron" unicode="&#xe8;" horiz-adv-x="500" 
d="M477 326q0 51 -19 87t-49 58.5t-66.5 33t-71.5 10.5q-25 0 -65 -8.5t-78 -36t-65.5 -79.5t-27.5 -138q0 -61 15.5 -111t48.5 -88q35 -39 78 -53t94 -14q48 0 82.5 12t61.5 35q22 18 34.5 38.5t19 40t8.5 37.5t3 33h-146q-2 -34 -11 -53.5t-19.5 -29t-21 -12t-16.5 -2.5
q-8 0 -18.5 3t-21.5 14q-13 14 -20.5 36t-11 45t-4.5 43t-1 31q0 21 2.5 48.5t10.5 52.5t23.5 42.5t41.5 17.5q21 0 33.5 -12t19.5 -28t9 -31t3 -22h145zM338 730l-69 -90l-71 90h-94l104 -145h117l107 145h-94z" />
    <glyph glyph-name="ccaron" unicode="&#x10d;" horiz-adv-x="500" 
d="M477 326q0 51 -19 87t-49 58.5t-66.5 33t-71.5 10.5q-25 0 -65 -8.5t-78 -36t-65.5 -79.5t-27.5 -138q0 -61 15.5 -111t48.5 -88q35 -39 78 -53t94 -14q48 0 82.5 12t61.5 35q22 18 34.5 38.5t19 40t8.5 37.5t3 33h-146q-2 -34 -11 -53.5t-19.5 -29t-21 -12t-16.5 -2.5
q-8 0 -18.5 3t-21.5 14q-13 14 -20.5 36t-11 45t-4.5 43t-1 31q0 21 2.5 48.5t10.5 52.5t23.5 42.5t41.5 17.5q21 0 33.5 -12t19.5 -28t9 -31t3 -22h145zM338 730l-69 -90l-71 90h-94l104 -145h117l107 145h-94z" />
    <glyph glyph-name="eogonek" unicode="&#xea;" 
d="M189 308q1 22 7 42.5t17.5 36t29 25t41.5 9.5q32 0 50 -14.5t26.5 -33.5t10 -37.5t1.5 -27.5h-183zM375 150q-11 -42 -35.5 -56t-52.5 -14q-39 0 -59.5 16.5t-30.5 38.5t-11.5 45t-1.5 35h339q1 16 1 37t-2.5 45.5t-9 50.5t-19.5 52q-17 35 -41 58.5t-51 37.5t-56 20
t-56 6q-42 0 -77.5 -11t-64.5 -31q-32 -22 -52.5 -50.5t-32 -60t-16 -64.5t-4.5 -64q0 -61 15 -111t50 -86q20 -21 44 -33t48.5 -19t47 -9t38.5 -2q27 0 50 4q-39 -24 -63.5 -56.5t-24.5 -70.5q0 -32 24.5 -53.5t71.5 -21.5q35 0 57 9t36 17v44q-8 -5 -17 -8.5t-24 -3.5
q-3 0 -13 1t-20.5 7t-19 18.5t-8.5 35.5q0 32 21.5 53.5t58.5 44.5q51 33 71.5 69.5t24.5 79.5h-135z" />
    <glyph glyph-name="eogonek" unicode="&#x119;" 
d="M189 308q1 22 7 42.5t17.5 36t29 25t41.5 9.5q32 0 50 -14.5t26.5 -33.5t10 -37.5t1.5 -27.5h-183zM375 150q-11 -42 -35.5 -56t-52.5 -14q-39 0 -59.5 16.5t-30.5 38.5t-11.5 45t-1.5 35h339q1 16 1 37t-2.5 45.5t-9 50.5t-19.5 52q-17 35 -41 58.5t-51 37.5t-56 20
t-56 6q-42 0 -77.5 -11t-64.5 -31q-32 -22 -52.5 -50.5t-32 -60t-16 -64.5t-4.5 -64q0 -61 15 -111t50 -86q20 -21 44 -33t48.5 -19t47 -9t38.5 -2q27 0 50 4q-39 -24 -63.5 -56.5t-24.5 -70.5q0 -32 24.5 -53.5t71.5 -21.5q35 0 57 9t36 17v44q-8 -5 -17 -8.5t-24 -3.5
q-3 0 -13 1t-20.5 7t-19 18.5t-8.5 35.5q0 32 21.5 53.5t58.5 44.5q51 33 71.5 69.5t24.5 79.5h-135z" />
    <glyph glyph-name="ecaron" unicode="&#xec;" 
d="M523 215q1 16 1 37t-2.5 45.5t-9 50.5t-19.5 52q-17 35 -41 58.5t-51 37.5t-56 20t-56 6q-42 0 -77.5 -11t-64.5 -31q-32 -22 -52.5 -50.5t-32 -60t-16 -64.5t-4.5 -64q0 -61 15 -111t50 -86q20 -21 44 -33t48.5 -19t47 -9t38.5 -2q56 0 102.5 15t74.5 44q15 16 24.5 32
t14.5 30t6.5 26.5t2.5 21.5h-135q-11 -42 -35.5 -56t-52.5 -14q-39 0 -59.5 16.5t-30.5 38.5t-11.5 45t-1.5 35h339zM189 308q1 22 7 42.5t17.5 36t29 25t41.5 9.5q32 0 50 -14.5t26.5 -33.5t10 -37.5t1.5 -27.5h-183zM362 730l-70 -91l-70 91h-94l104 -145h117l106 145h-93
z" />
    <glyph glyph-name="ecaron" unicode="&#x11b;" 
d="M523 215q1 16 1 37t-2.5 45.5t-9 50.5t-19.5 52q-17 35 -41 58.5t-51 37.5t-56 20t-56 6q-42 0 -77.5 -11t-64.5 -31q-32 -22 -52.5 -50.5t-32 -60t-16 -64.5t-4.5 -64q0 -61 15 -111t50 -86q20 -21 44 -33t48.5 -19t47 -9t38.5 -2q56 0 102.5 15t74.5 44q15 16 24.5 32
t14.5 30t6.5 26.5t2.5 21.5h-135q-11 -42 -35.5 -56t-52.5 -14q-39 0 -59.5 16.5t-30.5 38.5t-11.5 45t-1.5 35h339zM189 308q1 22 7 42.5t17.5 36t29 25t41.5 9.5q32 0 50 -14.5t26.5 -33.5t10 -37.5t1.5 -27.5h-183zM362 730l-70 -91l-70 91h-94l104 -145h117l106 145h-93
z" />
    <glyph glyph-name="dcaron" unicode="&#xef;" horiz-adv-x="730" 
d="M399 443q-5 7 -15 18.5t-27 22.5t-41.5 19.5t-58.5 8.5q-50 0 -91 -19t-70 -54t-45.5 -85t-16.5 -113q0 -119 56.5 -185t158.5 -66q17 0 43.5 4t54.5 22q23 15 33 29t18 28l4 -73h150q-2 14 -3 36.5t-1 45.5v640h-149v-279zM184 245q0 19 3.5 48t14.5 56t33 46.5t59 19.5
q51 0 80.5 -39t29.5 -114q0 -19 -3.5 -53t-20.5 -66q-12 -23 -37 -40t-57 -17q-28 0 -47.5 13t-31.5 35t-17.5 50.5t-5.5 60.5zM628 723v-106h55q0 -15 -1.5 -31t-7 -30t-16.5 -24.5t-30 -14.5v-44q32 4 52 17.5t31.5 34t15.5 46.5t4 54v98h-103z" />
    <glyph glyph-name="dcaron" unicode="&#x10f;" horiz-adv-x="730" 
d="M399 443q-5 7 -15 18.5t-27 22.5t-41.5 19.5t-58.5 8.5q-50 0 -91 -19t-70 -54t-45.5 -85t-16.5 -113q0 -119 56.5 -185t158.5 -66q17 0 43.5 4t54.5 22q23 15 33 29t18 28l4 -73h150q-2 14 -3 36.5t-1 45.5v640h-149v-279zM184 245q0 19 3.5 48t14.5 56t33 46.5t59 19.5
q51 0 80.5 -39t29.5 -114q0 -19 -3.5 -53t-20.5 -66q-12 -23 -37 -40t-57 -17q-28 0 -47.5 13t-31.5 35t-17.5 50.5t-5.5 60.5zM628 723v-106h55q0 -15 -1.5 -31t-7 -30t-16.5 -24.5t-30 -14.5v-44q32 4 52 17.5t31.5 34t15.5 46.5t4 54v98h-103z" />
    <glyph glyph-name="dcroat" unicode="&#xf0;" horiz-adv-x="611" 
d="M399 572v-129q-5 7 -15 18.5t-27 22.5t-41.5 19.5t-58.5 8.5q-50 0 -91 -19t-70 -54t-45.5 -85t-16.5 -113q0 -119 56.5 -185t158.5 -66q17 0 43.5 4t54.5 22q23 15 33 29t18 28l4 -73h150q-2 14 -3 36.5t-1 45.5v490h63v78h-63v72h-149v-72h-178v-78h178zM184 245
q0 19 3.5 48t14.5 56t33 46.5t59 19.5q51 0 80.5 -39t29.5 -114q0 -19 -3.5 -53t-20.5 -66q-12 -23 -37 -40t-57 -17q-28 0 -47.5 13t-31.5 35t-17.5 50.5t-5.5 60.5z" />
    <glyph glyph-name="dcroat" unicode="&#x111;" horiz-adv-x="611" 
d="M399 572v-129q-5 7 -15 18.5t-27 22.5t-41.5 19.5t-58.5 8.5q-50 0 -91 -19t-70 -54t-45.5 -85t-16.5 -113q0 -119 56.5 -185t158.5 -66q17 0 43.5 4t54.5 22q23 15 33 29t18 28l4 -73h150q-2 14 -3 36.5t-1 45.5v490h63v78h-63v72h-149v-72h-178v-78h178zM184 245
q0 19 3.5 48t14.5 56t33 46.5t59 19.5q51 0 80.5 -39t29.5 -114q0 -19 -3.5 -53t-20.5 -66q-12 -23 -37 -40t-57 -17q-28 0 -47.5 13t-31.5 35t-17.5 50.5t-5.5 60.5z" />
    <glyph glyph-name="nacute" unicode="&#xf1;" horiz-adv-x="611" 
d="M67 0h149v296q0 29 5.5 48t12.5 29q12 18 32.5 28.5t44.5 10.5q29 0 46.5 -13t25.5 -30q6 -12 7 -25.5t1 -29.5v-314h151v273q0 35 -0.5 59t-2 40.5t-4.5 28t-7 23.5q-5 13 -15.5 29.5t-29 31t-45.5 24.5t-64 10q-41 0 -70 -10.5t-48 -25t-30 -29t-16 -23.5l-4 76h-142
q1 -13 1.5 -29t1 -29.5t0.5 -23.5v-10v-415zM468 730h-134l-83 -145h80z" />
    <glyph glyph-name="nacute" unicode="&#x144;" horiz-adv-x="611" 
d="M67 0h149v296q0 29 5.5 48t12.5 29q12 18 32.5 28.5t44.5 10.5q29 0 46.5 -13t25.5 -30q6 -12 7 -25.5t1 -29.5v-314h151v273q0 35 -0.5 59t-2 40.5t-4.5 28t-7 23.5q-5 13 -15.5 29.5t-29 31t-45.5 24.5t-64 10q-41 0 -70 -10.5t-48 -25t-30 -29t-16 -23.5l-4 76h-142
q1 -13 1.5 -29t1 -29.5t0.5 -23.5v-10v-415zM468 730h-134l-83 -145h80z" />
    <glyph glyph-name="ncaron" unicode="&#xf2;" horiz-adv-x="611" 
d="M67 0h149v296q0 29 5.5 48t12.5 29q12 18 32.5 28.5t44.5 10.5q29 0 46.5 -13t25.5 -30q6 -12 7 -25.5t1 -29.5v-314h151v273q0 35 -0.5 59t-2 40.5t-4.5 28t-7 23.5q-5 13 -15.5 29.5t-29 31t-45.5 24.5t-64 10q-41 0 -70 -10.5t-48 -25t-30 -29t-16 -23.5l-4 76h-142
q1 -13 1.5 -29t1 -29.5t0.5 -23.5v-10v-415zM390 730l-70 -91l-70 91h-94l104 -145h117l106 145h-93z" />
    <glyph glyph-name="ncaron" unicode="&#x148;" horiz-adv-x="611" 
d="M67 0h149v296q0 29 5.5 48t12.5 29q12 18 32.5 28.5t44.5 10.5q29 0 46.5 -13t25.5 -30q6 -12 7 -25.5t1 -29.5v-314h151v273q0 35 -0.5 59t-2 40.5t-4.5 28t-7 23.5q-5 13 -15.5 29.5t-29 31t-45.5 24.5t-64 10q-41 0 -70 -10.5t-48 -25t-30 -29t-16 -23.5l-4 76h-142
q1 -13 1.5 -29t1 -29.5t0.5 -23.5v-10v-415zM390 730l-70 -91l-70 91h-94l104 -145h117l106 145h-93z" />
    <glyph glyph-name="ohungarumlaut" unicode="&#xf5;" horiz-adv-x="611" 
d="M42 248q0 -66 20 -116t55 -83.5t82 -50t101 -16.5q69 0 119 22t82.5 59.5t48 86.5t15.5 102t-15 101t-47 84.5t-81.5 58t-118.5 21.5q-75 0 -125 -25t-80 -64t-43 -86.5t-13 -93.5zM194 247q0 17 2 46t12 56.5t32 48t63 20.5q37 0 59 -15.5t33.5 -39.5t15 -52t3.5 -53
q0 -50 -8 -83.5t-22 -53.5t-34.5 -28t-44.5 -8q-55 0 -83 38.5t-28 123.5zM376 730h-134l-84 -145h80zM561 730h-134l-84 -145h80z" />
    <glyph glyph-name="ohungarumlaut" unicode="&#x151;" horiz-adv-x="611" 
d="M42 248q0 -66 20 -116t55 -83.5t82 -50t101 -16.5q69 0 119 22t82.5 59.5t48 86.5t15.5 102t-15 101t-47 84.5t-81.5 58t-118.5 21.5q-75 0 -125 -25t-80 -64t-43 -86.5t-13 -93.5zM194 247q0 17 2 46t12 56.5t32 48t63 20.5q37 0 59 -15.5t33.5 -39.5t15 -52t3.5 -53
q0 -50 -8 -83.5t-22 -53.5t-34.5 -28t-44.5 -8q-55 0 -83 38.5t-28 123.5zM376 730h-134l-84 -145h80zM561 730h-134l-84 -145h80z" />
    <glyph glyph-name="rcaron" unicode="&#xf8;" horiz-adv-x="389" 
d="M65 0h148v249q0 24 3.5 48.5t19.5 43.5t48 29t88 5v133q-45 2 -75 -7t-49 -24t-30 -33t-18 -34l-3 97h-139q1 -11 2.5 -28.5t2.5 -36.5t1.5 -35.5t0.5 -25.5v-381zM279 730l-70 -91l-70 91h-94l104 -145h117l106 145h-93z" />
    <glyph glyph-name="rcaron" unicode="&#x159;" horiz-adv-x="389" 
d="M65 0h148v249q0 24 3.5 48.5t19.5 43.5t48 29t88 5v133q-45 2 -75 -7t-49 -24t-30 -33t-18 -34l-3 97h-139q1 -11 2.5 -28.5t2.5 -36.5t1.5 -35.5t0.5 -25.5v-381zM279 730l-70 -91l-70 91h-94l104 -145h117l106 145h-93z" />
    <glyph glyph-name="uring" unicode="&#xf9;" horiz-adv-x="611" 
d="M60 505v-314q0 -9 0.5 -26t3.5 -36t10 -39t19 -35q21 -28 61 -48t91 -20q36 0 61.5 9.5t43 22.5t28 26.5t16.5 21.5l5 -67h144q-2 11 -2.5 18.5t-1.5 18.5v11q0 7 -0.5 20.5t-1 38t-1.5 65.5v333h-152v-255q0 -32 -1.5 -60.5t-10.5 -50t-28 -34t-55 -12.5q-30 0 -46 11
t-23.5 28t-8.5 36t-1 36v301h-150zM306 760q-21 0 -39.5 -8t-32 -22t-21.5 -32.5t-8 -39.5t8 -40t22 -32.5t32 -21.5t39 -8t39.5 8t32 22t21.5 32.5t8 39.5t-7.5 39.5t-21 32.5t-32 22t-40.5 8zM306 712q23 0 38.5 -16t15.5 -38t-15.5 -37.5t-38.5 -15.5q-22 0 -37.5 15.5
t-15.5 37.5q0 23 15.5 38.5t37.5 15.5z" />
    <glyph glyph-name="uring" unicode="&#x16f;" horiz-adv-x="611" 
d="M60 505v-314q0 -9 0.5 -26t3.5 -36t10 -39t19 -35q21 -28 61 -48t91 -20q36 0 61.5 9.5t43 22.5t28 26.5t16.5 21.5l5 -67h144q-2 11 -2.5 18.5t-1.5 18.5v11q0 7 -0.5 20.5t-1 38t-1.5 65.5v333h-152v-255q0 -32 -1.5 -60.5t-10.5 -50t-28 -34t-55 -12.5q-30 0 -46 11
t-23.5 28t-8.5 36t-1 36v301h-150zM306 760q-21 0 -39.5 -8t-32 -22t-21.5 -32.5t-8 -39.5t8 -40t22 -32.5t32 -21.5t39 -8t39.5 8t32 22t21.5 32.5t8 39.5t-7.5 39.5t-21 32.5t-32 22t-40.5 8zM306 712q23 0 38.5 -16t15.5 -38t-15.5 -37.5t-38.5 -15.5q-22 0 -37.5 15.5
t-15.5 37.5q0 23 15.5 38.5t37.5 15.5z" />
    <glyph glyph-name="uhungarumlaut" unicode="&#xfb;" horiz-adv-x="611" 
d="M60 505v-314q0 -9 0.5 -26t3.5 -36t10 -39t19 -35q21 -28 61 -48t91 -20q36 0 61.5 9.5t43 22.5t28 26.5t16.5 21.5l5 -67h144q-2 11 -2.5 18.5t-1.5 18.5v11q0 7 -0.5 20.5t-1 38t-1.5 65.5v333h-152v-255q0 -32 -1.5 -60.5t-10.5 -50t-28 -34t-55 -12.5q-30 0 -46 11
t-23.5 28t-8.5 36t-1 36v301h-150zM364 730h-134l-84 -145h80zM549 730h-134l-84 -145h80z" />
    <glyph glyph-name="uhungarumlaut" unicode="&#x171;" horiz-adv-x="611" 
d="M60 505v-314q0 -9 0.5 -26t3.5 -36t10 -39t19 -35q21 -28 61 -48t91 -20q36 0 61.5 9.5t43 22.5t28 26.5t16.5 21.5l5 -67h144q-2 11 -2.5 18.5t-1.5 18.5v11q0 7 -0.5 20.5t-1 38t-1.5 65.5v333h-152v-255q0 -32 -1.5 -60.5t-10.5 -50t-28 -34t-55 -12.5q-30 0 -46 11
t-23.5 28t-8.5 36t-1 36v301h-150zM364 730h-134l-84 -145h80zM549 730h-134l-84 -145h80z" />
    <glyph glyph-name="yacute" unicode="&#xfd;" 
d="M14 505l194 -507l-64 -190h149l61 201l191 496h-147l-113 -350l-111 350h-160zM447 730h-135l-83 -145h80z" />
    <glyph glyph-name="tcommaaccent" unicode="&#xfe;" horiz-adv-x="389" 
d="M362 104q-14 -2 -23.5 -2.5t-26.5 -0.5q-25 0 -38.5 5t-19.5 15t-7.5 24t-1.5 31v228h120v98h-120v153l-147 -54v-99h-97v-98h97v-277q0 -16 2.5 -39t16.5 -44.5t44 -37t86 -15.5q18 0 48.5 3t66.5 13v97zM155 -51v-106h55q0 -15 -1.5 -31t-7 -30t-16.5 -24.5t-30 -14.5
v-44q32 4 52 17.5t31.5 34t15.5 46.5t4 54v98h-103z" />
    <glyph glyph-name="tcommaaccent" unicode="&#x163;" horiz-adv-x="389" 
d="M362 104q-14 -2 -23.5 -2.5t-26.5 -0.5q-25 0 -38.5 5t-19.5 15t-7.5 24t-1.5 31v228h120v98h-120v153l-147 -54v-99h-97v-98h97v-277q0 -16 2.5 -39t16.5 -44.5t44 -37t86 -15.5q18 0 48.5 3t66.5 13v97zM155 -51v-106h55q0 -15 -1.5 -31t-7 -30t-16.5 -24.5t-30 -14.5
v-44q32 4 52 17.5t31.5 34t15.5 46.5t4 54v98h-103z" />
    <glyph glyph-name="onehalf" horiz-adv-x="834" 
d="M140 -28h82l417 753h-82zM22 553q23 8 51.5 22.5t54.5 31.5v-326h98v419h-84q-12 -8 -44.5 -27t-75.5 -36v-84zM598 300q2 24 15.5 42.5t44.5 18.5q23 0 37.5 -15t14.5 -36q0 -8 -3.5 -19.5t-14.5 -26.5q-17 -22 -37 -41.5t-44 -39.5l-118 -98v-85h318v69q-27 0 -57 -0.5
t-59 -1t-55.5 -1t-45.5 -1.5q35 27 63 49t60 52q27 26 45 45t28 35t14 31t4 33q0 51 -40.5 82.5t-111.5 31.5q-35 0 -71.5 -10t-58.5 -36q-20 -23 -23.5 -44t-3.5 -34h99z" />
    <glyph glyph-name="Ncommaaccent" unicode="&#x145;" horiz-adv-x="778" 
d="M72 0h146v600l280 -600h213v723h-144v-569l-271 569h-224v-723zM338 -56v-106h55q0 -15 -1.5 -31t-7 -30t-16.5 -24.5t-30 -14.5v-44q32 4 52 17.5t31.5 34t15.5 46.5t4 54v98h-103z" />
    <glyph glyph-name="umacron" unicode="&#x16b;" horiz-adv-x="611" 
d="M60 505v-314q0 -9 0.5 -26t3.5 -36t10 -39t19 -35q21 -28 61 -48t91 -20q36 0 61.5 9.5t43 22.5t28 26.5t16.5 21.5l5 -67h144q-2 11 -2.5 18.5t-1.5 18.5v11q0 7 -0.5 20.5t-1 38t-1.5 65.5v333h-152v-255q0 -32 -1.5 -60.5t-10.5 -50t-28 -34t-55 -12.5q-30 0 -46 11
t-23.5 28t-8.5 36t-1 36v301h-150zM473 624v68h-342v-68h342z" />
    <glyph glyph-name="Delta" unicode="&#x394;" horiz-adv-x="722" 
d="M269 697l-260 -697h681l-278 697h-143zM189 124l152 422l162 -422h-314z" />
    <glyph glyph-name="amacron" unicode="&#x101;" 
d="M502 0q-7 32 -9.5 64t-2.5 64l-1 203q0 9 -0.5 23.5t-4 31.5t-10.5 35.5t-20 33.5q-19 22 -43.5 34.5t-49.5 19.5t-48 9t-39 2q-36 0 -77 -8t-76 -33q-20 -14 -31 -30.5t-17 -33t-7.5 -31t-1.5 -24.5h145q0 9 1.5 20.5t9.5 24.5q10 14 25 21t31 7q5 0 14.5 -1.5t19 -6
t18.5 -12.5t14 -22t6 -28t1 -39q-18 0 -43 -0.5t-52 -3t-54.5 -8.5t-50.5 -16q-35 -16 -56 -37t-32.5 -42.5t-15 -42t-3.5 -35.5q0 -30 10.5 -59t33.5 -52q15 -14 43 -27t83 -13q10 0 27.5 1.5t37.5 9t42.5 24t43.5 46.5q0 -11 0.5 -28.5t4.5 -40.5h134zM349 238
q0 -41 -4 -71t-24 -54q-11 -12 -27 -20.5t-36 -8.5q-18 0 -31.5 6.5t-22.5 17t-13.5 23t-4.5 25.5q0 22 12 39t34 27.5t51.5 14.5t65.5 1zM463 624v68h-342v-68h342z" />
    <glyph glyph-name=".363" unicode="&#xe002;" horiz-adv-x="667" 
d="M16 720l244 -455v-265h153v263l244 457h-159l-152 -329l-149 329h-181zM367 779h102v118h-102v-118zM195 779h102v118h-102v-118z" />
    <glyph glyph-name="scedilla" unicode="&#xba;" horiz-adv-x="500" 
d="M29 146q1 -18 6.5 -45.5t30.5 -53.5q18 -20 38.5 -31.5t40.5 -17.5t37.5 -8.5t31.5 -3.5l-52 -74l21 -21q7 3 17 6t24 3q26 0 35 -13t9 -24q0 -17 -14.5 -27.5t-40.5 -10.5q-16 0 -34.5 5t-35.5 13l-21 -42q10 -5 36 -13.5t61 -8.5q17 0 39 4t41.5 14t32.5 28t13 45
q0 10 -4 22.5t-13.5 23.5t-25.5 18.5t-41 7.5q-12 0 -19.5 -1t-15.5 -3l35 48q56 3 96 20t65.5 41.5t37 53.5t11.5 58q0 52 -33 87t-102 54l-91 25q-33 9 -51 18t-18 35q0 23 20 36.5t50 13.5q9 0 20.5 -1.5t22.5 -7.5t19 -18t10 -33h135q-2 38 -17.5 66t-41 46.5t-60 27.5
t-73.5 9q-49 0 -89.5 -11t-70 -31.5t-45.5 -49.5t-16 -66q0 -39 14 -64t34.5 -40.5t42.5 -23.5t37 -12l92 -25q43 -12 56.5 -26t13.5 -31q0 -23 -19 -41.5t-59 -18.5q-23 0 -39 6.5t-25.5 16t-14 22t-5.5 24.5h-139z" />
    <glyph glyph-name="scedilla" unicode="&#xf6c2;" horiz-adv-x="500" 
d="M29 146q1 -18 6.5 -45.5t30.5 -53.5q18 -20 38.5 -31.5t40.5 -17.5t37.5 -8.5t31.5 -3.5l-52 -74l21 -21q7 3 17 6t24 3q26 0 35 -13t9 -24q0 -17 -14.5 -27.5t-40.5 -10.5q-16 0 -34.5 5t-35.5 13l-21 -42q10 -5 36 -13.5t61 -8.5q17 0 39 4t41.5 14t32.5 28t13 45
q0 10 -4 22.5t-13.5 23.5t-25.5 18.5t-41 7.5q-12 0 -19.5 -1t-15.5 -3l35 48q56 3 96 20t65.5 41.5t37 53.5t11.5 58q0 52 -33 87t-102 54l-91 25q-33 9 -51 18t-18 35q0 23 20 36.5t50 13.5q9 0 20.5 -1.5t22.5 -7.5t19 -18t10 -33h135q-2 38 -17.5 66t-41 46.5t-60 27.5
t-73.5 9q-49 0 -89.5 -11t-70 -31.5t-45.5 -49.5t-16 -66q0 -39 14 -64t34.5 -40.5t42.5 -23.5t37 -12l92 -25q43 -12 56.5 -26t13.5 -31q0 -23 -19 -41.5t-59 -18.5q-23 0 -39 6.5t-25.5 16t-14 22t-5.5 24.5h-139z" />
    <glyph glyph-name="scedilla" unicode="&#x15f;" horiz-adv-x="500" 
d="M29 146q1 -18 6.5 -45.5t30.5 -53.5q18 -20 38.5 -31.5t40.5 -17.5t37.5 -8.5t31.5 -3.5l-52 -74l21 -21q7 3 17 6t24 3q26 0 35 -13t9 -24q0 -17 -14.5 -27.5t-40.5 -10.5q-16 0 -34.5 5t-35.5 13l-21 -42q10 -5 36 -13.5t61 -8.5q17 0 39 4t41.5 14t32.5 28t13 45
q0 10 -4 22.5t-13.5 23.5t-25.5 18.5t-41 7.5q-12 0 -19.5 -1t-15.5 -3l35 48q56 3 96 20t65.5 41.5t37 53.5t11.5 58q0 52 -33 87t-102 54l-91 25q-33 9 -51 18t-18 35q0 23 20 36.5t50 13.5q9 0 20.5 -1.5t22.5 -7.5t19 -18t10 -33h135q-2 38 -17.5 66t-41 46.5t-60 27.5
t-73.5 9q-49 0 -89.5 -11t-70 -31.5t-45.5 -49.5t-16 -66q0 -39 14 -64t34.5 -40.5t42.5 -23.5t37 -12l92 -25q43 -12 56.5 -26t13.5 -31q0 -23 -19 -41.5t-59 -18.5q-23 0 -39 6.5t-25.5 16t-14 22t-5.5 24.5h-139z" />
    <glyph glyph-name="Omacron" unicode="&#x14c;" horiz-adv-x="778" 
d="M42 351q0 -25 3 -58.5t12 -70t26.5 -73.5t47.5 -68q50 -52 117 -75.5t139 -23.5q22 0 54 3.5t67 14.5t70.5 31t65.5 54q22 25 39 57.5t28.5 69.5t17.5 77t6 79q0 27 -3.5 60.5t-13.5 69.5t-28 72.5t-47 69.5q-27 30 -59 49t-66 30t-67 15t-62 4q-98 0 -164 -33.5
t-107 -88t-58.5 -124t-17.5 -141.5zM204 356q0 62 11 117t42 93q22 28 55.5 44.5t77.5 16.5q56 0 99 -30.5t66 -97.5q11 -33 14.5 -68t3.5 -61q0 -43 -4.5 -75.5t-11 -57.5t-15.5 -43t-18 -31q-43 -67 -135 -67q-54 0 -84 17.5t-47 40.5q-32 42 -43 96t-11 106zM556 804v68
h-342v-68h342z" />
    <glyph glyph-name="commaaccent" unicode="&#xf004;" horiz-adv-x="278" 
d="M99 -56v-106h55q0 -15 -1.5 -31t-7 -30t-16.5 -24.5t-30 -14.5v-44q32 4 52 17.5t31.5 34t15.5 46.5t4 54v98h-103z" />
    <glyph glyph-name="commaaccent" unicode="&#xf6c3;" horiz-adv-x="278" 
d="M99 -56v-106h55q0 -15 -1.5 -31t-7 -30t-16.5 -24.5t-30 -14.5v-44q32 4 52 17.5t31.5 34t15.5 46.5t4 54v98h-103z" />
    <glyph glyph-name=".361" unicode="&#xe000;" horiz-adv-x="1000" 
d="M951 722h-479q-41 0 -70.5 -0.5t-54.5 -2.5t-48 -6t-52 -12q-53 -15 -93.5 -48t-67.5 -79.5t-40.5 -103t-13.5 -117.5q0 -21 3 -53t12.5 -68t27.5 -73t49 -67q34 -35 74 -53.5t84.5 -27t92 -10t97.5 -1.5h491v120h-308v190h287v116h-286v180h295v116zM500 111
q-36 -1 -73 -0.5t-71 6.5t-64 20t-52 41t-35 68.5t-13 102.5q0 40 5.5 77t18.5 68.5t33 55.5t49 38q18 9 36 14t41 7.5t53 3.5t72 1v-503z" />
    <glyph glyph-name="Emacron" unicode="&#x112;" horiz-adv-x="611" 
d="M74 0h495v120h-340v195h308v118h-308v172h329v118h-484v-723zM491 804v68h-342v-68h342z" />
    <glyph glyph-name="uogonek" unicode="&#x173;" horiz-adv-x="611" 
d="M536 505h-152v-255q0 -32 -1.5 -60.5t-10.5 -50t-28 -34t-55 -12.5q-30 0 -46 11t-23.5 28t-8.5 36t-1 36v301h-150v-314q0 -9 0.5 -26t3.5 -36t10 -39t19 -35q21 -28 61 -48t91 -20q36 0 61.5 9.5t43 22.5t28 26.5t16.5 21.5l5 -67h51q-51 -23 -84 -60.5t-33 -81.5
q0 -32 24.5 -53.5t71.5 -21.5q35 0 57 9t36 17v44q-8 -5 -17 -8.5t-24 -3.5q-3 0 -13 1t-20.5 7t-19 18.5t-8.5 35.5q0 33 21.5 54.5t52.5 42.5h49q-2 11 -2.5 18.5t-1.5 18.5v11q0 7 -0.5 20.5t-1 38t-1.5 65.5v333z" />
    <glyph glyph-name="Thorn" horiz-adv-x="611" 
d="M65 0h157v170h98q16 0 38 0.5t45.5 3.5t46.5 10t41 20q47 32 69.5 82.5t22.5 107.5q0 51 -14.5 87.5t-41.5 63.5q-22 22 -48.5 35.5t-57 20t-64 8.5t-69.5 2h-70v110h-153v-721zM218 493h78q16 0 37.5 -1.5t41.5 -10.5t34 -29t14 -56q0 -24 -10.5 -52t-38.5 -44
q-9 -6 -22 -9t-26 -4.5t-25 -1.5h-21h-62v208z" />
    <glyph glyph-name="Eth" horiz-adv-x="722" 
d="M65 0h225q27 0 47 0.5t35 1.5t26.5 2.5t21.5 3.5q51 9 97.5 36t82 72t56 108.5t20.5 146.5q0 39 -6.5 78.5t-21 77t-38 70.5t-57.5 58q-33 24 -70 37t-72 19.5t-63.5 7.5t-43.5 1l-239 1v-281h-65v-87h65v-353zM222 353h145v87h-145v164q33 1 58 1t44 -1.5t33.5 -4
t26.5 -5.5q36 -10 61.5 -32t41 -51.5t22.5 -65.5t7 -74q0 -13 -1.5 -38t-8 -54.5t-19.5 -59t-36 -52.5q-34 -34 -76 -42t-92 -8q-14 0 -31 0.5t-30 1.5v234z" />
    <glyph glyph-name="emacron" unicode="&#x113;" 
d="M523 215q1 16 1 37t-2.5 45.5t-9 50.5t-19.5 52q-17 35 -41 58.5t-51 37.5t-56 20t-56 6q-42 0 -77.5 -11t-64.5 -31q-32 -22 -52.5 -50.5t-32 -60t-16 -64.5t-4.5 -64q0 -61 15 -111t50 -86q20 -21 44 -33t48.5 -19t47 -9t38.5 -2q56 0 102.5 15t74.5 44q15 16 24.5 32
t14.5 30t6.5 26.5t2.5 21.5h-135q-11 -42 -35.5 -56t-52.5 -14q-39 0 -59.5 16.5t-30.5 38.5t-11.5 45t-1.5 35h339zM189 308q1 22 7 42.5t17.5 36t29 25t41.5 9.5q32 0 50 -14.5t26.5 -33.5t10 -37.5t1.5 -27.5h-183zM464 624v68h-342v-68h342z" />
    <glyph glyph-name="edotaccent" unicode="&#x117;" 
d="M523 215q1 16 1 37t-2.5 45.5t-9 50.5t-19.5 52q-17 35 -41 58.5t-51 37.5t-56 20t-56 6q-42 0 -77.5 -11t-64.5 -31q-32 -22 -52.5 -50.5t-32 -60t-16 -64.5t-4.5 -64q0 -61 15 -111t50 -86q20 -21 44 -33t48.5 -19t47 -9t38.5 -2q56 0 102.5 15t74.5 44q15 16 24.5 32
t14.5 30t6.5 26.5t2.5 21.5h-135q-11 -42 -35.5 -56t-52.5 -14q-39 0 -59.5 16.5t-30.5 38.5t-11.5 45t-1.5 35h339zM189 308q1 22 7 42.5t17.5 36t29 25t41.5 9.5q32 0 50 -14.5t26.5 -33.5t10 -37.5t1.5 -27.5h-183zM242 599h102v118h-102v-118z" />
    <glyph glyph-name="gbreve" unicode="&#x11f;" horiz-adv-x="611" 
d="M405 503l-5 -67q-6 8 -15.5 20.5t-26 24t-41 19.5t-58.5 8q-54 0 -94.5 -21t-67.5 -56t-40.5 -80t-13.5 -93q0 -46 13 -90.5t39 -79.5t66.5 -56.5t94.5 -21.5q13 0 29.5 2t34.5 9t36 21t36 37q0 -29 -0.5 -48t-1 -31.5t-2 -22t-3.5 -18.5q-8 -34 -33.5 -50t-58.5 -16
q-30 0 -47 9t-26 20.5t-11.5 23t-3.5 17.5h-142q3 -57 28 -89.5t59 -48.5t71 -20t64 -4q36 0 80 5.5t82.5 26.5t64 61.5t25.5 110.5v373q0 38 2 66.5t5 58.5h-139zM191 258q0 81 30 116t72 35q34 0 54 -16t30.5 -39.5t13.5 -50.5t3 -48q0 -8 -1.5 -31.5t-11.5 -48.5
t-31 -44.5t-60 -19.5q-37 0 -57 19.5t-29.5 44.5t-11 49.5t-1.5 33.5zM153 730q1 -17 4.5 -41.5t22.5 -48.5q20 -27 52 -41t70 -14q37 0 65 11.5t47.5 31.5t30 46t12.5 56h-61q-3 -10 -7.5 -24t-15 -26.5t-27 -21t-43.5 -8.5q-12 0 -26 3t-27 12t-22.5 24.5t-13.5 40.5h-61z
" />
    <glyph glyph-name="threequarters" horiz-adv-x="834" 
d="M653 91v-91h99v91h62v69h-62l3 259h-99l-182 -247v-81h179zM655 315q0 -3 -0.5 -9.5t-0.5 -14.5v-14v-8l-3 -111h-111zM186 -28h82l416 753h-82zM24 395q0 -14 3.5 -36t23.5 -45q13 -15 31 -23.5t36.5 -12.5t34 -5t22.5 -1q35 0 65 9t52 25.5t34.5 39.5t12.5 50
q0 32 -20 59t-71 41q8 2 22.5 7.5t29 16t25 28t10.5 43.5q0 19 -9 39.5t-27.5 37t-47 27t-67.5 10.5q-51 0 -82.5 -15t-45.5 -31q-17 -18 -20.5 -37.5t-5.5 -33.5h98q0 23 15.5 37.5t40.5 14.5q23 0 40 -12.5t17 -37.5q0 -21 -10.5 -33t-27 -18.5t-36.5 -8.5t-39 -2v-70
q19 0 39 -1t36 -7t26 -18.5t10 -35.5q0 -32 -18.5 -44.5t-38.5 -12.5t-32 7t-18 16t-7.5 18.5t-2.5 14.5h-98z" />
    <glyph glyph-name="fraction" unicode="&#x2215;" horiz-adv-x="167" 
d="M-167 -28h82l417 753h-82z" />
    <glyph glyph-name="Edotaccent" unicode="&#x116;" horiz-adv-x="611" 
d="M74 0h495v120h-340v195h308v118h-308v172h329v118h-484v-723zM267 779h101v118h-101v-118z" />
    <glyph glyph-name="Amacron" unicode="&#x100;" horiz-adv-x="722" 
d="M266 723l-261 -723h148l54 156h286l52 -156h156l-251 723h-184zM247 273l107 308l100 -308h-207zM528 804v68h-342v-68h342z" />
    <glyph glyph-name="imacron" unicode="&#x12b;" horiz-adv-x="278" 
d="M65 0h148v506h-148v-506zM306 624v68h-342v-68h342z" />
    <glyph glyph-name="Rcommaaccent" unicode="&#x156;" horiz-adv-x="667" 
d="M60 0h158v292h136q10 0 21.5 -0.5t22 -4.5t20 -12.5t14.5 -23.5q4 -11 9.5 -45.5t11 -75.5t10.5 -78t8 -52h171q-6 9 -11 18.5t-11 33.5q-4 15 -9 45.5t-13 94.5q-5 35 -10.5 64t-18.5 50.5t-36.5 34.5t-64.5 17q13 4 38.5 13t50.5 28.5t43.5 52t18.5 83.5
q0 35 -14.5 72.5t-48.5 66.5q-22 19 -47.5 29t-53.5 14.5t-58 5t-60 0.5h-277v-723zM213 609h104q37 0 60.5 -2t41.5 -15q11 -7 24.5 -25.5t13.5 -55.5q0 -19 -4.5 -33.5t-11 -24.5t-13.5 -16.5t-11 -9.5q-19 -15 -42 -17.5t-37 -2.5h-125v202zM283 -56v-106h55
q0 -15 -1.5 -31t-7 -30t-16.5 -24.5t-30 -14.5v-44q32 4 52 17.5t31.5 34t15.5 46.5t4 54v98h-103z" />
    <glyph glyph-name="Umacron" unicode="&#x16a;" horiz-adv-x="778" 
d="M72 721v-432q0 -51 5.5 -93.5t31.5 -84.5q25 -41 61 -65.5t73.5 -38t74 -17.5t63.5 -4q55 0 111 14t102 47t75 87.5t29 135.5v451h-151v-432q0 -27 -1.5 -46.5t-4.5 -34t-7 -24.5t-10 -18q-15 -23 -35 -36t-40.5 -19t-38 -7t-26.5 -1q-57 0 -88.5 16.5t-46.5 42.5
t-18.5 57.5t-3.5 61.5v440h-155zM556 804v68h-342v-68h342z" />
    <glyph glyph-name="rcommaaccent" unicode="&#x157;" horiz-adv-x="389" 
d="M65 0h148v249q0 24 3.5 48.5t19.5 43.5t48 29t88 5v133q-45 2 -75 -7t-49 -24t-30 -33t-18 -34l-3 97h-139q1 -11 2.5 -28.5t2.5 -36.5t1.5 -35.5t0.5 -25.5v-381zM87 -56v-106h55q0 -15 -1.5 -31t-7 -30t-16.5 -24.5t-30 -14.5v-44q32 4 52 17.5t31.5 34t15.5 46.5t4 54
v98h-103z" />
    <glyph glyph-name="Scedilla" unicode="&#xaa;" horiz-adv-x="667" 
d="M35 231q0 -18 1.5 -42.5t9 -50.5t22.5 -52t42.5 -47.5t70 -36t103.5 -18.5l-51 -72l21 -21q7 3 16.5 6t23.5 3q26 0 35.5 -13t9.5 -24q0 -17 -15 -27.5t-40 -10.5q-17 0 -35 5t-36 13l-20 -42q10 -5 36 -13.5t60 -8.5q17 0 39 4t41.5 14t32.5 28t13 45q0 10 -3.5 22.5
t-13 23.5t-25.5 18.5t-41 7.5q-12 0 -19.5 -1t-15.5 -3l33 45q85 3 141 26.5t90 57.5t48 74t14 77q0 53 -21 87.5t-56 57t-79.5 36t-91.5 24.5q-39 10 -68.5 18t-49 19t-29.5 27t-10 41q0 45 32.5 71.5t86.5 26.5q40 0 63 -13.5t35 -32t15 -37t4 -27.5h149q0 12 -1.5 27.5
t-5 33.5t-11.5 36.5t-21 35.5q-22 27 -49 43.5t-56.5 26t-58.5 13t-55 3.5q-76 0 -130.5 -18.5t-89 -49.5t-51 -71.5t-16.5 -84.5q0 -57 25 -94.5t68 -62.5t98.5 -41t117.5 -31q18 -5 34.5 -10t30 -14.5t21.5 -24.5t8 -40q0 -40 -34.5 -69.5t-102.5 -29.5q-50 0 -76.5 16.5
t-38.5 39t-14 45.5t-2 36h-158z" />
    <glyph glyph-name="Scedilla" unicode="&#xf6c1;" horiz-adv-x="667" 
d="M35 231q0 -18 1.5 -42.5t9 -50.5t22.5 -52t42.5 -47.5t70 -36t103.5 -18.5l-51 -72l21 -21q7 3 16.5 6t23.5 3q26 0 35.5 -13t9.5 -24q0 -17 -15 -27.5t-40 -10.5q-17 0 -35 5t-36 13l-20 -42q10 -5 36 -13.5t60 -8.5q17 0 39 4t41.5 14t32.5 28t13 45q0 10 -3.5 22.5
t-13 23.5t-25.5 18.5t-41 7.5q-12 0 -19.5 -1t-15.5 -3l33 45q85 3 141 26.5t90 57.5t48 74t14 77q0 53 -21 87.5t-56 57t-79.5 36t-91.5 24.5q-39 10 -68.5 18t-49 19t-29.5 27t-10 41q0 45 32.5 71.5t86.5 26.5q40 0 63 -13.5t35 -32t15 -37t4 -27.5h149q0 12 -1.5 27.5
t-5 33.5t-11.5 36.5t-21 35.5q-22 27 -49 43.5t-56.5 26t-58.5 13t-55 3.5q-76 0 -130.5 -18.5t-89 -49.5t-51 -71.5t-16.5 -84.5q0 -57 25 -94.5t68 -62.5t98.5 -41t117.5 -31q18 -5 34.5 -10t30 -14.5t21.5 -24.5t8 -40q0 -40 -34.5 -69.5t-102.5 -29.5q-50 0 -76.5 16.5
t-38.5 39t-14 45.5t-2 36h-158z" />
    <glyph glyph-name="Scedilla" unicode="&#x15e;" horiz-adv-x="667" 
d="M35 231q0 -18 1.5 -42.5t9 -50.5t22.5 -52t42.5 -47.5t70 -36t103.5 -18.5l-51 -72l21 -21q7 3 16.5 6t23.5 3q26 0 35.5 -13t9.5 -24q0 -17 -15 -27.5t-40 -10.5q-17 0 -35 5t-36 13l-20 -42q10 -5 36 -13.5t60 -8.5q17 0 39 4t41.5 14t32.5 28t13 45q0 10 -3.5 22.5
t-13 23.5t-25.5 18.5t-41 7.5q-12 0 -19.5 -1t-15.5 -3l33 45q85 3 141 26.5t90 57.5t48 74t14 77q0 53 -21 87.5t-56 57t-79.5 36t-91.5 24.5q-39 10 -68.5 18t-49 19t-29.5 27t-10 41q0 45 32.5 71.5t86.5 26.5q40 0 63 -13.5t35 -32t15 -37t4 -27.5h149q0 12 -1.5 27.5
t-5 33.5t-11.5 36.5t-21 35.5q-22 27 -49 43.5t-56.5 26t-58.5 13t-55 3.5q-76 0 -130.5 -18.5t-89 -49.5t-51 -71.5t-16.5 -84.5q0 -57 25 -94.5t68 -62.5t98.5 -41t117.5 -31q18 -5 34.5 -10t30 -14.5t21.5 -24.5t8 -40q0 -40 -34.5 -69.5t-102.5 -29.5q-50 0 -76.5 16.5
t-38.5 39t-14 45.5t-2 36h-158z" />
    <glyph glyph-name="eth" horiz-adv-x="611" 
d="M124 564l44 -34l92 63q33 -22 57 -42t41.5 -39t30 -37t23.5 -36q-7 6 -18.5 13.5t-27.5 15t-37.5 12.5t-48.5 5q-36 0 -77 -12.5t-75.5 -42t-57 -77t-22.5 -117.5q0 -60 20 -114.5t68 -89.5q38 -29 83 -37.5t85 -8.5q70 0 119 22.5t80.5 61.5t46 92.5t14.5 115.5
q0 85 -21.5 148t-52 109t-65.5 77t-62 51l76 51l-44 34l-79 -54q-14 8 -40.5 22.5t-84.5 40.5l-79 -90q36 -14 57 -24t41 -20zM309 81q-33 0 -54.5 13t-34 35t-17.5 50t-5 57q0 11 1.5 38t12 55t33 49.5t64.5 21.5q37 0 58.5 -17t32.5 -41t14 -50.5t3 -45.5q0 -26 -3.5 -55
t-15 -53.5t-33 -40.5t-56.5 -16z" />
    <glyph glyph-name="Uogonek" unicode="&#x172;" horiz-adv-x="778" 
d="M227 721h-155v-432q0 -51 5.5 -93.5t31.5 -84.5q25 -41 61 -65.5t73.5 -38t74 -17.5t63.5 -4q12 0 24 0.5t24 1.5l24 4l24 4q-48 -24 -79 -60t-31 -78q0 -32 24.5 -53.5t71.5 -21.5q35 0 57 9t36 17v44q-8 -5 -17 -8.5t-24 -3.5q-3 0 -13 1t-20.5 7t-19 18.5t-8.5 35.5
q0 16 9.5 33t26 33.5t38 32.5t44.5 31q18 11 40 29t41 46.5t32 68t13 93.5v451h-151v-432q0 -27 -1.5 -46.5t-4.5 -34t-7 -24.5t-10 -18q-15 -23 -35 -36t-40.5 -19t-38 -7t-26.5 -1q-57 0 -88.5 16.5t-46.5 42.5t-18.5 57.5t-3.5 61.5v440z" />
    <glyph glyph-name="Gbreve" unicode="&#x11e;" horiz-adv-x="778" 
d="M715 501q0 15 -1.5 32.5t-7 37t-15.5 40t-28 41.5q-43 49 -109.5 70t-136.5 21q-82 0 -151.5 -25.5t-120 -75t-79 -123t-28.5 -169.5q0 -29 3.5 -63.5t14 -70.5t29.5 -71t49 -65q21 -21 48.5 -38.5t64.5 -30.5t84.5 -20t109.5 -7q54 0 96 4t73.5 10t54.5 13t40 13v361
h-295v-120h140v-152q-6 -2 -15 -4.5t-22.5 -4.5t-33 -3.5t-47.5 -1.5q-65 0 -104 16t-66 46q-20 21 -32 47.5t-18 52.5t-8 51t-2 43q0 42 8 90t31.5 89t64.5 68.5t107 27.5q13 0 29 -2t33 -8t32.5 -17t26.5 -29q14 -21 16.5 -40t3.5 -33h161zM236 930q1 -17 4.5 -41.5
t22.5 -48.5q20 -27 52 -41t70 -14q37 0 65 11.5t47.5 31.5t30 46t12.5 56h-61q-3 -10 -7.5 -24t-15 -26.5t-27 -21t-43.5 -8.5q-12 0 -26 3t-27 12t-22.5 24.5t-13.5 40.5h-61z" />
    <glyph glyph-name="onesuperior" horiz-adv-x="333" 
d="M48 553q23 8 51.5 22.5t54.5 31.5v-326h98v419h-84q-12 -8 -44.5 -27t-75.5 -36v-84z" />
    <glyph glyph-name="iogonek" unicode="&#x12f;" horiz-adv-x="278" 
d="M60 593h158v129h-158v-129zM213 506h-148v-506h58q-51 -23 -84 -60.5t-33 -81.5q0 -32 24.5 -53.5t71.5 -21.5q35 0 57 9t36 17v44q-8 -5 -17 -8.5t-24 -3.5q-3 0 -13 1t-20.5 7t-19 18.5t-8.5 35.5q0 32 21 53.5t53 43.5h46v506z" />
    <glyph glyph-name="threesuperior" horiz-adv-x="333" 
d="M6 395q0 -14 3.5 -36t23.5 -45q13 -15 31 -23.5t36.5 -12.5t34 -5t22.5 -1q35 0 65 9t52 25.5t34.5 39.5t12.5 50q0 32 -20 59t-71 41q8 2 22.5 7.5t29 16t25 28t10.5 43.5q0 19 -9 39.5t-27.5 37t-47 27t-67.5 10.5q-51 0 -82.5 -15t-45.5 -31q-17 -18 -20.5 -37.5
t-5.5 -33.5h99q-1 23 14.5 37.5t40.5 14.5q23 0 40 -12.5t17 -37.5q0 -21 -10.5 -33t-27 -18.5t-36.5 -8.5t-38 -2v-70q19 0 39 -1t36 -7t26 -18.5t10 -35.5q0 -32 -19 -44.5t-39 -12.5t-31.5 7t-17.5 16t-8 18.5t-2 14.5h-99z" />
    <glyph glyph-name="Lcommaaccent" unicode="&#x13b;" 
d="M69 0h468v123h-310v599h-158v-722zM239 -56v-106h55q0 -15 -1.5 -31t-7 -30t-16.5 -24.5t-30 -14.5v-44q32 4 52 17.5t31.5 34t15.5 46.5t4 54v98h-103z" />
    <glyph glyph-name="thorn" horiz-adv-x="611" 
d="M42 723v-917h150v252q5 -7 15 -18t27 -21.5t41.5 -18t59.5 -7.5q53 0 94 21.5t68.5 58.5t42 86t14.5 103q0 56 -14 102.5t-40.5 80t-65.5 52t-90 18.5q-9 0 -27.5 -1.5t-40.5 -9t-44.5 -24.5t-39.5 -47v290h-150zM296 90q-38 0 -60 17.5t-33 42t-14 51.5t-3 47
q0 46 8.5 77.5t24.5 53.5q13 18 34.5 29.5t46.5 11.5q36 0 56.5 -19.5t31 -46t13 -54t2.5 -43.5q0 -20 -3.5 -48.5t-15 -55t-32.5 -45t-56 -18.5z" />
    <glyph glyph-name="Iogonek" unicode="&#x12e;" horiz-adv-x="278" 
d="M60 0h64q-51 -23 -84 -60.5t-33 -81.5q0 -32 24.5 -53.5t71.5 -21.5q35 0 57 9t36 17v44q-8 -5 -17 -8.5t-24 -3.5q-3 0 -13 1t-20.5 7t-19 18.5t-8.5 35.5q0 33 21.5 54.5t52.5 42.5h47v725h-155v-725z" />
    <glyph glyph-name="minus" unicode="&#x2212;" horiz-adv-x="584" 
d="M26 202h532v129h-532v-129z" />
    <glyph glyph-name=".362" unicode="&#xe001;" horiz-adv-x="944" 
d="M760 156q-8 -42 -30.5 -61t-55.5 -19q-32 0 -52 14t-31 35t-15 46t-4 48h335q0 18 -0.5 42.5t-3.5 51.5t-10.5 54t-20.5 50q-20 33 -46 53t-53 31t-52.5 14.5t-44.5 3.5q-46 0 -78 -11t-53.5 -26.5t-34 -31.5t-18.5 -26q-8 10 -21.5 25.5t-36.5 30.5t-56.5 26t-79.5 11
q-37 0 -81.5 -11.5t-83.5 -41.5t-65 -81.5t-26 -132.5q0 -48 12 -95.5t41.5 -86t78 -62.5t120.5 -24q58 0 105.5 19t92.5 74q13 -16 28 -32.5t36.5 -29.5t51.5 -21.5t73 -8.5q30 0 71 8t77 36q32 25 48 56t22 73h-139zM572 311q6 59 33 87t68 28q32 0 49.5 -13t26 -31
t10 -37.5t1.5 -33.5h-188zM305 80q-57 0 -85 41t-28 129q0 33 5 64t18 54.5t35 38t56 14.5q43 0 67 -19.5t34.5 -45.5t12.5 -53t2 -43q0 -27 -3 -58.5t-14.5 -58.5t-35 -45t-64.5 -18z" />
    <glyph glyph-name="ncommaaccent" unicode="&#x146;" horiz-adv-x="611" 
d="M67 0h149v296q0 29 5.5 48t12.5 29q12 18 32.5 28.5t44.5 10.5q29 0 46.5 -13t25.5 -30q6 -12 7 -25.5t1 -29.5v-314h151v273q0 35 -0.5 59t-2 40.5t-4.5 28t-7 23.5q-5 13 -15.5 29.5t-29 31t-45.5 24.5t-64 10q-41 0 -70 -10.5t-48 -25t-30 -29t-16 -23.5l-4 76h-142
q1 -13 1.5 -29t1 -29.5t0.5 -23.5v-10v-415zM255 -56v-106h55q0 -15 -1.5 -31t-7 -30t-16.5 -24.5t-30 -14.5v-44q32 4 52 17.5t31.5 34t15.5 46.5t4 54v98h-103z" />
    <glyph glyph-name="gcommaaccent" unicode="&#x123;" horiz-adv-x="611" 
d="M405 503l-5 -67q-6 8 -15.5 20.5t-26 24t-41 19.5t-58.5 8q-54 0 -94.5 -21t-67.5 -56t-40.5 -80t-13.5 -93q0 -46 13 -90.5t39 -79.5t66.5 -56.5t94.5 -21.5q13 0 29.5 2t34.5 9t36 21t36 37q0 -29 -0.5 -48t-1 -31.5t-2 -22t-3.5 -18.5q-8 -34 -33.5 -50t-58.5 -16
q-30 0 -47 9t-26 20.5t-11.5 23t-3.5 17.5h-142q3 -57 28 -89.5t59 -48.5t71 -20t64 -4q36 0 80 5.5t82.5 26.5t64 61.5t25.5 110.5v373q0 38 2 66.5t5 58.5h-139zM191 258q0 81 30 116t72 35q34 0 54 -16t30.5 -39.5t13.5 -50.5t3 -48q0 -8 -1.5 -31.5t-11.5 -48.5
t-31 -44.5t-60 -19.5q-37 0 -57 19.5t-29.5 44.5t-11 49.5t-1.5 33.5zM358 585v106h-55q0 15 1.5 31t7 30t16.5 24.5t30 14.5v44q-32 -4 -52.5 -17.5t-31.5 -34t-15 -46.5t-4 -54v-98h103z" />
    <glyph glyph-name="twosuperior" horiz-adv-x="333" 
d="M112 585q2 24 15.5 42.5t43.5 18.5q24 0 38.5 -15t14.5 -36q0 -8 -3.5 -19.5t-14.5 -26.5q-17 -23 -37 -42t-45 -39l-117 -99v-84h318v69q-27 0 -57 -0.5t-59 -1.5t-55.5 -1.5t-45.5 -0.5q35 26 63 48.5t60 52.5q27 25 45 44t28 35.5t14 31.5t4 33q0 51 -40.5 82.5
t-111.5 31.5q-36 0 -72 -10.5t-59 -35.5q-20 -23 -23 -44t-3 -34h99z" />
    <glyph glyph-name="lcommaaccent" unicode="&#x13c;" horiz-adv-x="278" 
d="M65 0h148v723h-148v-723zM88 -56v-106h55q0 -15 -1.5 -31t-7 -30t-16.5 -24.5t-30 -14.5v-44q32 4 52 17.5t31.5 34t15.5 46.5t4 54v98h-103z" />
    <glyph glyph-name="Imacron" unicode="&#x12a;" horiz-adv-x="278" 
d="M60 0h155v725h-155v-725zM306 804v68h-342v-68h342z" />
    <glyph glyph-name="Idotaccent" unicode="&#x130;" horiz-adv-x="278" 
d="M60 0h155v725h-155v-725zM88 779h102v118h-102v-118z" />
    <glyph glyph-name="Kcommaaccent" unicode="&#x136;" horiz-adv-x="667" 
d="M67 0h155v368l253 -368h193l-288 399l265 324h-181l-242 -313v311h-155v-721zM283 -56v-106h55q0 -15 -1.5 -31t-7 -30t-16.5 -24.5t-30 -14.5v-44q32 4 52 17.5t31.5 34t15.5 46.5t4 54v98h-103z" />
    <glyph glyph-name="onequarter" horiz-adv-x="834" 
d="M665 91v-91h98v91h63v69h-62l2 259h-98l-182 -247v-81h179zM674 315l-4 -157h-111zM142 -28h82l417 753h-83zM9 553q23 8 51.5 22.5t54.5 31.5v-326h98v419h-84q-12 -8 -44.5 -27t-75.5 -36v-84z" />
    <glyph glyph-name="Gcommaaccent" unicode="&#x122;" horiz-adv-x="778" 
d="M715 501q0 15 -1.5 32.5t-7 37t-15.5 40t-28 41.5q-43 49 -109.5 70t-136.5 21q-82 0 -151.5 -25.5t-120 -75t-79 -123t-28.5 -169.5q0 -29 3.5 -63.5t14 -70.5t29.5 -71t49 -65q21 -21 48.5 -38.5t64.5 -30.5t84.5 -20t109.5 -7q54 0 96 4t73.5 10t54.5 13t40 13v361
h-295v-120h140v-152q-6 -2 -15 -4.5t-22.5 -4.5t-33 -3.5t-47.5 -1.5q-65 0 -104 16t-66 46q-20 21 -32 47.5t-18 52.5t-8 51t-2 43q0 42 8 90t31.5 89t64.5 68.5t107 27.5q13 0 29 -2t33 -8t32.5 -17t26.5 -29q14 -21 16.5 -40t3.5 -33h161zM354 -56v-106h55
q0 -15 -1.5 -31t-7 -30t-16.5 -24.5t-30 -14.5v-44q32 4 52 17.5t31.5 34t15.5 46.5t4 54v98h-103z" />
    <glyph glyph-name="omacron" unicode="&#x14d;" horiz-adv-x="611" 
d="M42 248q0 -66 20 -116t55 -83.5t82 -50t101 -16.5q69 0 119 22t82.5 59.5t48 86.5t15.5 102t-15 101t-47 84.5t-81.5 58t-118.5 21.5q-75 0 -125 -25t-80 -64t-43 -86.5t-13 -93.5zM194 247q0 17 2 46t12 56.5t32 48t63 20.5q37 0 59 -15.5t33.5 -39.5t15 -52t3.5 -53
q0 -50 -8 -83.5t-22 -53.5t-34.5 -28t-44.5 -8q-55 0 -83 38.5t-28 123.5zM479 624v68h-342v-68h342z" />
    <glyph glyph-name="kcommaaccent" unicode="&#x137;" 
d="M67 0h147v275l156 -275h175l-184 288l173 220h-167l-153 -211v426h-147v-723zM227 -56v-106h55q0 -15 -1.5 -31t-7 -30t-16.5 -24.5t-30 -14.5v-44q32 4 52 17.5t31.5 34t15.5 46.5t4 54v98h-103z" />
  </font>
</defs>
</svg>
